<?xml version="1.0" standalone="no"?>
<!DOCTYPE svg PUBLIC "-//W3C//DTD SVG 1.1//EN" "http://www.w3.org/Graphics/SVG/1.1/DTD/svg11.dtd" >
<svg>
<metadata>
Created by FontForge 20090914 at Sun Nov 26 10:41:43 2017
 By www-data
Digitized data copyright 2012-2016, The Mozilla Foundation and Telefonica S.A.
</metadata>
<defs>
<font id="FiraSansExtraCondensed-Bold" horiz-adv-x="460" >
  <font-face 
    font-family="Fira Sans Extra Condensed"
    font-weight="700"
    font-stretch="ultra-condensed"
    units-per-em="1000"
    panose-1="2 11 8 3 5 0 0 2 0 4"
    ascent="800"
    descent="-200"
    x-height="531"
    cap-height="693"
    bbox="-657 -354 1360 1180"
    underline-thickness="50"
    underline-position="-50"
    unicode-range="U+000D-U+FEFF"
  />
<missing-glyph horiz-adv-x="666" 
d="M543 1050v-1400h-420v1400h420zM489 998h-311v-1296h311v1296zM409.5 419c17 -21.333 25.4961 -49.002 25.4961 -83.002c0 -35.333 -7.5 -62.666 -22.5 -81.999s-39.167 -31.333 -72.5 -36v-45c0 -7.33301 -2.5 -13.166 -7.5 -17.499s-10.833 -6.5 -17.5 -6.5
s-12.5 2.16699 -17.5 6.5s-7.5 10.166 -7.5 17.499v84c35.333 2 59.333 8.5 72 19.5s19 30.167 19 57.5c0 22 -4.33301 39 -13 51s-24.667 18 -48 18c-19.333 0 -36.666 -3.66699 -51.999 -11c-5.33301 -2 -9.66602 -3 -12.999 -3c-7.33301 0 -13.166 2.16699 -17.499 6.5
s-6.5 9.83301 -6.5 16.5c0 12.667 9.83301 22.334 29.5 29.001s40.834 10 63.501 10c40 0 68.5 -10.667 85.5 -32zM339.996 109.998c6.66699 -6.66699 10 -15 10 -25c0 -10.667 -3.33301 -19.5 -10 -26.5s-15 -10.5 -25 -10.5s-18.333 3.5 -25 10.5s-10 15.833 -10 26.5
c0 10 3.33301 18.333 10 25s15 10 25 10s18.333 -3.33301 25 -10z" />
    <glyph glyph-name="fi" unicode="fi" horiz-adv-x="507" 
d="M349 747c26.667 -7.33301 49.666 -16.667 68.999 -28l-40 -95c-32 14.667 -63.667 22 -95 22c-22.667 0 -38.667 -4.83301 -48 -14.5s-14 -25.5 -14 -47.5v-53h242v-531h-151v425h-91v-425h-151v425h-66v106h66v59c0 48 15.833 88 47.5 120s79.834 48 144.501 48
c31.333 0 60.333 -3.66699 87 -11z" />
    <glyph glyph-name="fl" unicode="fl" horiz-adv-x="540" 
d="M543 2c-10.667 -5.33301 -23.332 -9.83398 -37.999 -13.501s-30 -5.5 -46 -5.5c-42 0 -74.833 12.333 -98.5 37s-35.5 58.334 -35.5 101.001v521c-18 4.66699 -34.667 7 -50 7c-20.667 0 -34.834 -4.66699 -42.501 -14s-11.5 -25 -11.5 -47v-57h73l-16 -106h-57v-425
h-151v425h-66v106h66v60c0 48 15.333 87.833 46 119.5s75 47.5 133 47.5c31.333 0 63 -5.66699 95 -17l132 13v-626c0 -16.667 7.33301 -25 22 -25c4 0 10 1 18 3z" />
    <glyph glyph-name=".notdef" horiz-adv-x="666" 
d="M543 1050v-1400h-420v1400h420zM489 998h-311v-1296h311v1296zM409.5 419c17 -21.333 25.4961 -49.002 25.4961 -83.002c0 -35.333 -7.5 -62.666 -22.5 -81.999s-39.167 -31.333 -72.5 -36v-45c0 -7.33301 -2.5 -13.166 -7.5 -17.499s-10.833 -6.5 -17.5 -6.5
s-12.5 2.16699 -17.5 6.5s-7.5 10.166 -7.5 17.499v84c35.333 2 59.333 8.5 72 19.5s19 30.167 19 57.5c0 22 -4.33301 39 -13 51s-24.667 18 -48 18c-19.333 0 -36.666 -3.66699 -51.999 -11c-5.33301 -2 -9.66602 -3 -12.999 -3c-7.33301 0 -13.166 2.16699 -17.499 6.5
s-6.5 9.83301 -6.5 16.5c0 12.667 9.83301 22.334 29.5 29.001s40.834 10 63.501 10c40 0 68.5 -10.667 85.5 -32zM339.996 109.998c6.66699 -6.66699 10 -15 10 -25c0 -10.667 -3.33301 -19.5 -10 -26.5s-15 -10.5 -25 -10.5s-18.333 3.5 -25 10.5s-10 15.833 -10 26.5
c0 10 3.33301 18.333 10 25s15 10 25 10s18.333 -3.33301 25 -10z" />
    <glyph glyph-name="nonmarkingreturn" unicode="&#xd;" horiz-adv-x="185" 
 />
    <glyph glyph-name="space" unicode=" " horiz-adv-x="185" 
 />
    <glyph glyph-name="exclam" unicode="!" horiz-adv-x="221" 
d="M189 693l-21 -441h-116l-21 441h158zM172 132c16 -17.333 24 -38 24 -62s-8 -44.5 -24 -61.5s-36.667 -25.5 -62 -25.5c-24.667 0 -45 8.5 -61 25.5s-24 37.5 -24 61.5s8 44.667 24 62s36.333 26 61 26c25.333 0 46 -8.66699 62 -26z" />
    <glyph glyph-name="quotedbl" unicode="&#x22;" horiz-adv-x="413" 
d="M58 416l-16 277h128l-16 -277h-96zM259 416l-16 277h128l-16 -277h-96z" />
    <glyph glyph-name="numbersign" unicode="#" horiz-adv-x="468" 
d="M456 441h-52l-26 -195h48v-99h-61l-20 -147h-117l19 147h-77l-19 -147h-118l19 147h-40v99h53l26 195h-49v99h62l18 136h118l-18 -136h77l18 136h118l-18 -136h39v-99zM260 246l26 195h-77l-26 -195h77z" />
    <glyph glyph-name="dollar" unicode="$" horiz-adv-x="458" 
d="M400.5 71c-27 -36 -64.499 -60.3301 -112.499 -72.9971v-158h-104v150c-71.333 6.66699 -132.333 37.667 -183 93l72 80c22 -20 43.5 -35.333 64.5 -46s43.5 -16 67.5 -16c27.333 0 47.833 7.66699 61.5 23s20.5 36.666 20.5 63.999c0 24.667 -7 44.834 -21 60.501
s-38.667 30.5 -74 44.5c-61.333 26 -104.833 54.333 -130.5 85s-38.5 69.667 -38.5 117c0 48 15 88.833 45 122.5s68.667 55.167 116 64.5v147h104v-148c53.333 -10 99.666 -36.333 138.999 -79l-66 -78c-38 34.667 -76 52 -114 52c-22.667 0 -40.167 -6.33301 -52.5 -19
s-18.5 -29.334 -18.5 -50.001s7.16699 -37.834 21.5 -51.501s41.833 -29.167 82.5 -46.5c56 -24 96.833 -51.333 122.5 -82s38.5 -73.334 38.5 -128.001c0 -49.333 -13.5 -92 -40.5 -128z" />
    <glyph glyph-name="percent" unicode="%" horiz-adv-x="732" 
d="M513 719l90 -51l-383 -707l-89 51zM286 643.5c28 -31 42.001 -75.499 42.001 -133.499c0 -57.333 -14 -101.5 -42 -132.5s-64 -46.5 -108 -46.5s-80 15.5 -108 46.5s-42 75.167 -42 132.5s14.167 101.666 42.5 132.999s64.166 47 107.499 47c44 0 80 -15.5 108 -46.5z
M141.001 579.501c-7.33301 -15 -11 -38.167 -11 -69.5s3.66699 -54.333 11 -69s19.666 -22 36.999 -22s29.5 7.16699 36.5 21.5s10.5 37.5 10.5 69.5c0 31.333 -3.5 54.5 -10.5 69.5s-19.167 22.5 -36.5 22.5s-29.666 -7.5 -36.999 -22.5zM662.001 294.501
c28 -31 42 -75.167 42 -132.5c0 -58 -14 -102.333 -42 -133s-64 -46 -108 -46s-80.333 15.5 -109 46.5s-43 75.167 -43 132.5s14.333 101.5 43 132.5s65 46.5 109 46.5s80 -15.5 108 -46.5zM516.001 231.501c-7.33301 -14.333 -11 -37.5 -11 -69.5s3.66699 -55.167 11 -69.5
s20 -21.5 38 -21.5c17.333 0 29.5 7.16699 36.5 21.5s10.5 37.5 10.5 69.5s-3.5 55.167 -10.5 69.5s-19.167 21.5 -36.5 21.5c-18 0 -30.667 -7.16699 -38 -21.5z" />
    <glyph glyph-name="ampersand" unicode="&#x26;" horiz-adv-x="638" 
d="M402.5 665c33 -30 49.498 -69.665 49.498 -118.998c0 -38 -9.33301 -71.5 -28 -100.5s-46.334 -57.833 -83.001 -86.5l107 -131c14 40.667 26 87.667 36 141l117 -29c-19.333 -72 -44.666 -134.667 -75.999 -188l103 -107l-126 -62l-65 79
c-27.333 -26.667 -56.166 -46.5 -86.499 -59.5s-63.166 -19.5 -98.499 -19.5c-40 0 -75.5 8.16699 -106.5 24.5s-55.167 39.166 -72.5 68.499s-26 62.666 -26 99.999c0 40.667 9 75.667 27 105s47 59.333 87 90c-31.333 32.667 -52.833 61.5 -64.5 86.5
s-17.5 53.833 -17.5 86.5c0 30 7 57.667 21 83s35 45.5 63 60.5s62 22.5 102 22.5c58.667 0 104.5 -15 137.5 -45zM220.998 544.002c0 -22 2.83203 -40.5 8.49902 -55.5s16.834 -33.5 33.501 -55.5c17.333 20 29.5 37.833 36.5 53.5s10.5 35.167 10.5 58.5
s-3.66699 40.333 -11 51s-18 16 -32 16c-30.667 0 -46 -22.667 -46 -68zM213.497 241.502c-6.33301 -16.333 -9.50293 -35.833 -9.50293 -58.5c0 -30 7 -52.833 21 -68.5s33 -23.5 57 -23.5c16.667 0 31.834 3.5 45.501 10.5s26.834 17.833 39.501 32.5l-124 154
c-13.333 -14.667 -23.166 -30.167 -29.499 -46.5z" />
    <glyph glyph-name="quotesingle" unicode="'" horiz-adv-x="212" 
d="M58 416l-16 277h128l-16 -277h-96z" />
    <glyph glyph-name="parenleft" unicode="(" horiz-adv-x="280" 
d="M269 793c-39.333 -67.333 -67.166 -133.67 -83.499 -199.003s-24.5 -146.666 -24.5 -243.999s8.16699 -178.666 24.5 -243.999s44.166 -131.666 83.499 -198.999l-97 -64c-33.333 50.667 -61.333 99.167 -84 145.5s-41.167 99.5 -55.5 159.5s-21.5 127.333 -21.5 202
s7.16699 142 21.5 202s32.833 113.167 55.5 159.5s50.667 94.833 84 145.5z" />
    <glyph glyph-name="parenright" unicode=")" horiz-adv-x="280" 
d="M193 705c22 -44.667 40.167 -96.3291 54.5 -154.996s21.5 -125.334 21.5 -200.001s-7.16699 -141.334 -21.5 -200.001s-32.5 -110.334 -54.5 -155.001s-50.667 -95.334 -86 -152.001l-96 64c38.667 67.333 66.167 134.5 82.5 201.5s24.5 147.5 24.5 241.5
c0 94.667 -8.16699 175.334 -24.5 242.001s-43.833 133.667 -82.5 201l96 64c35.333 -56.667 64 -107.334 86 -152.001z" />
    <glyph glyph-name="asterisk" unicode="*" horiz-adv-x="392" 
d="M379 538l-113 -24l88 -104l-104 -66l-54 121l-53 -122l-104 66l87 105l-113 24l39 111l102 -56l-19 149h123l-20 -150l102 58z" />
    <glyph glyph-name="plus" unicode="+" horiz-adv-x="446" 
d="M284 542v-152h127v-117h-127v-152h-122v152h-127v117h127v152h122z" />
    <glyph glyph-name="comma" unicode="," horiz-adv-x="214" 
d="M166 133.5c15.333 -16.333 23.001 -36.834 23.001 -61.501c0 -11.333 -1.83301 -23 -5.5 -35s-11.834 -35.333 -24.501 -70l-53 -143h-79l37 174c-26 18.667 -39 43.334 -39 74.001c0 24.667 7.66699 45.167 23 61.5s35 24.5 59 24.5s43.667 -8.16699 59 -24.5z" />
    <glyph glyph-name="hyphen" unicode="-" horiz-adv-x="348" 
d="M38 254v118h273v-118h-273z" />
    <glyph glyph-name="period" unicode="." horiz-adv-x="220" 
d="M171 132c16 -17.333 24 -38 24 -62s-8 -44.5 -24 -61.5s-36.333 -25.5 -61 -25.5c-25.333 0 -45.833 8.5 -61.5 25.5s-23.5 37.5 -23.5 61.5s7.83301 44.667 23.5 62s36.167 26 61.5 26c24.667 0 45 -8.66699 61 -26z" />
    <glyph glyph-name="slash" unicode="/" horiz-adv-x="426" 
d="M249 815l128 -29l-200 -897l-127 29z" />
    <glyph glyph-name="zero" unicode="0" horiz-adv-x="514" 
d="M420.5 601c37 -59.333 55.5 -147.333 55.5 -264c0 -236 -72.667 -354 -218 -354c-146.667 0 -220 118 -220 354c0 235.333 73.333 353 220 353c71.333 0 125.5 -29.667 162.5 -89zM219 558c-9.33301 -13.333 -16.166 -37.168 -20.499 -71.501s-6.5 -84.166 -6.5 -149.499
c0 -66.667 2.16699 -117.167 6.5 -151.5s11.166 -58 20.499 -71s22.333 -19.5 39 -19.5s29.5 6.5 38.5 19.5s15.5 36.667 19.5 71s6 84.833 6 151.5c0 66 -2 116.167 -6 150.5s-10.5 58 -19.5 71s-21.833 19.5 -38.5 19.5s-29.667 -6.66699 -39 -20z" />
    <glyph glyph-name="one" unicode="1" horiz-adv-x="391" 
d="M329 675v-675h-147v528l-114 -85l-67 95l193 137h135z" />
    <glyph glyph-name="two" unicode="2" horiz-adv-x="421" 
d="M300.5 665c30.333 -16.667 53.167 -39.165 68.5 -67.498s23 -59.833 23 -94.5c0 -36.667 -6 -71.334 -18 -104.001s-33.333 -70.834 -64 -114.501s-76 -99.5 -136 -167.5h230l-16 -117h-375v108c63.333 78 110.666 139 141.999 183s53 80.833 65 110.5s18 60.167 18 91.5
c0 26.667 -5.5 46.667 -16.5 60s-26.833 20 -47.5 20c-18.667 0 -34.667 -4.83301 -48 -14.5s-29.333 -26.167 -48 -49.5l-87 65c50.667 77.333 117.334 116 200.001 116c42.667 0 79.167 -8.33301 109.5 -25z" />
    <glyph glyph-name="three" unicode="3" horiz-adv-x="435" 
d="M303 666.5c29.333 -15.667 51.832 -36.833 67.499 -63.5s23.5 -55.667 23.5 -87c0 -82 -43 -135 -129 -159c46.667 -6 83 -22.333 109 -49s39 -65 39 -115c0 -38 -8.66699 -73 -26 -105s-42.666 -57.5 -75.999 -76.5s-72.666 -28.5 -117.999 -28.5
c-42.667 0 -80 8.5 -112 25.5s-62 42.167 -90 75.5l81 73c20 -21.333 38 -36.5 54 -45.5s34 -13.5 54 -13.5c23.333 0 42.333 8.83301 57 26.5s22 42.834 22 75.501c0 35.333 -8 61 -24 77s-39.333 24 -70 24h-43l16 103h29c25.333 0 45.5 8.16699 60.5 24.5
s22.5 39.166 22.5 68.499c0 26 -6.33301 46 -19 60s-30 21 -52 21c-36 0 -70.333 -18 -103 -54l-75 75c56.667 60.667 123 91 199 91c39.333 0 73.666 -7.83301 102.999 -23.5z" />
    <glyph glyph-name="four" unicode="4" horiz-adv-x="474" 
d="M460 261v-114h-59v-147h-141l-1 147h-241v102l155 444l127 -45l-131 -387h92l17 163h123v-163h59z" />
    <glyph glyph-name="five" unicode="5" horiz-adv-x="455" 
d="M385 567h-199.001v-151c15.333 9.33301 29.5 16 42.5 20s27.167 6 42.5 6c46.667 0 84.834 -19 114.501 -57s44.5 -92 44.5 -162c0 -47.333 -9.33301 -89.166 -28 -125.499s-45.334 -64.5 -80.001 -84.5s-75 -30 -121 -30c-42.667 0 -79.5 8.66699 -110.5 26
s-58.5 42.333 -82.5 75l82 73c17.333 -20 33.833 -35 49.5 -45s33.834 -15 54.501 -15c26.667 0 47.167 10.333 61.5 31s21.5 52 21.5 94c0 42.667 -5.83301 72.667 -17.5 90s-28.5 26 -50.5 26c-11.333 0 -21.833 -1.83301 -31.5 -5.5s-20.5 -9.83398 -32.5 -18.501h-100
v362h357z" />
    <glyph glyph-name="six" unicode="6" horiz-adv-x="490" 
d="M425 394.5c29.333 -39 44.001 -93.499 44.001 -163.499c0 -76 -18.333 -136.333 -55 -181s-88.334 -67 -155.001 -67c-74.667 0 -130.167 27.833 -166.5 83.5s-54.5 136.5 -54.5 242.5c0 77.333 10.333 144.666 31 201.999s50.167 101.5 88.5 132.5s83.5 46.5 135.5 46.5
c49.333 0 93 -15 131 -45l-53 -87c-24 15.333 -47.333 23 -70 23c-30 0 -54.5 -15.833 -73.5 -47.5s-30.5 -79.167 -34.5 -142.5c30 41.333 69.333 62 118 62c46.667 0 84.667 -19.5 114 -58.5zM305.501 327.001c-9 16 -21.833 24 -38.5 24c-26 0 -51 -20 -75 -60
c0.666992 -50.667 3 -90.334 7 -119.001s10.833 -49.167 20.5 -61.5s22.5 -18.5 38.5 -18.5c22 0 37.667 11.833 47 35.5s14 61.834 14 114.501c0 40.667 -4.5 69 -13.5 85z" />
    <glyph glyph-name="seven" unicode="7" horiz-adv-x="392" 
d="M382 676v-103l-203 -589l-135 44l186 534h-223v114h375z" />
    <glyph glyph-name="eight" unicode="8" horiz-adv-x="486" 
d="M439.5 284.5c18.333 -29 27.501 -63.166 27.501 -102.499c0 -59.333 -19.833 -107.333 -59.5 -144s-95.834 -55 -168.501 -55c-69.333 0 -123.333 18.167 -162 54.5s-58 83.833 -58 142.5c0 38.667 9.16699 71.5 27.5 98.5s45.833 49.833 82.5 68.5
c-32 22 -54.667 46 -68 72s-20 55.667 -20 89c0 56 18.167 100.333 54.5 133s84.5 49 144.5 49c63.333 0 113.5 -15.333 150.5 -46s55.5 -73.334 55.5 -128.001c0 -63.333 -32.333 -114.333 -97 -153c42 -23.333 72.167 -49.5 90.5 -78.5zM199.001 569.501
c-10 -11.667 -15.001 -32.833 -15.001 -63.5c0 -24.667 4.33301 -44.167 13 -58.5s24.334 -27.5 47.001 -39.5l16 -8c16.667 16.667 28 33.167 34 49.5s9 35.833 9 58.5c0 28 -4.83301 48.167 -14.5 60.5s-24.5 18.5 -44.5 18.5s-35 -5.83301 -45 -17.5zM302 113.502
c12.667 15 19 38.166 19 69.499c0 28 -5.83301 50 -17.5 66s-32.5 31.333 -62.5 46l-24 12c-34 -27.333 -51 -67.333 -51 -120c0 -33.333 6.66699 -57.666 20 -72.999s33 -23 59 -23c25.333 0 44.333 7.5 57 22.5z" />
    <glyph glyph-name="nine" unicode="9" horiz-adv-x="482" 
d="M399 620.5c37.333 -46.333 55.999 -110.833 55.999 -193.5c0 -91.333 -13 -166.833 -39 -226.5s-65.5 -107.5 -118.5 -143.5s-122.5 -64.333 -208.5 -85l-30 107c72.667 20.667 127.334 47.167 164.001 79.5s61 78.166 73 137.499c-16 -20 -33.167 -35.167 -51.5 -45.5
s-39.166 -15.5 -62.499 -15.5c-28.667 0 -55.5 9 -80.5 27s-45 43.833 -60 77.5s-22.5 72.834 -22.5 117.501c0 48.667 9.33301 90.667 28 126s44.5 62 77.5 80s70.167 27 111.5 27c71.333 0 125.666 -23.167 162.999 -69.5zM300.999 396c0.666992 49.333 -1 87.333 -5 114
s-10.667 45.667 -20 57s-22.333 17 -39 17c-44.667 0 -67 -40.667 -67 -122c0 -42.667 5.5 -73.667 16.5 -93s25.833 -29 44.5 -29c26.667 0 50 18.667 70 56z" />
    <glyph glyph-name="colon" unicode=":" horiz-adv-x="220" 
d="M171 132c16 -17.333 24 -38 24 -62s-8 -44.5 -24 -61.5s-36.333 -25.5 -61 -25.5c-25.333 0 -45.833 8.5 -61.5 25.5s-23.5 37.5 -23.5 61.5s7.83301 44.667 23.5 62s36.167 26 61.5 26c24.667 0 45 -8.66699 61 -26zM171 478c16 -17.333 24 -38 24 -62
s-8 -44.5 -24 -61.5s-36.333 -25.5 -61 -25.5c-25.333 0 -45.833 8.5 -61.5 25.5s-23.5 37.5 -23.5 61.5s7.83301 44.667 23.5 62s36.167 26 61.5 26c24.667 0 45 -8.66699 61 -26z" />
    <glyph glyph-name="semicolon" unicode=";" horiz-adv-x="220" 
d="M166 133.5c15.333 -16.333 23.001 -36.834 23.001 -61.501c0 -11.333 -1.83301 -23 -5.5 -35s-11.834 -35.333 -24.501 -70l-53 -143h-79l37 174c-26 18.667 -39 43.334 -39 74.001c0 24.667 7.66699 45.167 23 61.5s35 24.5 59 24.5s43.667 -8.16699 59 -24.5z
M171.001 477.999c16 -17.333 24 -38 24 -62s-8 -44.5 -24 -61.5s-36.333 -25.5 -61 -25.5c-25.333 0 -45.833 8.5 -61.5 25.5s-23.5 37.5 -23.5 61.5s7.83301 44.667 23.5 62s36.167 26 61.5 26c24.667 0 45 -8.66699 61 -26z" />
    <glyph glyph-name="less" unicode="&#x3c;" horiz-adv-x="432" 
d="M359 568l51 -102l-268 -133l268 -130l-51 -105l-338 172v126z" />
    <glyph glyph-name="equal" unicode="=" horiz-adv-x="431" 
d="M35 378v114h361v-114h-361zM35 170v114h361v-114h-361z" />
    <glyph glyph-name="greater" unicode="&#x3e;" horiz-adv-x="432" 
d="M72 568l338 -172v-126l-338 -172l-51 105l268 130l-268 133z" />
    <glyph glyph-name="question" unicode="?" horiz-adv-x="412" 
d="M314.5 687c28.333 -15.333 49.6699 -35.666 64.0029 -60.999s21.5 -52.666 21.5 -81.999c0 -24.667 -3.66699 -46 -11 -64s-16.333 -33 -27 -45s-24.667 -25.667 -42 -41c-22.667 -20 -39.5 -37.833 -50.5 -53.5s-16.5 -36.167 -16.5 -61.5v-27h-135v33
c0 30 3.66699 55.167 11 75.5s16.166 36.666 26.499 48.999s23.5 25.5 39.5 39.5c17.333 15.333 30.166 29 38.499 41s12.5 27.667 12.5 47c0 17.333 -4.66699 30.666 -14 39.999s-22 14 -38 14s-31.333 -4.5 -46 -13.5s-30.334 -23.167 -47.001 -42.5l-89 69
c50 70.667 116.667 106 200 106c40 0 74.167 -7.66699 102.5 -23zM248.004 132c16 -17.333 24 -38 24 -62s-8 -44.5 -24 -61.5s-36.333 -25.5 -61 -25.5c-25.333 0 -45.833 8.5 -61.5 25.5s-23.5 37.5 -23.5 61.5s7.83301 44.667 23.5 62s36.167 26 61.5 26
c24.667 0 45 -8.66699 61 -26z" />
    <glyph glyph-name="at" unicode="@" horiz-adv-x="847" 
d="M513.5 490.5c26.333 -7.66699 50.166 -18.832 71.499 -33.499v-247c0 -44 2.33301 -73.5 7 -88.5s13.334 -22.5 26.001 -22.5c40.667 0 61 71.333 61 214c0 92.667 -19.833 163.834 -59.5 213.501s-100.167 74.5 -181.5 74.5c-86 0 -152.167 -32.167 -198.5 -96.5
s-69.5 -151.833 -69.5 -262.5c0 -117.333 22.5 -205.5 67.5 -264.5s112.167 -88.5 201.5 -88.5c28.667 0 57.167 3 85.5 9s53.833 14 76.5 24l34 -101c-28 -12.667 -59.167 -22.834 -93.5 -30.501s-69.166 -11.5 -104.499 -11.5c-82.667 0 -154 18.667 -214 56
s-105.833 90.666 -137.5 159.999s-47.5 151.666 -47.5 246.999c0 90 17.167 170.5 51.5 241.5s81.833 126.333 142.5 166s129 59.5 205 59.5c76.667 0 143 -17.667 199 -53s98.833 -83 128.5 -143s44.5 -126 44.5 -198c0 -59.333 -8 -112.5 -24 -159.5
s-38.167 -83.833 -66.5 -110.5s-59.833 -40 -94.5 -40c-30 0 -54.833 9.33301 -74.5 28s-31.834 41.334 -36.501 68.001c-10.667 -28.667 -26 -51.334 -46 -68.001s-44.667 -25 -74 -25c-49.333 0 -86.833 19.833 -112.5 59.5s-38.5 94.834 -38.5 165.501
c0 84.667 16.667 150.667 50 198s81 71 143 71c26 0 52.167 -3.83301 78.5 -11.5zM460 136.002v267.001c-8.66699 4 -19 6 -31 6c-13.333 0 -23.833 -5 -31.5 -15s-13.334 -27.833 -17.001 -53.5s-5.5 -61.834 -5.5 -108.501c0 -35.333 1.33301 -62.333 4 -81
s6.83398 -31.667 12.501 -39s13.5 -11 23.5 -11c16.667 0 31.667 11.667 45 35z" />
    <glyph glyph-name="A" unicode="A" horiz-adv-x="506" 
d="M356 0l-28 152h-154l-27 -152h-156l168 693h188l168 -693h-159zM195 265h113l-57 313z" />
    <glyph glyph-name="B" unicode="B" horiz-adv-x="513" 
d="M460 313.5c25.333 -25.667 38.001 -63.167 38.001 -112.5c0 -69.333 -23.333 -120.166 -70 -152.499s-110.334 -48.5 -191.001 -48.5h-191v693h169c82 0 145.667 -14.833 191 -44.5s68 -73.834 68 -132.501c0 -39.333 -10.667 -71.5 -32 -96.5s-49.333 -42.5 -84 -52.5
c42.667 -10 76.667 -27.833 102 -53.5zM203.001 582v-168.002h30c30 0 51.333 7.33301 64 22s19 36.334 19 65.001c0 26.667 -6.83301 46.834 -20.5 60.501s-35.5 20.5 -65.5 20.5h-27zM313.001 136.498c16.667 15 24.998 39.501 24.998 73.501
c0 33.333 -7.66699 58.166 -23 74.499s-39.666 24.5 -72.999 24.5h-39v-195h36c32.667 0 57.334 7.5 74.001 22.5z" />
    <glyph glyph-name="C" unicode="C" horiz-adv-x="484" 
d="M392.5 691c29.667 -12.667 57.499 -31.668 83.499 -57.001l-73 -86c-16.667 14.667 -32.834 25.834 -48.501 33.501s-32.5 11.5 -50.5 11.5c-36.667 0 -64.667 -18.833 -84 -56.5s-29 -100.5 -29 -188.5c0 -86 9.83301 -148 29.5 -186s47.834 -57 84.501 -57
c20 0 37.333 4 52 12s32.667 20.667 54 38l71 -84c-24 -26 -52 -47.167 -84 -63.5s-67.667 -24.5 -107 -24.5c-80 0 -143.833 30.667 -191.5 92s-71.5 152.333 -71.5 273c0 79.333 11.167 146 33.5 200s53.5 94.5 93.5 121.5s86 40.5 138 40.5
c36.667 0 69.834 -6.33301 99.501 -19z" />
    <glyph glyph-name="D" unicode="D" horiz-adv-x="549" 
d="M375.5 666.5c43 -17.667 78 -51.667 105 -102s40.5 -121.833 40.5 -214.5c0 -130 -26.167 -220.833 -78.5 -272.5s-122.5 -77.5 -210.5 -77.5h-186v693h175c60 0 111.5 -8.83301 154.5 -26.5zM203 580v-465.998h38c26.667 0 48.5 6.83301 65.5 20.5
s30.167 37.667 39.5 72s14 82.166 14 143.499c0 62 -4.83301 109.667 -14.5 143s-23 56.166 -40 68.499s-38.5 18.5 -64.5 18.5h-38z" />
    <glyph glyph-name="E" unicode="E" horiz-adv-x="432" 
d="M412 693l-16 -112h-193v-174h170v-110h-170v-183h206v-114h-363v693h366z" />
    <glyph glyph-name="F" unicode="F" horiz-adv-x="404" 
d="M46 0v693h354l-16 -112h-181v-190h159v-113h-159v-278h-157z" />
    <glyph glyph-name="G" unicode="G" horiz-adv-x="545" 
d="M508 626l-75.002 -78.999c-20.667 17.333 -39.5 29.833 -56.5 37.5s-36.5 11.5 -58.5 11.5c-42.667 0 -74.667 -18.333 -96 -55s-32 -101.334 -32 -194.001c0 -65.333 3.66699 -116 11 -152s18.333 -61 33 -75s34 -21 58 -21c24.667 0 47.667 7 69 21v166h-66l-15 111
h229v-342c-30 -22 -64 -39.333 -102 -52s-75.333 -19 -112 -19c-91.333 0 -158.666 29.333 -201.999 88s-65 150.334 -65 275.001c0 80.667 12.167 148.167 36.5 202.5s57.833 94.666 100.5 120.999s91.334 39.5 146.001 39.5c75.333 0 141 -28 197 -84z" />
    <glyph glyph-name="H" unicode="H" horiz-adv-x="551" 
d="M348 0v299h-145v-299h-157v693h157v-271h145v271h157v-693h-157z" />
    <glyph glyph-name="I" unicode="I" horiz-adv-x="250" 
d="M203 693v-693h-157v693h157z" />
    <glyph glyph-name="J" unicode="J" horiz-adv-x="267" 
d="M223 104c0 -53.333 -9 -97.6689 -27 -133.002s-41 -63.166 -69 -83.499s-61.667 -38.166 -101 -53.499l-41 110c24 12 41.667 24.833 53 38.5s18.833 30 22.5 49s5.5 45.167 5.5 78.5v583h157v-589z" />
    <glyph glyph-name="K" unicode="K" horiz-adv-x="540" 
d="M203 693v-693h-157v693h157zM537 693l-172 -312l187 -381h-171l-173 370l174 323h155z" />
    <glyph glyph-name="L" unicode="L" horiz-adv-x="426" 
d="M203 693v-569h218l-16 -124h-359v693h157z" />
    <glyph glyph-name="M" unicode="M" horiz-adv-x="667" 
d="M640 0h-148l-6 275c-2 63.333 -3 125 -3 185c0 42 0.333008 73 1 93l-77 -479h-147l-81 480c1.33301 -37.333 2 -89.333 2 -156c0 -54 -0.333008 -95.667 -1 -125l-6 -273h-147l42 693h194l73 -474l66 474h197z" />
    <glyph glyph-name="N" unicode="N" horiz-adv-x="547" 
d="M501 0h-194l-146 549c6.66699 -58 11.667 -106.5 15 -145.5s5 -86.167 5 -141.5v-262h-135v693h194l146 -549c-14 92 -21 178.333 -21 259v290h136v-693z" />
    <glyph glyph-name="O" unicode="O" horiz-adv-x="581" 
d="M485.5 619.5c45 -60.333 67.5 -151.167 67.5 -272.5c0 -120 -22.667 -210.667 -68 -272s-110.333 -92 -195 -92s-149.5 30.167 -194.5 90.5s-67.5 151.5 -67.5 273.5c0 120 22.5 210.5 67.5 271.5s109.833 91.5 194.5 91.5c85.333 0 150.5 -30.167 195.5 -90.5z
M214.5 538.499c-15.667 -37.667 -23.498 -101.499 -23.498 -191.499c0 -62.667 3.5 -112 10.5 -148s17.667 -61.833 32 -77.5s33.166 -23.5 56.499 -23.5c24 0 43.167 7.66699 57.5 23s25 41.166 32 77.499s10.5 85.833 10.5 148.5c0 90.667 -7.83301 154.667 -23.5 192
s-41.167 56 -76.5 56c-34.667 0 -59.834 -18.833 -75.501 -56.5z" />
    <glyph glyph-name="P" unicode="P" horiz-adv-x="499" 
d="M421 636c45.333 -38 67.999 -94 67.999 -168c0 -77.333 -21.667 -135.833 -65 -175.5s-104.666 -59.5 -183.999 -59.5h-37v-233h-157v693h178c86 0 151.667 -19 197 -57zM304.499 374.5c15.667 18.333 23.5 49.5 23.5 93.5c0 38.667 -7.5 67.167 -22.5 85.5
s-40.5 27.5 -76.5 27.5h-26v-234h24c36 0 61.833 9.16699 77.5 27.5z" />
    <glyph glyph-name="Q" unicode="Q" horiz-adv-x="581" 
d="M514.5 27c27.667 -10.667 54.1641 -27.999 79.4971 -51.999l-94 -118c-28 40.667 -59.333 72.5 -94 95.5s-76.667 34.5 -126 34.5c-79.333 0 -141.166 30.667 -185.499 92s-66.5 150.666 -66.5 267.999c0 118.667 22.667 208.834 68 270.501s110 92.5 194 92.5
c85.333 0 150.5 -30.5 195.5 -91.5s67.5 -151.5 67.5 -271.5c0 -81.333 -12.667 -145.333 -38 -192s-59.666 -83.667 -102.999 -111c40.667 -0.666992 74.834 -6.33398 102.501 -17.001zM201.497 199.501c7 -36.333 17.667 -62.167 32 -77.5s33.166 -23 56.499 -23
c24 0 43.167 7.66699 57.5 23s25 41 32 77s10.5 85.333 10.5 148c0 62 -3.5 111 -10.5 147s-17.833 61.833 -32.5 77.5s-33.667 23.5 -57 23.5s-42.166 -7.83301 -56.499 -23.5s-25 -41.5 -32 -77.5s-10.5 -85 -10.5 -147s3.5 -111.167 10.5 -147.5z" />
    <glyph glyph-name="R" unicode="R" horiz-adv-x="517" 
d="M359 0l-113 267.001h-5h-38v-267h-157v693h185c172 0 258 -70 258 -210c0 -40.667 -8.5 -77.334 -25.5 -110.001s-43.5 -58 -79.5 -76l142 -297h-167zM235 376.001c33.333 0 57.334 8.5 72.001 25.5s22 44.167 22 81.5c0 34 -7.83301 59 -23.5 75s-40.834 24 -75.501 24
h-27v-206h32z" />
    <glyph glyph-name="S" unicode="S" horiz-adv-x="477" 
d="M355.5 688c33 -14.667 63.166 -36.665 90.499 -65.998l-69 -82c-40 36.667 -79.667 55 -119 55c-22.667 0 -40.334 -6.66699 -53.001 -20s-19 -31 -19 -53c0 -21.333 7.33301 -38.833 22 -52.5s43 -29.5 85 -47.5c38.667 -17.333 70 -35.166 94 -53.499
s42.167 -40.833 54.5 -67.5s18.5 -59.667 18.5 -99c0 -42 -9.5 -79.667 -28.5 -113s-46.167 -59.333 -81.5 -78s-76.666 -28 -123.999 -28c-49.333 0 -92 8.66699 -128 26s-68.333 41.333 -97 72l75 83c24 -21.333 46.833 -37.5 68.5 -48.5s44.834 -16.5 69.501 -16.5
c27.333 0 48 8.16699 62 24.5s21 38.5 21 66.5c0 25.333 -7 46.166 -21 62.499s-39.333 31.833 -76 46.5c-64 26.667 -109.333 56.167 -136 88.5s-40 73.166 -40 122.499c0 39.333 9.33301 74.166 28 104.499s44.5 53.833 77.5 70.5s70.167 25 111.5 25
c43.333 0 81.5 -7.33301 114.5 -22z" />
    <glyph glyph-name="T" unicode="T" horiz-adv-x="450" 
d="M452 693l-16 -120h-133v-573h-157v573h-141v120h447z" />
    <glyph glyph-name="U" unicode="U" horiz-adv-x="536" 
d="M500 200c0 -41.333 -8.66797 -78.166 -26.001 -110.499s-43.333 -58 -78 -77s-77.334 -28.5 -128.001 -28.5c-76 0 -133.667 19.667 -173 59s-59 91.666 -59 156.999v493h157v-486c0 -36 5.83301 -62.667 17.5 -80s30.834 -26 57.501 -26s45.834 8.66699 57.501 26
s17.5 44 17.5 80v486h157v-493z" />
    <glyph glyph-name="V" unicode="V" horiz-adv-x="488" 
d="M497 693l-148 -693h-202l-156 693h157l102 -569l94 569h153z" />
    <glyph glyph-name="W" unicode="W" horiz-adv-x="712" 
d="M704 693l-87 -693h-205l-57 537l-63 -537h-200l-84 693h150l50 -573l68 573h162l64 -573l58 573h144z" />
    <glyph glyph-name="X" unicode="X" horiz-adv-x="489" 
d="M335 374l161 -374h-164l-91 270l-86 -270h-162l155 368l-144 325h164l75 -228l80 228h160z" />
    <glyph glyph-name="Y" unicode="Y" horiz-adv-x="500" 
d="M511 693l-182 -432v-261h-157v260l-182 433h164l98 -310l100 310h159z" />
    <glyph glyph-name="Z" unicode="Z" horiz-adv-x="450" 
d="M432 693v-119l-251 -448h256l-15 -126h-412v117l250 454h-226v122h398z" />
    <glyph glyph-name="bracketleft" unicode="[" horiz-adv-x="271" 
d="M257 822v-112h-94v-721h94v-111h-236v944h236z" />
    <glyph glyph-name="backslash" unicode="\" horiz-adv-x="426" 
d="M177 814l200 -896l-128 -29l-199 896z" />
    <glyph glyph-name="bracketright" unicode="]" horiz-adv-x="271" 
d="M249 822v-944h-235v111h94v722h-94v111h235z" />
    <glyph glyph-name="asciicircum" unicode="^" horiz-adv-x="470" 
d="M304 843l155 -316h-146l-80 202l-75 -202h-147l155 316h138z" />
    <glyph glyph-name="underscore" unicode="_" horiz-adv-x="432" 
d="M9 -168v119h415v-119h-415z" />
    <glyph glyph-name="grave" unicode="`" horiz-adv-x="302" 
d="M94 825l183 -128l-41 -73l-201 94z" />
    <glyph glyph-name="a" unicode="a" horiz-adv-x="457" 
d="M416 104c4 -8 11.001 -14.334 21.001 -19.001l-31 -99c-28.667 2.66699 -52.167 9.5 -70.5 20.5s-32.5 28.167 -42.5 51.5c-30.667 -50 -74.334 -75 -131.001 -75c-44 0 -79 15.167 -105 45.5s-39 70.5 -39 120.5c0 58 18 102.167 54 132.5s88.667 45.5 158 45.5h32v28
c0 32 -4.83301 54.167 -14.5 66.5s-26.834 18.5 -51.501 18.5c-30.667 0 -68.667 -9 -114 -27l-34 96c27.333 12.667 56.5 22.334 87.5 29.001s60.5 10 88.5 10c62.667 0 109.334 -15.167 140.001 -45.5s46 -76.833 46 -139.5v-222c0 -16.667 2 -29 6 -37zM239.001 102.999
c9.33301 8.66699 17.001 20.999 23.001 36.999v103h-18c-27.333 0 -47.166 -6.5 -59.499 -19.5s-18.5 -33.5 -18.5 -61.5c0 -23.333 3.66699 -41.166 11 -53.499s17.666 -18.5 30.999 -18.5c11.333 0 21.666 4.33301 30.999 13z" />
    <glyph glyph-name="b" unicode="b" horiz-adv-x="499" 
d="M432.5 477c27 -47.333 40.5 -118.002 40.5 -212.002c0 -87.333 -15.5 -156.166 -46.5 -206.499s-73.833 -75.5 -128.5 -75.5c-23.333 0 -44.5 5.66699 -63.5 17s-35.167 27.333 -48.5 48l-7 -48h-134v742l151 16v-276c14 20.667 31.167 36.834 51.5 48.501
s42.5 17.5 66.5 17.5c52 0 91.5 -23.667 118.5 -71zM301.5 130.998c11 25.333 16.5 70 16.5 134c0 67.333 -4.83301 112.833 -14.5 136.5s-23.5 35.5 -41.5 35.5c-24 0 -46 -19 -66 -57v-240c16 -31.333 35.333 -47 58 -47c20.667 0 36.5 12.667 47.5 38z" />
    <glyph glyph-name="c" unicode="c" horiz-adv-x="401" 
d="M335 532c24.667 -10.667 47.666 -27 68.999 -49l-62 -83c-27.333 22 -53.333 33 -78 33c-27.333 0 -47.666 -12.5 -60.999 -37.5s-20 -69.5 -20 -133.5c0 -60.667 7 -102.667 21 -126s33.667 -35 59 -35c13.333 0 25.666 2.33301 36.999 7s24.333 12.667 39 24l65 -87
c-43.333 -41.333 -93.333 -62 -150 -62c-72 0 -128 23.5 -168 70.5s-60 116.167 -60 207.5c0 59.333 9.16699 110.5 27.5 153.5s44.5 76 78.5 99s74 34.5 120 34.5c30.667 0 58.334 -5.33301 83.001 -16z" />
    <glyph glyph-name="d" unicode="d" horiz-adv-x="500" 
d="M456 742v-742.001h-135l-5 56c-15.333 -22.667 -32.666 -40.5 -51.999 -53.5s-42.666 -19.5 -69.999 -19.5c-54.667 0 -96.334 24.5 -125.001 73.5s-43 118.833 -43 209.5c0 56.667 7.66699 106.334 23 149.001s36.666 75.5 63.999 98.5s58.333 34.5 93 34.5
c40 0 73 -16.333 99 -49v259zM305 145.999l0.000976562 248c-8.66699 14.667 -17.334 25.5 -26.001 32.5s-18.667 10.5 -30 10.5c-45.333 0 -68 -57 -68 -171c0 -64.667 5.5 -109.5 16.5 -134.5s26.167 -37.5 45.5 -37.5c23.333 0 44 17.333 62 52z" />
    <glyph glyph-name="e" unicode="e" horiz-adv-x="470" 
d="M446 221l-269.997 -0.000976562c3.33301 -48 12.166 -81.167 26.499 -99.5s35.166 -27.5 62.499 -27.5c18 0 35.333 3.5 52 10.5s34.667 17.833 54 32.5l62 -82c-49.333 -48 -109 -72 -179 -72c-74.667 0 -131.334 24.5 -170.001 73.5s-58 117.5 -58 205.5
s18.5 157.667 55.5 209s89.833 77 158.5 77c65.333 0 116.5 -23.167 153.5 -69.5s55.5 -113.833 55.5 -202.5c0 -21.333 -1 -39.666 -3 -54.999zM302.003 318.999c0 45.333 -4.5 78.167 -13.5 98.5s-24.833 30.5 -47.5 30.5c-20 0 -35.167 -9.83301 -45.5 -29.5
s-16.833 -55.167 -19.5 -106.5h126v7z" />
    <glyph glyph-name="f" unicode="f" horiz-adv-x="306" 
d="M215 591l0.000976562 -60h97l-17 -106h-80v-425h-151v425h-60v106h60v54c0 52.667 15.333 94.667 46 126s74.667 47 132 47c45.333 0 87.666 -10.667 126.999 -32l-40 -96c-22.667 11.333 -44 17 -64 17c-33.333 0 -50 -18.667 -50 -56z" />
    <glyph glyph-name="g" unicode="g" horiz-adv-x="454" 
d="M460 501c-24.667 -13.333 -66.001 -20.001 -124.001 -20.001c29.333 -13.333 51 -31.166 65 -53.499s21 -50.5 21 -84.5c0 -52.667 -17.167 -95.334 -51.5 -128.001s-81.166 -49 -140.499 -49c-18.667 0 -34.667 2 -48 6c-10.667 -7.33301 -16 -18.666 -16 -33.999
c0 -11.333 3.5 -20 10.5 -26s19.833 -9 38.5 -9h54c57.333 0 102.166 -14 134.499 -42s48.5 -64 48.5 -108c0 -52.667 -20.5 -94.834 -61.5 -126.501s-99.5 -47.5 -175.5 -47.5c-82 0 -138.667 14.333 -170 43s-47 71 -47 127h134c0 -25.333 5.83301 -43.5 17.5 -54.5
s33.834 -16.5 66.501 -16.5c57.333 0 86 21.333 86 64c0 19.333 -5.5 33.833 -16.5 43.5s-27.833 14.5 -50.5 14.5h-40c-52.667 0 -91 9.16699 -115 27.5s-36 43.5 -36 75.5c0 19.333 5 37.5 15 54.5s23.667 31.5 41 43.5c-28.667 18 -49.5 39 -62.5 63s-19.5 54 -19.5 90
c0 60 18.333 107 55 141s86.667 51 150 51c42 0 77.5 5.33301 106.5 16s60.167 26.334 93.5 47.001zM180.499 426.499c-9.66699 -14.333 -14.5 -37.833 -14.5 -70.5c0 -62 19 -93 57 -93c18.667 0 32.667 7 42 21s14 38.667 14 74c0 32 -4.5 55 -13.5 69
s-22.833 21 -41.5 21c-19.333 0 -33.833 -7.16699 -43.5 -21.5z" />
    <glyph glyph-name="h" unicode="h" horiz-adv-x="480" 
d="M406.5 507c21.667 -27.333 32.501 -64 32.501 -110v-397h-151v381c0 34.667 -9.66699 52 -29 52s-40.333 -21.333 -63 -64v-369h-151v742l151 16v-283c16.667 25.333 34.667 43.833 54 55.5s41.666 17.5 66.999 17.5c38 0 67.833 -13.667 89.5 -41z" />
    <glyph glyph-name="i" unicode="i" horiz-adv-x="240" 
d="M196 531v-531h-151v531h151zM181.5 782.5c15.667 -16.333 23.5 -37.166 23.5 -62.499c0 -24.667 -8 -45.167 -24 -61.5s-36.667 -24.5 -62 -24.5s-46 8.16699 -62 24.5s-24 36.833 -24 61.5c0 25.333 8 46.166 24 62.499s36.667 24.5 62 24.5
c26 0 46.833 -8.16699 62.5 -24.5z" />
    <glyph glyph-name="j" unicode="j" horiz-adv-x="240" 
d="M196 38c0 -69.333 -16.498 -123 -49.498 -161s-80.167 -70.333 -141.5 -97l-51 109c21.333 12.667 38.166 24.667 50.499 36s22.166 25.833 29.499 43.5s11 40.167 11 67.5v495h151v-493zM181.502 782.5c15.667 -16.333 23.5 -37.166 23.5 -62.499
c0 -24.667 -8 -45.167 -24 -61.5s-36.667 -24.5 -62 -24.5s-46 8.16699 -62 24.5s-24 36.833 -24 61.5c0 25.333 8 46.166 24 62.499s36.667 24.5 62 24.5c26 0 46.833 -8.16699 62.5 -24.5z" />
    <glyph glyph-name="k" unicode="k" horiz-adv-x="474" 
d="M196 758v-758h-151v742zM473 531l-126 -234l134 -297h-159l-123 290l130 241h144z" />
    <glyph glyph-name="l" unicode="l" horiz-adv-x="254" 
d="M75 20c-23.333 24.667 -34.999 58.333 -34.999 101v621l151 16v-630c0 -16.667 7 -25 21 -25c4 0 10 1 18 3l27 -104c-10.667 -5.33301 -23.334 -9.83301 -38.001 -13.5s-30 -5.5 -46 -5.5c-42 0 -74.667 12.333 -98 37z" />
    <glyph glyph-name="m" unicode="m" horiz-adv-x="698" 
d="M625.5 507c21 -27.333 31.498 -64 31.498 -110v-397h-148v382c0 18 -2.33301 31.167 -7 39.5s-11.667 12.5 -21 12.5c-18.667 0 -37.667 -19.667 -57 -59v-375h-146v382c0 34.667 -9.33301 52 -28 52c-19.333 0 -38.666 -19.667 -57.999 -59v-375h-147v531h131l9 -64
c34 54 75.667 81 125 81c24 0 44.833 -7.33301 62.5 -22s31.167 -35.667 40.5 -63c34.667 56.667 77.334 85 128.001 85c35.333 0 63.5 -13.667 84.5 -41z" />
    <glyph glyph-name="n" unicode="n" horiz-adv-x="480" 
d="M406.5 507c21.667 -27.333 32.5 -64 32.5 -110v-397h-151v381c0 34.667 -9.66699 52 -29 52s-40.333 -21.333 -63 -64v-369h-151v531h131l11 -63c17.333 26.667 36.333 46.667 57 60s45 20 73 20c38 0 67.833 -13.667 89.5 -41z" />
    <glyph glyph-name="o" unicode="o" horiz-adv-x="494" 
d="M409.5 477c39 -47.333 58.5 -117.999 58.5 -211.999c0 -90 -19.5 -159.5 -58.5 -208.5s-93.167 -73.5 -162.5 -73.5s-123.5 23.833 -162.5 71.5s-58.5 118.167 -58.5 211.5c0 91.333 19.5 161.166 58.5 209.499s93.167 72.5 162.5 72.5s123.5 -23.667 162.5 -71z
M196.5 397.501c-10.333 -25.667 -15.5 -69.5 -15.5 -131.5c0 -64 5.16699 -108.667 15.5 -134s27.166 -38 50.499 -38s40.166 12.833 50.499 38.5s15.5 69.834 15.5 132.501c0 63.333 -5.16699 107.666 -15.5 132.999s-27.166 38 -50.499 38s-40.166 -12.833 -50.499 -38.5z
" />
    <glyph glyph-name="p" unicode="p" horiz-adv-x="499" 
d="M432 475.5c27.333 -48.333 40.998 -117.833 40.998 -208.5c0 -57.333 -7.16699 -107.5 -21.5 -150.5s-34.5 -76 -60.5 -99s-56.667 -34.5 -92 -34.5c-41.333 0 -75.666 17.667 -102.999 53v-241l-151 -16v752h134l6 -58c17.333 26 36.333 45 57 57s44.334 18 71.001 18
c52 0 91.667 -24.167 119 -72.5zM301.498 134c11 26 16.498 69.667 16.498 131c0 66 -4.66699 111.167 -14 135.5s-23.666 36.5 -42.999 36.5c-24 0 -45.667 -18.667 -65 -56v-245c16.667 -27.333 36.334 -41 59.001 -41c20 0 35.5 13 46.5 39z" />
    <glyph glyph-name="q" unicode="q" horiz-adv-x="500" 
d="M456 531l-0.000976562 -752.001l-151 16v251c-27.333 -42 -64.666 -63 -111.999 -63c-53.333 0 -94.5 24.5 -123.5 73.5s-43.5 118.833 -43.5 209.5c0 57.333 7.5 107.333 22.5 150s36.167 75.334 63.5 98.001s59 34 95 34c43.333 0 80.333 -20.667 111 -62l6 45h132z
M304.999 147.999v245.001c-9.33301 14.667 -18.5 25.667 -27.5 33s-18.833 11 -29.5 11c-20 0 -36.167 -13.333 -48.5 -40s-18.5 -70.334 -18.5 -131.001c0 -66 5.33301 -111.167 16 -135.5s25.667 -36.5 45 -36.5c24.667 0 45.667 18 63 54z" />
    <glyph glyph-name="r" unicode="r" horiz-adv-x="338" 
d="M344 538l-24.999 -145c-12 4 -24.333 6 -37 6c-24.667 0 -43.167 -9.5 -55.5 -28.5s-22.5 -47.5 -30.5 -85.5v-285h-151v531h131l11 -87c25.333 68 63.666 102 114.999 102c14 0 28 -2.66699 42 -8z" />
    <glyph glyph-name="s" unicode="s" horiz-adv-x="402" 
d="M299 531c28.667 -11.333 53.667 -27.333 75 -48l-55 -81c-36.667 25.333 -69.667 38 -99 38c-16 0 -28.5 -4 -37.5 -12s-13.5 -19 -13.5 -33c0 -15.333 5.66699 -27.833 17 -37.5s35.666 -22.167 72.999 -37.5c44.667 -18.667 77.667 -40.334 99 -65.001
s32 -57.667 32 -99c0 -53.333 -18.833 -95.5 -56.5 -126.5s-86.5 -46.5 -146.5 -46.5c-37.333 0 -72.333 6.83301 -105 20.5s-60.667 32.834 -84 57.501l71 78c40 -32.667 76.667 -49 110 -49c18 0 32.167 4.66699 42.5 14s15.5 22.333 15.5 39
c0 18.667 -5.83301 33.5 -17.5 44.5s-35.5 23.833 -71.5 38.5c-45.333 18.667 -78 40.167 -98 64.5s-30 55.5 -30 93.5c0 48 16.667 87.333 50 118s79 46 137 46c32.667 0 63.334 -5.66699 92.001 -17z" />
    <glyph glyph-name="t" unicode="t" horiz-adv-x="325" 
d="M336 25c-16.667 -14 -35.999 -24.499 -57.999 -31.499s-44.333 -10.5 -67 -10.5c-51.333 0 -90 14.667 -116 44s-39 68.666 -39 117.999v280h-55v106h55v116l151 17v-133h99l-16 -106h-83v-279c0 -28.667 12 -43 36 -43c13.333 0 27.666 4.66699 42.999 14z" />
    <glyph glyph-name="u" unicode="u" horiz-adv-x="476" 
d="M431 0h-132l-6 61c-32 -52 -74.333 -78 -127 -78c-38.667 0 -69.167 14 -91.5 42s-33.5 65 -33.5 111v395h151v-389c0 -15.333 2.66699 -27 8 -35s13 -12 23 -12c21.333 0 40.333 18.667 57 56v380h151v-531z" />
    <glyph glyph-name="v" unicode="v" horiz-adv-x="436" 
d="M441 531l-132 -531h-178l-136 531h154l71 -416l75 416h146z" />
    <glyph glyph-name="w" unicode="w" horiz-adv-x="639" 
d="M633 531l-88 -531h-176l-50 395l-49 -395h-175l-89 531h145l40 -417l59 417h143l56 -417l43 417h141z" />
    <glyph glyph-name="x" unicode="x" horiz-adv-x="435" 
d="M306 284l139 -284h-158l-73 202l-69 -202h-155l137 279l-125 252h156l58 -174l55 174h151z" />
    <glyph glyph-name="y" unicode="y" horiz-adv-x="442" 
d="M310 -1c-34.667 -136.667 -122 -210 -262 -220l-16 104c42 7.33301 73.833 19.5 95.5 36.5s38.5 43.833 50.5 80.5h-56l-127 531h152l70 -434l82 434h149z" />
    <glyph glyph-name="z" unicode="z" horiz-adv-x="385" 
d="M371 531v-107l-198 -309h202l-12 -115h-354v107l198 310h-181v114h345z" />
    <glyph glyph-name="braceleft" unicode="{" horiz-adv-x="267" 
d="M254 734c-22.667 0 -38.001 -4 -46.001 -12s-12 -23.333 -12 -46v-194c0 -42 -7.16699 -72.5 -21.5 -91.5s-38.166 -32.833 -71.499 -41.5c32.667 -7.33301 56.5 -20.5 71.5 -39.5s22.5 -49.5 22.5 -91.5v-194c0 -22.667 4 -38 12 -46s23 -12 45 -12v-105
c-52 0 -92 6 -120 18s-47.5 29.5 -58.5 52.5s-16.5 53.5 -16.5 91.5v192c0 26.667 -3.5 45.5 -10.5 56.5s-20.833 16.5 -41.5 16.5v124c20.667 0 34.5 5.5 41.5 16.5s10.5 29.833 10.5 56.5v192c0 38 5.33301 68.5 16 91.5s30.167 40.5 58.5 52.5s68.5 18 120.5 18v-105z
" />
    <glyph glyph-name="bar" unicode="|" horiz-adv-x="299" 
d="M220 810v-915h-141v915h141z" />
    <glyph glyph-name="braceright" unicode="}" horiz-adv-x="267" 
d="M133.5 821c28.333 -12 48 -29.501 59 -52.501s16.5 -53.5 16.5 -91.5v-192c0 -27.333 3.5 -46.333 10.5 -57s20.5 -16 40.5 -16v-124c-20 0 -33.5 -5.33301 -40.5 -16s-10.5 -29.667 -10.5 -57v-192c0 -38 -5.5 -68.5 -16.5 -91.5s-30.667 -40.5 -59 -52.5
s-68.5 -18 -120.5 -18v105c22.667 0 38 4 46 12s12 23.333 12 46v194c0 41.333 7.33301 71.333 22 90s38.667 32.334 72 41.001c-34 9.33301 -58.167 23.333 -72.5 42s-21.5 49 -21.5 91v194c0 22.667 -4 38 -12 46s-23 12 -45 12l-1 105c52 0 92.167 -6 120.5 -18z" />
    <glyph glyph-name="asciitilde" unicode="~" horiz-adv-x="441" 
d="M246.5 246.5c-13 5.66699 -28.1631 13.833 -45.4961 24.5c-12.667 8 -22.834 13.833 -30.501 17.5s-15.834 5.5 -24.501 5.5c-12 0 -22 -4 -30 -12s-17.667 -20.667 -29 -38l-74 40c16.667 36 35.834 64.833 57.501 86.5s48.5 32.5 80.5 32.5
c17.333 0 32.5 -2.83301 45.5 -8.5s27.5 -13.834 43.5 -24.501c11.333 -8 21 -13.833 29 -17.5s16.333 -5.5 25 -5.5c11.333 0 21.166 3.83301 29.499 11.5s17.833 19.5 28.5 35.5l76 -39c-16.667 -35.333 -35.834 -63.666 -57.501 -84.999s-47.834 -32 -78.501 -32
c-17.333 0 -32.5 2.83301 -45.5 8.5z" />
    <glyph glyph-name="uni00A0" unicode="&#xa0;" horiz-adv-x="185" 
 />
    <glyph glyph-name="exclamdown" unicode="&#xa1;" horiz-adv-x="221" 
d="M172 481.5c16 -17 24 -37.5 24 -61.5s-8 -44.5 -24 -61.5s-36.333 -25.5 -61 -25.5c-25.333 0 -46 8.5 -62 25.5s-24 37.5 -24 61.5s8 44.5 24 61.5s36.667 25.5 62 25.5c24.667 0 45 -8.5 61 -25.5zM169 238l21 -448h-158l20 448h117z" />
    <glyph glyph-name="cent" unicode="&#xa2;" horiz-adv-x="401" 
d="M404 45c-34 -32.667 -72.332 -52.332 -114.999 -58.999v-147h-105v153c-50.667 14 -89.667 43.667 -117 89s-41 105.333 -41 180c0 74 14 135 42 183s67 79.667 117 95v152h104v-146c43.333 -6.66699 81.666 -27.334 114.999 -62.001l-62 -83
c-27.333 22 -53.333 33 -78 33c-27.333 0 -47.666 -12.5 -60.999 -37.5s-20 -69.5 -20 -133.5c0 -60.667 7 -102.667 21 -126s33.667 -35 59 -35c13.333 0 25.666 2.33301 36.999 7s24.333 12.667 39 24z" />
    <glyph glyph-name="sterling" unicode="&#xa3;" horiz-adv-x="452" 
d="M222.5 165c-8.33301 -18 -25.168 -34.6689 -50.501 -50.002h257l-17 -115h-393v110c20.667 7.33301 35.834 15.833 45.501 25.5s15.834 21.334 18.501 35.001s4 33.167 4 58.5v83h-56v80h56v102c0 57.333 16 104.333 48 141s77.333 55 136 55
c75.333 0 133.333 -32.667 174 -98l-88 -64c-12 17.333 -23.167 29.833 -33.5 37.5s-21.833 11.5 -34.5 11.5c-18.667 0 -32.334 -6.66699 -41.001 -20s-13 -33.666 -13 -60.999v-104h144v-80h-144v-73c0 -31.333 -4.16699 -56 -12.5 -74z" />
    <glyph glyph-name="currency" unicode="&#xa4;" 
d="M386 79l-60.001 75c-29.333 -18.667 -61.666 -28 -96.999 -28s-67.666 9.33301 -96.999 28l-62 -75l-67 59l71 84c-18 34.667 -27 74.667 -27 120c0 46 8.66699 85.667 26 119l-71 86l72 58l60 -76c28 18.667 59.667 28 95 28c37.333 0 69.666 -9.66699 96.999 -29l63 77
l67 -59l-70 -84c18 -34.667 27 -74.667 27 -120c0 -46 -8.66699 -85.667 -26 -119l71 -87zM282.999 252c11.333 18 17 47.998 17 89.998s-5.66699 72 -17 90s-29 27 -53 27c-24.667 0 -42.834 -9.16699 -54.501 -27.5s-17.5 -48.166 -17.5 -89.499
s5.83301 -71.166 17.5 -89.499s29.834 -27.5 54.501 -27.5c24 0 41.667 9 53 27z" />
    <glyph glyph-name="yen" unicode="&#xa5;" horiz-adv-x="476" 
d="M486 676l-145 -325h80v-80h-108v-73h108v-80h-108v-118h-149v118h-106v80h106v73h-106v80h78l-146 325h150l100 -284l98 284h148z" />
    <glyph glyph-name="brokenbar" unicode="&#xa6;" horiz-adv-x="299" 
d="M220 810v-367h-141v367h141zM220 262v-367h-141v367h141z" />
    <glyph glyph-name="section" unicode="&#xa7;" horiz-adv-x="457" 
d="M388.5 137c7.66699 -16 11.5059 -34.9951 11.5059 -56.9951c0 -48.667 -17.333 -87.834 -52 -117.501s-80.334 -44.5 -137.001 -44.5c-64.667 0 -120.334 18 -167.001 54l51 85c18 -12 35.5 -20.667 52.5 -26s35.167 -8 54.5 -8c18.667 0 33 4 43 12s15 20 15 36
c0 12 -2.33301 21.667 -7 29s-13.834 14.833 -27.501 22.5s-34.834 17.167 -63.501 28.5c-43.333 17.333 -74.833 36.5 -94.5 57.5s-29.5 50.5 -29.5 88.5c0 26.667 6.16699 50.5 18.5 71.5s29.166 38.5 50.499 52.5c-16.667 14 -28.834 29.833 -36.501 47.5
s-11.5 38.167 -11.5 61.5c0 30 7.5 57.167 22.5 81.5s36.5 43.333 64.5 57s60.667 20.5 98 20.5c62 0 117 -18.667 165 -56l-50 -83c-33.333 22.667 -67.333 34 -102 34c-19.333 0 -34 -4.33301 -44 -13s-15 -20.667 -15 -36c0 -12 2.33301 -21.833 7 -29.5
s13.667 -15.334 27 -23.001s34.333 -17.167 63 -28.5c40.667 -16.667 71.5 -35.834 92.5 -57.501s31.5 -50.834 31.5 -87.501c0 -52.667 -23 -95.334 -69 -128.001c18 -13.333 30.833 -28 38.5 -44zM275.006 225.005c12 18.667 17.999 37.999 17.999 57.999
c0 19.333 -5.66699 34.666 -17 45.999s-32.666 23.333 -63.999 36l-34 14c-9.33301 -17.333 -14 -35.666 -14 -54.999s4.5 -34.666 13.5 -45.999s26.167 -22.333 51.5 -33z" />
    <glyph glyph-name="dieresis" unicode="&#xa8;" horiz-adv-x="405" 
d="M163 773c14 -14.667 21 -32.667 21 -54c0 -22 -6.83301 -40.167 -20.5 -54.5s-31.5 -21.5 -53.5 -21.5c-21.333 0 -39.166 7.33301 -53.499 22s-21.5 32.667 -21.5 54s7.16699 39.333 21.5 54s32.166 22 53.499 22s39 -7.33301 53 -22zM359 773
c14 -14.667 21 -32.667 21 -54c0 -22 -6.83301 -40.167 -20.5 -54.5s-31.5 -21.5 -53.5 -21.5c-20.667 0 -38.167 7.33301 -52.5 22s-21.5 32.667 -21.5 54s7.16699 39.333 21.5 54s31.833 22 52.5 22c21.333 0 39 -7.33301 53 -22z" />
    <glyph glyph-name="copyright" unicode="&#xa9;" horiz-adv-x="664" 
d="M477.5 723c43 -27.333 77 -66.166 102 -116.499s37.5 -108.5 37.5 -174.5c0 -65.333 -12.5 -123 -37.5 -173s-59 -88.667 -102 -116s-91.167 -41 -144.5 -41s-101.666 13.667 -144.999 41s-77.666 66 -102.999 116s-38 107.667 -38 173c0 66 12.667 124.167 38 174.5
s59.666 89.166 102.999 116.499s91.666 41 144.999 41s101.5 -13.667 144.5 -41zM229.5 656.5c-30.333 -20.333 -54 -49.666 -71 -87.999s-25.5 -83.833 -25.5 -136.5s8.5 -98.167 25.5 -136.5s40.667 -67.5 71 -87.5s64.833 -30 103.5 -30c38 0 72.167 10 102.5 30
s54 49.167 71 87.5s25.5 83.833 25.5 136.5s-8.5 98.167 -25.5 136.5s-40.667 67.666 -71 87.999s-64.5 30.5 -102.5 30.5c-38.667 0 -73.167 -10.167 -103.5 -30.5zM446 580l-41.999 -57c-11.333 8.66699 -21.333 14.667 -30 18s-18 5 -28 5
c-16.667 0 -30.167 -9 -40.5 -27s-15.5 -46.667 -15.5 -86c0 -74 19.667 -111 59 -111c11.333 0 21.166 2 29.499 6s17.833 10.667 28.5 20l42 -59c-33.333 -34.667 -71.333 -52 -114 -52c-46 0 -82.167 17 -108.5 51s-39.5 82.333 -39.5 145
c0 61.333 13.667 109.333 41 144s64 52 110 52c41.333 0 77.333 -16.333 108 -49z" />
    <glyph glyph-name="ordfeminine" unicode="&#xaa;" horiz-adv-x="418" 
d="M226 528l-0.000976562 16.001c0 20 -3.33301 33.667 -10 41s-19 11 -37 11c-22.667 0 -53 -6.66699 -91 -20l-30 87c20.667 10 43.834 17.5 69.501 22.5s50.5 7.5 74.5 7.5c102.667 0 154 -45 154 -135v-165c0 -10 1.5 -18 4.5 -24s8.16699 -10.333 15.5 -13l-27 -88
c-46 3.33301 -78.333 20.333 -97 51c-23.333 -36 -56.333 -54 -99 -54c-36 0 -65 11.667 -87 35s-33 53.666 -33 90.999c0 44.667 14.5 78.667 43.5 102s70.833 35 125.5 35h24zM225.999 383.001l-0.000976562 74h-14c-19.333 0 -32.666 -4.16699 -39.999 -12.5
s-11 -21.833 -11 -40.5c0 -15.333 2.16699 -26.833 6.5 -34.5s11.833 -11.5 22.5 -11.5c14.667 0 26.667 8.33301 36 25zM35.998 116.001h350v-114h-350v114z" />
    <glyph glyph-name="guillemotleft" unicode="&#xab;" horiz-adv-x="557" 
d="M191 553l94 -60l-109 -208l109 -208l-94 -61l-160 220v96zM432 553l94 -60l-109 -208l109 -208l-94 -61l-160 220v96z" />
    <glyph glyph-name="logicalnot" unicode="&#xac;" horiz-adv-x="446" 
d="M411 385v-268h-123v154h-253v114h376z" />
    <glyph glyph-name="uni00AD" unicode="&#xad;" horiz-adv-x="348" 
d="M38 254v118h273v-118h-273z" />
    <glyph glyph-name="registered" unicode="&#xae;" horiz-adv-x="521" 
d="M380.5 724c35 -22.667 62.5 -54.667 82.5 -96s30 -89 30 -143c0 -53.333 -10 -100.5 -30 -141.5s-47.5 -72.667 -82.5 -95s-74.5 -33.5 -118.5 -33.5c-44.667 0 -84.667 11.167 -120 33.5s-63 54 -83 95s-30 88.167 -30 141.5c0 54 10 101.667 30 143
s47.667 73.333 83 96s75.333 34 120 34c44 0 83.5 -11.333 118.5 -34zM378 333c29.333 36 44 86.667 44 152c0 66 -14.667 117.333 -44 154s-68 55 -116 55s-87.167 -18.5 -117.5 -55.5s-45.5 -88.167 -45.5 -153.5c0 -64.667 15 -115.167 45 -151.5s69.333 -54.5 118 -54.5
c48 0 86.667 18 116 54zM371 353l-72.001 -0.000976562l-45 103h-19v-103h-63v281h71c36.667 0 64.667 -7.5 84 -22.5s29 -37.167 29 -66.5c0 -16.667 -4.16699 -31.167 -12.5 -43.5s-19.166 -22.166 -32.499 -29.499zM234.999 511.999h24c10 0 17.833 3 23.5 9
s8.5 15 8.5 27c0 22.667 -11 34 -33 34h-23v-70z" />
    <glyph glyph-name="macron" unicode="&#xaf;" horiz-adv-x="320" 
d="M295 658h-260v102h260v-102z" />
    <glyph glyph-name="degree" unicode="&#xb0;" horiz-adv-x="426" 
d="M104 390.5c-22.667 13 -41 32.333 -55 58s-21 56.5 -21 92.5s7 66.833 21 92.5s32.333 44.834 55 57.501s47.334 19 74.001 19s51.5 -6.33301 74.5 -19s41.5 -31.834 55.5 -57.501s21 -56.5 21 -92.5s-7 -66.833 -21 -92.5s-32.5 -45 -55.5 -58
s-47.833 -19.5 -74.5 -19.5s-51.334 6.5 -74.001 19.5zM216.5 479c8.33301 12.667 12.5 33.332 12.5 61.999s-4.16699 49.334 -12.5 62.001s-21.166 19 -38.499 19c-34.667 0 -52 -27 -52 -81s17.333 -81 52 -81c17.333 0 30.166 6.33301 38.499 19z" />
    <glyph glyph-name="plusminus" unicode="&#xb1;" horiz-adv-x="446" 
d="M42 0v114h361v-114h-361zM284 614v-152h127v-117h-127v-152h-122v152h-127v117h127v152h122z" />
    <glyph glyph-name="uni00B2" unicode="&#xb2;" horiz-adv-x="336" 
d="M261.5 715c24.333 -24 36.5 -53.667 36.5 -89c0 -21.333 -3.66699 -41.333 -11 -60s-21.166 -40.5 -41.499 -65.5s-50.5 -56.5 -90.5 -94.5h150l-11 -85h-253v79c42 47.333 72.667 83.166 92 107.499s33 44.833 41 61.5s12 33.667 12 51c0 14.667 -3.33301 26 -10 34
s-16 12 -28 12c-11.333 0 -21.833 -3.16699 -31.5 -9.5s-20.167 -16.166 -31.5 -29.499l-60 48c34.667 50.667 80.667 76 138 76c41.333 0 74.166 -12 98.499 -36z" />
    <glyph glyph-name="uni00B3" unicode="&#xb3;" horiz-adv-x="336" 
d="M259.5 720c23 -21.333 34.499 -48.002 34.499 -80.002c0 -24.667 -6.66699 -45.167 -20 -61.5s-35.333 -28.166 -66 -35.499c31.333 -2 55.833 -11.5 73.5 -28.5s26.5 -41.5 26.5 -73.5c0 -37.333 -13 -68.666 -39 -93.999s-63 -38 -111 -38
c-58.667 0 -104.667 22.333 -138 67l57 53c12.667 -12 24.5 -20.833 35.5 -26.5s22.833 -8.5 35.5 -8.5c14.667 0 26.334 4.83301 35.001 14.5s13 23.5 13 41.5c0 18.667 -4.83301 32.167 -14.5 40.5s-24.5 12.5 -44.5 12.5h-26l13 75h16c33.333 0 50 15.667 50 47
c0 30.667 -14.333 46 -43 46c-22 0 -45 -11 -69 -33l-51 54c36.667 40 82 60 136 60c41.333 0 73.5 -10.667 96.5 -32z" />
    <glyph glyph-name="acute" unicode="&#xb4;" horiz-adv-x="302" 
d="M218 825l59 -107l-201 -94l-41 73z" />
    <glyph glyph-name="uni00B5" unicode="&#xb5;" horiz-adv-x="482" 
d="M315 -16c-9.33301 26 -15.666 53.334 -18.999 82.001c-10.667 -23.333 -23.167 -41.5 -37.5 -54.5s-29.833 -19.5 -46.5 -19.5c-12.667 0 -24.334 3.16699 -35.001 9.5s-21 17.5 -31 33.5c14 -25.333 24.167 -48.5 30.5 -69.5s9.5 -48.5 9.5 -82.5v-88l-141 -14v750h151
v-378c0 -18.667 2.66699 -31.834 8 -39.501s13 -11.5 23 -11.5c21.333 0 40 20 56 60v369h151v-349c0 -68 6.33301 -128.667 19 -182z" />
    <glyph glyph-name="paragraph" unicode="&#xb6;" horiz-adv-x="664" 
d="M578 693l0.000976562 -897.999l-131 -17v810h-70v-793l-130 -17v487c-64.667 2 -114.334 22.5 -149.001 61.5s-52 90.167 -52 153.5c0 67.333 19.5 119.666 58.5 156.999s95.5 56 169.5 56h304z" />
    <glyph glyph-name="periodcentered" unicode="&#xb7;" horiz-adv-x="220" 
d="M171 369c16 -17.333 24 -38 24 -62s-8 -44.5 -24 -61.5s-36.333 -25.5 -61 -25.5c-25.333 0 -45.833 8.5 -61.5 25.5s-23.5 37.5 -23.5 61.5s7.83301 44.667 23.5 62s36.167 26 61.5 26c24.667 0 45 -8.66699 61 -26z" />
    <glyph glyph-name="cedilla" unicode="&#xb8;" horiz-adv-x="288" 
d="M176 -53c58 -9.33301 87.001 -41.001 87.001 -95.001c0 -33.333 -11.333 -60.166 -34 -80.499s-54.334 -30.5 -95.001 -30.5c-38.667 0 -71.667 9.66699 -99 29l34 66c17.333 -8.66699 35.333 -13 54 -13c23.333 0 35 10.333 35 31c0 12.667 -6 21.667 -18 27
s-31.333 8 -58 8l13 127h81v-69z" />
    <glyph glyph-name="uni00B9" unicode="&#xb9;" horiz-adv-x="336" 
d="M254 742v-421h-108v315l-74 -52l-48 69l131 89h99z" />
    <glyph glyph-name="ordmasculine" unicode="&#xba;" horiz-adv-x="421" 
d="M344 639.5c32 -35.667 48 -89.168 48 -160.501c0 -68.667 -16 -121.5 -48 -158.5s-76.333 -55.5 -133 -55.5c-57.333 0 -102 18 -134 54s-48 89.667 -48 161c0 68.667 16 121.334 48 158.001s76.333 55 133 55c57.333 0 102 -17.833 134 -53.5zM174 571.999
c-7.33301 -16 -11.001 -46.666 -11.001 -91.999c0 -46.667 3.5 -78 10.5 -94s19.167 -24 36.5 -24c16.667 0 28.834 8.16699 36.501 24.5s11.5 47.166 11.5 92.499c0 32 -1.66699 56.5 -5 73.5s-8.33301 28.5 -15 34.5s-16 9 -28 9c-16.667 0 -28.667 -8 -36 -24zM29.999 0
v114h361v-114h-361z" />
    <glyph glyph-name="guillemotright" unicode="&#xbb;" horiz-adv-x="557" 
d="M125 553l160 -221v-96l-160 -220l-94 61l110 208l-110 208zM366 553l160 -221v-96l-160 -220l-94 61l110 208l-110 208z" />
    <glyph glyph-name="onequarter" unicode="&#xbc;" horiz-adv-x="822" 
d="M254 693v-421h-108v315l-74 -52l-48 69l131 89h99zM535 758l88 -38l-336 -804l-88 37zM803 167v-82h-37v-85h-99l-1 85h-161v76l96 270l92 -35l-81 -229h56l22 98h76v-98h37z" />
    <glyph glyph-name="onehalf" unicode="&#xbd;" horiz-adv-x="822" 
d="M254 693v-421h-108v315l-74 -52l-48 69l131 89h99zM535 758l88 -38l-336 -804l-88 37zM747.5 394c24.333 -24 36.5 -53.667 36.5 -89c0 -21.333 -3.66699 -41.333 -11 -60s-21.166 -40.5 -41.499 -65.5s-50.5 -56.5 -90.5 -94.5h150l-11 -85h-253v79
c42 47.333 72.667 83.166 92 107.499s33 44.833 41 61.5s12 33.667 12 51c0 14.667 -3.33301 26 -10 34s-16 12 -28 12c-11.333 0 -21.833 -3.16699 -31.5 -9.5s-20.167 -16.166 -31.5 -29.499l-60 48c34.667 50.667 80.667 76 138 76c41.333 0 74.166 -12 98.499 -36z" />
    <glyph glyph-name="threequarters" unicode="&#xbe;" horiz-adv-x="822" 
d="M259.5 671c23 -21.333 34.499 -48.002 34.499 -80.002c0 -24.667 -6.66699 -45.167 -20 -61.5s-35.333 -28.166 -66 -35.499c31.333 -2 55.833 -11.5 73.5 -28.5s26.5 -41.5 26.5 -73.5c0 -37.333 -13 -68.666 -39 -93.999s-63 -38 -111 -38
c-58.667 0 -104.667 22.333 -138 67l57 53c12.667 -12 24.5 -20.833 35.5 -26.5s22.833 -8.5 35.5 -8.5c14.667 0 26.334 4.83301 35.001 14.5s13 23.5 13 41.5c0 18.667 -4.83301 32.167 -14.5 40.5s-24.5 12.5 -44.5 12.5h-26l13 75h16c33.333 0 50 15.667 50 47
c0 30.667 -14.333 46 -43 46c-22 0 -45 -11 -69 -33l-51 54c36.667 40 82 60 136 60c41.333 0 73.5 -10.667 96.5 -32zM534.999 757.998l88 -38l-336 -804l-88 37zM802.999 166.998v-82h-37v-85h-99l-1 85h-161v76l96 270l92 -35l-81 -229h56l22 98h76v-98h37z" />
    <glyph glyph-name="questiondown" unicode="&#xbf;" horiz-adv-x="412" 
d="M164 358c-16 17.333 -24 38 -24 62s8 44.5 24 61.5s36.667 25.5 62 25.5c24.667 0 45 -8.5 61 -25.5s24 -37.5 24 -61.5s-8 -44.667 -24 -62s-36.333 -26 -61 -26c-25.333 0 -46 8.66699 -62 26zM97.5 -200c-28.333 15.333 -49.667 35.833 -64 61.5
s-21.5 53.167 -21.5 82.5c0 26 3.66699 48.167 11 66.5s16.166 33.333 26.499 45s24.5 25.5 42.5 41.5c22.667 19.333 39.5 37 50.5 53s16.5 36.667 16.5 62v24h135v-30c0 -30 -3.66699 -55.167 -11 -75.5s-16 -36.5 -26 -48.5s-23 -25 -39 -39
c-17.333 -15.333 -30.333 -29.333 -39 -42s-13 -29 -13 -49c0 -18 4.66699 -31.833 14 -41.5s22 -14.5 38 -14.5s31.333 4.5 46 13.5s30.334 23.167 47.001 42.5l89 -69c-50 -70.667 -116.667 -106 -200 -106c-40 0 -74.167 7.66699 -102.5 23z" />
    <glyph glyph-name="Agrave" unicode="&#xc0;" horiz-adv-x="506" 
d="M356 0l-28 152h-154l-27 -152h-156l168 693h188l168 -693h-159zM195 265h113l-57 313zM188 944l184 -119l-38 -74l-203 84z" />
    <glyph glyph-name="Aacute" unicode="&#xc1;" horiz-adv-x="506" 
d="M356 0l-28 152h-154l-27 -152h-156l168 693h188l168 -693h-159zM195 265h113l-57 313zM316 945l57 -109l-203 -85l-38 74z" />
    <glyph glyph-name="Acircumflex" unicode="&#xc2;" horiz-adv-x="506" 
d="M356 0l-28 152h-154l-27 -152h-156l168 693h188l168 -693h-159zM195 265h113l-57 313zM142 760l-52 54l118 131h90l118 -131l-52 -54l-111 83z" />
    <glyph glyph-name="Atilde" unicode="&#xc3;" horiz-adv-x="506" 
d="M356 0l-28 152h-154l-27 -152h-156l168 693h188l168 -693h-159zM195 265h113l-57 313zM271.5 774.5c-9 4.33301 -19.168 10.168 -30.501 17.501c-14 10.667 -25.667 16 -35 16c-8.66699 0 -16 -3.16699 -22 -9.5s-13 -16.833 -21 -31.5l-70 33
c10.667 33.333 25.667 60.166 45 80.499s41.333 30.5 66 30.5c12 0 22.333 -2 31 -6s19.334 -10 32.001 -18c7.33301 -6 13.666 -10.333 18.999 -13s11 -4 17 -4c8.66699 0 15.834 3.16699 21.501 9.5s12.167 16.5 19.5 30.5l71 -32c-10.667 -34 -25.667 -60.833 -45 -80.5
s-41.333 -29.5 -66 -29.5c-12.667 0 -23.5 2.16699 -32.5 6.5z" />
    <glyph glyph-name="Adieresis" unicode="&#xc4;" horiz-adv-x="506" 
d="M356 0l-28 152h-154l-27 -152h-156l168 693h188l168 -693h-159zM195 265h113l-57 313zM213 899c14 -14.667 21 -32.667 21 -54c0 -22 -6.83301 -40.167 -20.5 -54.5s-31.5 -21.5 -53.5 -21.5c-21.333 0 -39.166 7.33301 -53.499 22s-21.5 32.667 -21.5 54
s7.16699 39.333 21.5 54s32.166 22 53.499 22s39 -7.33301 53 -22zM409 899c14 -14.667 21 -32.667 21 -54c0 -22 -6.83301 -40.167 -20.5 -54.5s-31.5 -21.5 -53.5 -21.5c-20.667 0 -38.167 7.33301 -52.5 22s-21.5 32.667 -21.5 54s7.16699 39.333 21.5 54
s31.833 22 52.5 22c21.333 0 39 -7.33301 53 -22z" />
    <glyph glyph-name="Aring" unicode="&#xc5;" horiz-adv-x="506" 
d="M356 0l-28 152h-154l-27 -152h-156l168 693h188l168 -693h-159zM195 265h113l-57 313zM343 954.5c22 -23.667 33 -54.5 33 -92.5c0 -38.667 -11 -70 -33 -94s-51.667 -36 -89 -36c-38 0 -67.833 12 -89.5 36s-32.5 55.333 -32.5 94c0 38 10.833 68.833 32.5 92.5
s51.5 35.5 89.5 35.5c37.333 0 67 -11.833 89 -35.5zM219 862c0 -19.333 3 -33.167 9 -41.5s14.667 -12.5 26 -12.5c24 0 36 18 36 54c0 35.333 -12 53 -36 53c-23.333 0 -35 -17.667 -35 -53z" />
    <glyph glyph-name="AE" unicode="&#xc6;" horiz-adv-x="703" 
d="M494 114h191v-114h-323l-18 152h-159l-39 -152h-166l222 693h453l-16 -112h-209l24 -175h194v-111h-179zM214 266h117l-37 312z" />
    <glyph glyph-name="Ccedilla" unicode="&#xc7;" horiz-adv-x="484" 
d="M413 15c-26.667 -15.333 -56 -25.3369 -88 -30.0039v-38c58 -9.33301 87 -41 87 -95c0 -33.333 -11.333 -60.166 -34 -80.499s-54.334 -30.5 -95.001 -30.5c-38.667 0 -71.667 9.66699 -99 29l34 66c17.333 -8.66699 35.333 -13 54 -13c23.333 0 35 10.333 35 31
c0 12.667 -6 21.667 -18 27s-31.333 8 -58 8l10 98c-66 12.667 -118 49.334 -156 110.001s-57 144.334 -57 251.001c0 79.333 11.167 146 33.5 200s53.5 94.5 93.5 121.5s86 40.5 138 40.5c36.667 0 69.834 -6.33301 99.501 -19s57.5 -31.667 83.5 -57l-73 -86
c-16.667 14.667 -32.834 25.834 -48.501 33.501s-32.5 11.5 -50.5 11.5c-36.667 0 -64.667 -18.833 -84 -56.5s-29 -100.5 -29 -188.5c0 -86 9.83301 -148 29.5 -186s47.834 -57 84.501 -57c20 0 37.333 4 52 12s32.667 20.667 54 38l71 -84
c-19.333 -22 -42.333 -40.667 -69 -56z" />
    <glyph glyph-name="Egrave" unicode="&#xc8;" horiz-adv-x="432" 
d="M412 693l-16 -112h-193v-174h170v-110h-170v-183h206v-114h-363v693h366zM165 944l184 -119l-38 -74l-203 84z" />
    <glyph glyph-name="Eacute" unicode="&#xc9;" horiz-adv-x="432" 
d="M412 693l-16 -112h-193v-174h170v-110h-170v-183h206v-114h-363v693h366zM293 945l57 -109l-203 -85l-38 74z" />
    <glyph glyph-name="Ecircumflex" unicode="&#xca;" horiz-adv-x="432" 
d="M412 693l-16 -112h-193v-174h170v-110h-170v-183h206v-114h-363v693h366zM119 760l-52 54l118 131h90l118 -131l-52 -54l-111 83z" />
    <glyph glyph-name="Edieresis" unicode="&#xcb;" horiz-adv-x="432" 
d="M412 693l-16 -112h-193v-174h170v-110h-170v-183h206v-114h-363v693h366zM190 899c14 -14.667 21 -32.667 21 -54c0 -22 -6.83301 -40.167 -20.5 -54.5s-31.5 -21.5 -53.5 -21.5c-21.333 0 -39.166 7.33301 -53.499 22s-21.5 32.667 -21.5 54s7.16699 39.333 21.5 54
s32.166 22 53.499 22s39 -7.33301 53 -22zM386 899c14 -14.667 21 -32.667 21 -54c0 -22 -6.83301 -40.167 -20.5 -54.5s-31.5 -21.5 -53.5 -21.5c-20.667 0 -38.167 7.33301 -52.5 22s-21.5 32.667 -21.5 54s7.16699 39.333 21.5 54s31.833 22 52.5 22
c21.333 0 39 -7.33301 53 -22z" />
    <glyph glyph-name="Igrave" unicode="&#xcc;" horiz-adv-x="250" 
d="M203 693v-693h-157v693h157zM60 944l184 -119l-38 -74l-203 84z" />
    <glyph glyph-name="Iacute" unicode="&#xcd;" horiz-adv-x="250" 
d="M203 693v-693h-157v693h157zM188 945l57 -109l-203 -85l-38 74z" />
    <glyph glyph-name="Icircumflex" unicode="&#xce;" horiz-adv-x="250" 
d="M203 693v-693h-157v693h157zM14 760l-52 54l118 131h90l118 -131l-52 -54l-111 83z" />
    <glyph glyph-name="Idieresis" unicode="&#xcf;" horiz-adv-x="250" 
d="M203 693v-693h-157v693h157zM85 899c14 -14.667 21 -32.667 21 -54c0 -22 -6.83301 -40.167 -20.5 -54.5s-31.5 -21.5 -53.5 -21.5c-21.333 0 -39.166 7.33301 -53.499 22s-21.5 32.667 -21.5 54s7.16699 39.333 21.5 54s32.166 22 53.499 22s39 -7.33301 53 -22z
M281 899c14 -14.667 21 -32.667 21 -54c0 -22 -6.83301 -40.167 -20.5 -54.5s-31.5 -21.5 -53.5 -21.5c-20.667 0 -38.167 7.33301 -52.5 22s-21.5 32.667 -21.5 54s7.16699 39.333 21.5 54s31.833 22 52.5 22c21.333 0 39 -7.33301 53 -22z" />
    <glyph glyph-name="Eth" unicode="&#xd0;" horiz-adv-x="566" 
d="M392.5 666.5c43 -17.667 78 -51.667 105 -102s40.5 -121.833 40.5 -214.5c0 -130 -26.167 -220.833 -78.5 -272.5s-122.5 -77.5 -210.5 -77.5h-186v305h-49v96h49v292h175c60 0 111.5 -8.83301 154.5 -26.5zM323.5 134.5c17 13.667 30.167 37.6689 39.5 72.002
s14 82.166 14 143.499c0 62 -4.83301 109.667 -14.5 143s-23 56.166 -40 68.499s-38.5 18.5 -64.5 18.5h-38v-179h85v-96h-85v-191h38c26.667 0 48.5 6.83301 65.5 20.5z" />
    <glyph glyph-name="Ntilde" unicode="&#xd1;" horiz-adv-x="547" 
d="M501 0h-194l-146 549c6.66699 -58 11.667 -106.5 15 -145.5s5 -86.167 5 -141.5v-262h-135v693h194l146 -549c-14 92 -21 178.333 -21 259v290h136v-693zM293.5 774.5c-9 4.33301 -19.168 10.168 -30.501 17.501c-14 10.667 -25.667 16 -35 16
c-8.66699 0 -16 -3.16699 -22 -9.5s-13 -16.833 -21 -31.5l-70 33c10.667 33.333 25.667 60.166 45 80.499s41.333 30.5 66 30.5c12 0 22.333 -2 31 -6s19.334 -10 32.001 -18c7.33301 -6 13.666 -10.333 18.999 -13s11 -4 17 -4c8.66699 0 15.834 3.16699 21.501 9.5
s12.167 16.5 19.5 30.5l71 -32c-10.667 -34 -25.667 -60.833 -45 -80.5s-41.333 -29.5 -66 -29.5c-12.667 0 -23.5 2.16699 -32.5 6.5z" />
    <glyph glyph-name="Ograve" unicode="&#xd2;" horiz-adv-x="581" 
d="M485.5 619.5c45 -60.333 67.5 -151.167 67.5 -272.5c0 -120 -22.667 -210.667 -68 -272s-110.333 -92 -195 -92s-149.5 30.167 -194.5 90.5s-67.5 151.5 -67.5 273.5c0 120 22.5 210.5 67.5 271.5s109.833 91.5 194.5 91.5c85.333 0 150.5 -30.167 195.5 -90.5z
M214.5 538.499c-15.667 -37.667 -23.498 -101.499 -23.498 -191.499c0 -62.667 3.5 -112 10.5 -148s17.667 -61.833 32 -77.5s33.166 -23.5 56.499 -23.5c24 0 43.167 7.66699 57.5 23s25 41.166 32 77.499s10.5 85.833 10.5 148.5c0 90.667 -7.83301 154.667 -23.5 192
s-41.167 56 -76.5 56c-34.667 0 -59.834 -18.833 -75.501 -56.5zM225.002 944l184 -119l-38 -74l-203 84z" />
    <glyph glyph-name="Oacute" unicode="&#xd3;" horiz-adv-x="581" 
d="M485.5 619.5c45 -60.333 67.5 -151.167 67.5 -272.5c0 -120 -22.667 -210.667 -68 -272s-110.333 -92 -195 -92s-149.5 30.167 -194.5 90.5s-67.5 151.5 -67.5 273.5c0 120 22.5 210.5 67.5 271.5s109.833 91.5 194.5 91.5c85.333 0 150.5 -30.167 195.5 -90.5z
M214.5 538.499c-15.667 -37.667 -23.498 -101.499 -23.498 -191.499c0 -62.667 3.5 -112 10.5 -148s17.667 -61.833 32 -77.5s33.166 -23.5 56.499 -23.5c24 0 43.167 7.66699 57.5 23s25 41.166 32 77.499s10.5 85.833 10.5 148.5c0 90.667 -7.83301 154.667 -23.5 192
s-41.167 56 -76.5 56c-34.667 0 -59.834 -18.833 -75.501 -56.5zM353.002 945l57 -109l-203 -85l-38 74z" />
    <glyph glyph-name="Ocircumflex" unicode="&#xd4;" horiz-adv-x="581" 
d="M485.5 619.5c45 -60.333 67.5 -151.167 67.5 -272.5c0 -120 -22.667 -210.667 -68 -272s-110.333 -92 -195 -92s-149.5 30.167 -194.5 90.5s-67.5 151.5 -67.5 273.5c0 120 22.5 210.5 67.5 271.5s109.833 91.5 194.5 91.5c85.333 0 150.5 -30.167 195.5 -90.5z
M214.5 538.499c-15.667 -37.667 -23.498 -101.499 -23.498 -191.499c0 -62.667 3.5 -112 10.5 -148s17.667 -61.833 32 -77.5s33.166 -23.5 56.499 -23.5c24 0 43.167 7.66699 57.5 23s25 41.166 32 77.499s10.5 85.833 10.5 148.5c0 90.667 -7.83301 154.667 -23.5 192
s-41.167 56 -76.5 56c-34.667 0 -59.834 -18.833 -75.501 -56.5zM179.002 760l-52 54l118 131h90l118 -131l-52 -54l-111 83z" />
    <glyph glyph-name="Otilde" unicode="&#xd5;" horiz-adv-x="581" 
d="M485.5 619.5c45 -60.333 67.5 -151.167 67.5 -272.5c0 -120 -22.667 -210.667 -68 -272s-110.333 -92 -195 -92s-149.5 30.167 -194.5 90.5s-67.5 151.5 -67.5 273.5c0 120 22.5 210.5 67.5 271.5s109.833 91.5 194.5 91.5c85.333 0 150.5 -30.167 195.5 -90.5z
M214.5 538.499c-15.667 -37.667 -23.498 -101.499 -23.498 -191.499c0 -62.667 3.5 -112 10.5 -148s17.667 -61.833 32 -77.5s33.166 -23.5 56.499 -23.5c24 0 43.167 7.66699 57.5 23s25 41.166 32 77.499s10.5 85.833 10.5 148.5c0 90.667 -7.83301 154.667 -23.5 192
s-41.167 56 -76.5 56c-34.667 0 -59.834 -18.833 -75.501 -56.5zM308.502 774.5c-9 4.33301 -19.168 10.168 -30.501 17.501c-14 10.667 -25.667 16 -35 16c-8.66699 0 -16 -3.16699 -22 -9.5s-13 -16.833 -21 -31.5l-70 33c10.667 33.333 25.667 60.166 45 80.499
s41.333 30.5 66 30.5c12 0 22.333 -2 31 -6s19.334 -10 32.001 -18c7.33301 -6 13.666 -10.333 18.999 -13s11 -4 17 -4c8.66699 0 15.834 3.16699 21.501 9.5s12.167 16.5 19.5 30.5l71 -32c-10.667 -34 -25.667 -60.833 -45 -80.5s-41.333 -29.5 -66 -29.5
c-12.667 0 -23.5 2.16699 -32.5 6.5z" />
    <glyph glyph-name="Odieresis" unicode="&#xd6;" horiz-adv-x="581" 
d="M485.5 619.5c45 -60.333 67.5 -151.167 67.5 -272.5c0 -120 -22.667 -210.667 -68 -272s-110.333 -92 -195 -92s-149.5 30.167 -194.5 90.5s-67.5 151.5 -67.5 273.5c0 120 22.5 210.5 67.5 271.5s109.833 91.5 194.5 91.5c85.333 0 150.5 -30.167 195.5 -90.5z
M214.5 538.499c-15.667 -37.667 -23.498 -101.499 -23.498 -191.499c0 -62.667 3.5 -112 10.5 -148s17.667 -61.833 32 -77.5s33.166 -23.5 56.499 -23.5c24 0 43.167 7.66699 57.5 23s25 41.166 32 77.499s10.5 85.833 10.5 148.5c0 90.667 -7.83301 154.667 -23.5 192
s-41.167 56 -76.5 56c-34.667 0 -59.834 -18.833 -75.501 -56.5zM250.002 899c14 -14.667 21 -32.667 21 -54c0 -22 -6.83301 -40.167 -20.5 -54.5s-31.5 -21.5 -53.5 -21.5c-21.333 0 -39.166 7.33301 -53.499 22s-21.5 32.667 -21.5 54s7.16699 39.333 21.5 54
s32.166 22 53.499 22s39 -7.33301 53 -22zM446.002 899c14 -14.667 21 -32.667 21 -54c0 -22 -6.83301 -40.167 -20.5 -54.5s-31.5 -21.5 -53.5 -21.5c-20.667 0 -38.167 7.33301 -52.5 22s-21.5 32.667 -21.5 54s7.16699 39.333 21.5 54s31.833 22 52.5 22
c21.333 0 39 -7.33301 53 -22z" />
    <glyph glyph-name="multiply" unicode="&#xd7;" horiz-adv-x="432" 
d="M311 507l89 -70l-105 -131l105 -131l-89 -69l-96 126l-94 -126l-90 69l105 131l-105 131l90 70l94 -126z" />
    <glyph glyph-name="Oslash" unicode="&#xd8;" horiz-adv-x="581" 
d="M553 347c0 -120 -22.667 -210.499 -68 -271.499s-110.333 -91.5 -195 -91.5c-14 0 -24.333 0.333008 -31 1l-29 -118l-115 30l33 126c-80 54.667 -120 162.667 -120 324c0 119.333 22.5 209.5 67.5 270.5s109.833 91.5 194.5 91.5c14 0 24.333 -0.333008 31 -1l30 119
l116 -32l-34 -125c80 -54.667 120 -162.334 120 -323.001zM227.5 573.001c-15.667 -16 -27.167 -42.168 -34.5 -78.501s-11 -85.5 -11 -147.5c0 -53.333 2.33301 -96.666 7 -129.999s11.667 -59 21 -77l100 456c-4 0.666992 -10.667 1 -20 1c-26 0 -46.833 -8 -62.5 -24z
M391.5 471.5c-4.33301 32.333 -11.167 57.833 -20.5 76.5l-99 -451c4 -0.666992 10 -1 18 -1c26.667 0 47.667 7.66699 63 23s26.5 41 33.5 77s10.833 86.333 11.5 151c0 50.667 -2.16699 92.167 -6.5 124.5z" />
    <glyph glyph-name="Ugrave" unicode="&#xd9;" horiz-adv-x="536" 
d="M500 200c0 -41.333 -8.66797 -78.166 -26.001 -110.499s-43.333 -58 -78 -77s-77.334 -28.5 -128.001 -28.5c-76 0 -133.667 19.667 -173 59s-59 91.666 -59 156.999v493h157v-486c0 -36 5.83301 -62.667 17.5 -80s30.834 -26 57.501 -26s45.834 8.66699 57.501 26
s17.5 44 17.5 80v486h157v-493zM202.999 944l184 -119l-38 -74l-203 84z" />
    <glyph glyph-name="Uacute" unicode="&#xda;" horiz-adv-x="536" 
d="M500 200c0 -41.333 -8.66797 -78.166 -26.001 -110.499s-43.333 -58 -78 -77s-77.334 -28.5 -128.001 -28.5c-76 0 -133.667 19.667 -173 59s-59 91.666 -59 156.999v493h157v-486c0 -36 5.83301 -62.667 17.5 -80s30.834 -26 57.501 -26s45.834 8.66699 57.501 26
s17.5 44 17.5 80v486h157v-493zM330.999 945l57 -109l-203 -85l-38 74z" />
    <glyph glyph-name="Ucircumflex" unicode="&#xdb;" horiz-adv-x="536" 
d="M500 200c0 -41.333 -8.66797 -78.166 -26.001 -110.499s-43.333 -58 -78 -77s-77.334 -28.5 -128.001 -28.5c-76 0 -133.667 19.667 -173 59s-59 91.666 -59 156.999v493h157v-486c0 -36 5.83301 -62.667 17.5 -80s30.834 -26 57.501 -26s45.834 8.66699 57.501 26
s17.5 44 17.5 80v486h157v-493zM156.999 760l-52 54l118 131h90l118 -131l-52 -54l-111 83z" />
    <glyph glyph-name="Udieresis" unicode="&#xdc;" horiz-adv-x="536" 
d="M500 200c0 -41.333 -8.66797 -78.166 -26.001 -110.499s-43.333 -58 -78 -77s-77.334 -28.5 -128.001 -28.5c-76 0 -133.667 19.667 -173 59s-59 91.666 -59 156.999v493h157v-486c0 -36 5.83301 -62.667 17.5 -80s30.834 -26 57.501 -26s45.834 8.66699 57.501 26
s17.5 44 17.5 80v486h157v-493zM227.999 899c14 -14.667 21 -32.667 21 -54c0 -22 -6.83301 -40.167 -20.5 -54.5s-31.5 -21.5 -53.5 -21.5c-21.333 0 -39.166 7.33301 -53.499 22s-21.5 32.667 -21.5 54s7.16699 39.333 21.5 54s32.166 22 53.499 22s39 -7.33301 53 -22z
M423.999 899c14 -14.667 21 -32.667 21 -54c0 -22 -6.83301 -40.167 -20.5 -54.5s-31.5 -21.5 -53.5 -21.5c-20.667 0 -38.167 7.33301 -52.5 22s-21.5 32.667 -21.5 54s7.16699 39.333 21.5 54s31.833 22 52.5 22c21.333 0 39 -7.33301 53 -22z" />
    <glyph glyph-name="Yacute" unicode="&#xdd;" horiz-adv-x="500" 
d="M511 693l-182 -432v-261h-157v260l-182 433h164l98 -310l100 310h159zM313 945l57 -109l-203 -85l-38 74z" />
    <glyph glyph-name="Thorn" unicode="&#xde;" horiz-adv-x="499" 
d="M423.5 525.5c43.667 -38.333 65.499 -94.833 65.499 -169.5c0 -80 -21.167 -140 -63.5 -180s-101.5 -60 -177.5 -60h-45v-116h-157v693h157v-110h34c80.667 0 142.834 -19.167 186.501 -57.5zM307.499 257.5c15.667 19.667 23.499 52.5 23.499 98.5
c0 41.333 -8.16699 71 -24.5 89s-41.166 27 -74.499 27h-29v-244h30c34 0 58.833 9.83301 74.5 29.5z" />
    <glyph glyph-name="germandbls" unicode="&#xdf;" horiz-adv-x="509" 
d="M380 716c31.333 -28 47.0029 -63.002 47.0029 -105.002c0 -22 -3.33301 -40.667 -10 -56s-16.334 -32 -29.001 -50c-10 -14 -17.5 -26.5 -22.5 -37.5s-7.5 -23.167 -7.5 -36.5s4 -25.666 12 -36.999s20.333 -25 37 -41c28.667 -27.333 51 -54.5 67 -81.5
s24 -62.5 24 -106.5c0 -56 -15.833 -100.333 -47.5 -133s-72.5 -49 -122.5 -49c-40.667 0 -74.667 8.66699 -102 26l45 98c9.33301 -4.66699 19.666 -7 30.999 -7c12.667 0 23.167 5.66699 31.5 17s12.5 28.333 12.5 51c0 23.333 -4.83301 43.333 -14.5 60
s-23.834 35.334 -42.501 56.001c-19.333 22 -34 41.833 -44 59.5s-15 38.834 -15 63.501c0 19.333 2.5 36 7.5 50s12.5 29.667 22.5 47c10 16 17.333 30.333 22 43s7 27.667 7 45c0 19.333 -3.83301 34.166 -11.5 44.499s-18.5 15.5 -32.5 15.5c-32.667 0 -49 -28 -49 -84
v-568h-151v558c0 60 18 108.333 54 145s86 55 150 55c56 0 99.667 -14 131 -42z" />
    <glyph glyph-name="agrave" unicode="&#xe0;" horiz-adv-x="457" 
d="M416 104c4 -8 11.001 -14.334 21.001 -19.001l-31 -99c-28.667 2.66699 -52.167 9.5 -70.5 20.5s-32.5 28.167 -42.5 51.5c-30.667 -50 -74.334 -75 -131.001 -75c-44 0 -79 15.167 -105 45.5s-39 70.5 -39 120.5c0 58 18 102.167 54 132.5s88.667 45.5 158 45.5h32v28
c0 32 -4.83301 54.167 -14.5 66.5s-26.834 18.5 -51.501 18.5c-30.667 0 -68.667 -9 -114 -27l-34 96c27.333 12.667 56.5 22.334 87.5 29.001s60.5 10 88.5 10c62.667 0 109.334 -15.167 140.001 -45.5s46 -76.833 46 -139.5v-222c0 -16.667 2 -29 6 -37zM239.001 102.999
c9.33301 8.66699 17.001 20.999 23.001 36.999v103h-18c-27.333 0 -47.166 -6.5 -59.499 -19.5s-18.5 -33.5 -18.5 -61.5c0 -23.333 3.66699 -41.166 11 -53.499s17.666 -18.5 30.999 -18.5c11.333 0 21.666 4.33301 30.999 13zM172.002 824.998l183 -128l-41 -73l-201 94z
" />
    <glyph glyph-name="aacute" unicode="&#xe1;" horiz-adv-x="457" 
d="M416 104c4 -8 11.001 -14.334 21.001 -19.001l-31 -99c-28.667 2.66699 -52.167 9.5 -70.5 20.5s-32.5 28.167 -42.5 51.5c-30.667 -50 -74.334 -75 -131.001 -75c-44 0 -79 15.167 -105 45.5s-39 70.5 -39 120.5c0 58 18 102.167 54 132.5s88.667 45.5 158 45.5h32v28
c0 32 -4.83301 54.167 -14.5 66.5s-26.834 18.5 -51.501 18.5c-30.667 0 -68.667 -9 -114 -27l-34 96c27.333 12.667 56.5 22.334 87.5 29.001s60.5 10 88.5 10c62.667 0 109.334 -15.167 140.001 -45.5s46 -76.833 46 -139.5v-222c0 -16.667 2 -29 6 -37zM239.001 102.999
c9.33301 8.66699 17.001 20.999 23.001 36.999v103h-18c-27.333 0 -47.166 -6.5 -59.499 -19.5s-18.5 -33.5 -18.5 -61.5c0 -23.333 3.66699 -41.166 11 -53.499s17.666 -18.5 30.999 -18.5c11.333 0 21.666 4.33301 30.999 13zM280.002 824.998l59 -107l-201 -94l-41 73z
" />
    <glyph glyph-name="acircumflex" unicode="&#xe2;" horiz-adv-x="457" 
d="M416 104c4 -8 11.001 -14.334 21.001 -19.001l-31 -99c-28.667 2.66699 -52.167 9.5 -70.5 20.5s-32.5 28.167 -42.5 51.5c-30.667 -50 -74.334 -75 -131.001 -75c-44 0 -79 15.167 -105 45.5s-39 70.5 -39 120.5c0 58 18 102.167 54 132.5s88.667 45.5 158 45.5h32v28
c0 32 -4.83301 54.167 -14.5 66.5s-26.834 18.5 -51.501 18.5c-30.667 0 -68.667 -9 -114 -27l-34 96c27.333 12.667 56.5 22.334 87.5 29.001s60.5 10 88.5 10c62.667 0 109.334 -15.167 140.001 -45.5s46 -76.833 46 -139.5v-222c0 -16.667 2 -29 6 -37zM239.001 102.999
c9.33301 8.66699 17.001 20.999 23.001 36.999v103h-18c-27.333 0 -47.166 -6.5 -59.499 -19.5s-18.5 -33.5 -18.5 -61.5c0 -23.333 3.66699 -41.166 11 -53.499s17.666 -18.5 30.999 -18.5c11.333 0 21.666 4.33301 30.999 13zM115.002 625.998l-52 54l118 139h90l118 -139
l-52 -54l-111 91z" />
    <glyph glyph-name="atilde" unicode="&#xe3;" horiz-adv-x="457" 
d="M416 104c4 -8 11.001 -14.334 21.001 -19.001l-31 -99c-28.667 2.66699 -52.167 9.5 -70.5 20.5s-32.5 28.167 -42.5 51.5c-30.667 -50 -74.334 -75 -131.001 -75c-44 0 -79 15.167 -105 45.5s-39 70.5 -39 120.5c0 58 18 102.167 54 132.5s88.667 45.5 158 45.5h32v28
c0 32 -4.83301 54.167 -14.5 66.5s-26.834 18.5 -51.501 18.5c-30.667 0 -68.667 -9 -114 -27l-34 96c27.333 12.667 56.5 22.334 87.5 29.001s60.5 10 88.5 10c62.667 0 109.334 -15.167 140.001 -45.5s46 -76.833 46 -139.5v-222c0 -16.667 2 -29 6 -37zM239.001 102.999
c9.33301 8.66699 17.001 20.999 23.001 36.999v103h-18c-27.333 0 -47.166 -6.5 -59.499 -19.5s-18.5 -33.5 -18.5 -61.5c0 -23.333 3.66699 -41.166 11 -53.499s17.666 -18.5 30.999 -18.5c11.333 0 21.666 4.33301 30.999 13zM243.502 648.498
c-9 4.33301 -19.168 10.168 -30.501 17.501c-14 10.667 -25.667 16 -35 16c-8.66699 0 -16 -3.16699 -22 -9.5s-13 -16.833 -21 -31.5l-70 33c10.667 33.333 25.667 60.166 45 80.499s41.333 30.5 66 30.5c12 0 22.333 -2 31 -6s19.334 -10 32.001 -18
c7.33301 -6 13.666 -10.333 18.999 -13s11 -4 17 -4c8.66699 0 15.834 3.16699 21.501 9.5s12.167 16.5 19.5 30.5l71 -32c-10.667 -34 -25.667 -60.833 -45 -80.5s-41.333 -29.5 -66 -29.5c-12.667 0 -23.5 2.16699 -32.5 6.5z" />
    <glyph glyph-name="adieresis" unicode="&#xe4;" horiz-adv-x="457" 
d="M416 104c4 -8 11.001 -14.334 21.001 -19.001l-31 -99c-28.667 2.66699 -52.167 9.5 -70.5 20.5s-32.5 28.167 -42.5 51.5c-30.667 -50 -74.334 -75 -131.001 -75c-44 0 -79 15.167 -105 45.5s-39 70.5 -39 120.5c0 58 18 102.167 54 132.5s88.667 45.5 158 45.5h32v28
c0 32 -4.83301 54.167 -14.5 66.5s-26.834 18.5 -51.501 18.5c-30.667 0 -68.667 -9 -114 -27l-34 96c27.333 12.667 56.5 22.334 87.5 29.001s60.5 10 88.5 10c62.667 0 109.334 -15.167 140.001 -45.5s46 -76.833 46 -139.5v-222c0 -16.667 2 -29 6 -37zM239.001 102.999
c9.33301 8.66699 17.001 20.999 23.001 36.999v103h-18c-27.333 0 -47.166 -6.5 -59.499 -19.5s-18.5 -33.5 -18.5 -61.5c0 -23.333 3.66699 -41.166 11 -53.499s17.666 -18.5 30.999 -18.5c11.333 0 21.666 4.33301 30.999 13zM181.002 772.998
c14 -14.667 21 -32.667 21 -54c0 -22 -6.83301 -40.167 -20.5 -54.5s-31.5 -21.5 -53.5 -21.5c-21.333 0 -39.166 7.33301 -53.499 22s-21.5 32.667 -21.5 54s7.16699 39.333 21.5 54s32.166 22 53.499 22s39 -7.33301 53 -22zM377.002 772.998
c14 -14.667 21 -32.667 21 -54c0 -22 -6.83301 -40.167 -20.5 -54.5s-31.5 -21.5 -53.5 -21.5c-20.667 0 -38.167 7.33301 -52.5 22s-21.5 32.667 -21.5 54s7.16699 39.333 21.5 54s31.833 22 52.5 22c21.333 0 39 -7.33301 53 -22z" />
    <glyph glyph-name="aring" unicode="&#xe5;" horiz-adv-x="457" 
d="M416 104c4 -8 11.001 -14.334 21.001 -19.001l-31 -99c-28.667 2.66699 -52.167 9.5 -70.5 20.5s-32.5 28.167 -42.5 51.5c-30.667 -50 -74.334 -75 -131.001 -75c-44 0 -79 15.167 -105 45.5s-39 70.5 -39 120.5c0 58 18 102.167 54 132.5s88.667 45.5 158 45.5h32v28
c0 32 -4.83301 54.167 -14.5 66.5s-26.834 18.5 -51.501 18.5c-30.667 0 -68.667 -9 -114 -27l-34 96c27.333 12.667 56.5 22.334 87.5 29.001s60.5 10 88.5 10c62.667 0 109.334 -15.167 140.001 -45.5s46 -76.833 46 -139.5v-222c0 -16.667 2 -29 6 -37zM239.001 102.999
c9.33301 8.66699 17.001 20.999 23.001 36.999v103h-18c-27.333 0 -47.166 -6.5 -59.499 -19.5s-18.5 -33.5 -18.5 -61.5c0 -23.333 3.66699 -41.166 11 -53.499s17.666 -18.5 30.999 -18.5c11.333 0 21.666 4.33301 30.999 13zM315.002 828.498
c22 -23.667 33 -54.5 33 -92.5c0 -38.667 -11 -70 -33 -94s-51.667 -36 -89 -36c-38 0 -67.833 12 -89.5 36s-32.5 55.333 -32.5 94c0 38 10.833 68.833 32.5 92.5s51.5 35.5 89.5 35.5c37.333 0 67 -11.833 89 -35.5zM191.002 735.998c0 -19.333 3 -33.167 9 -41.5
s14.667 -12.5 26 -12.5c24 0 36 18 36 54c0 35.333 -12 53 -36 53c-23.333 0 -35 -17.667 -35 -53z" />
    <glyph glyph-name="ae" unicode="&#xe6;" horiz-adv-x="713" 
d="M688 221l-267.997 -0.000976562c3.33301 -46.667 12.666 -79.334 27.999 -98.001s37 -28 65 -28c16 0 31.833 3.33301 47.5 10s33.167 17.334 52.5 32.001l61 -81c-50 -48.667 -108.333 -73 -175 -73c-39.333 0 -73.833 7.66699 -103.5 23s-54.5 37 -74.5 65
c-38.667 -58.667 -88.667 -88 -150 -88c-46.667 0 -83.834 15.333 -111.501 46s-41.5 70.667 -41.5 120c0 55.333 18.5 98 55.5 128s91.167 45 162.5 45h33l-1 29c0 33.333 -4.83301 56.5 -14.5 69.5s-26.834 19.5 -51.501 19.5c-14 0 -31.167 -2.5 -51.5 -7.5
s-41.166 -11.833 -62.499 -20.5l-33 97c58 26 114.333 39 169 39c33.333 0 60.666 -5.66699 81.999 -17s38.333 -27.666 51 -48.999c36.667 44 83.334 66 140.001 66c59.333 0 106.666 -23.333 141.999 -70s53 -114 53 -202c0 -16.667 -1.33301 -35 -4 -55zM547.003 318.999
c0 43.333 -5 75.499 -15 96.499s-25.333 31.5 -46 31.5s-36.167 -10.167 -46.5 -30.5s-16.833 -55.166 -19.5 -104.499h127v7zM283.003 153.998c-6.66699 27.333 -10.667 55.333 -12 84h-20c-53.333 0 -80 -26.333 -80 -79c0 -45.333 14.333 -68 43 -68c26 0 49 21 69 63z
" />
    <glyph glyph-name="ccedilla" unicode="&#xe7;" horiz-adv-x="401" 
d="M280 -15v-38.001c58 -9.33301 87 -41 87 -95c0 -33.333 -11.333 -60.166 -34 -80.499s-54.334 -30.5 -95.001 -30.5c-38.667 0 -71.667 9.66699 -99 29l34 66c17.333 -8.66699 35.333 -13 54 -13c23.333 0 35 10.333 35 31c0 12.667 -6 21.667 -18 27s-31.333 8 -58 8
l10 100c-54.667 12 -96.667 40.833 -126 86.5s-44 107.5 -44 185.5c0 59.333 9.16699 110.5 27.5 153.5s44.5 76 78.5 99s74 34.5 120 34.5c30.667 0 58.334 -5.33301 83.001 -16s47.667 -27 69 -49l-62 -83c-27.333 22 -53.333 33 -78 33
c-27.333 0 -47.666 -12.5 -60.999 -37.5s-20 -69.5 -20 -133.5c0 -60.667 7 -102.667 21 -126s33.667 -35 59 -35c13.333 0 25.666 2.33301 36.999 7s24.333 12.667 39 24l65 -87c-36.667 -35.333 -78 -55.333 -124 -60z" />
    <glyph glyph-name="egrave" unicode="&#xe8;" horiz-adv-x="470" 
d="M446 221l-269.997 -0.000976562c3.33301 -48 12.166 -81.167 26.499 -99.5s35.166 -27.5 62.499 -27.5c18 0 35.333 3.5 52 10.5s34.667 17.833 54 32.5l62 -82c-49.333 -48 -109 -72 -179 -72c-74.667 0 -131.334 24.5 -170.001 73.5s-58 117.5 -58 205.5
s18.5 157.667 55.5 209s89.833 77 158.5 77c65.333 0 116.5 -23.167 153.5 -69.5s55.5 -113.833 55.5 -202.5c0 -21.333 -1 -39.666 -3 -54.999zM302.003 318.999c0 45.333 -4.5 78.167 -13.5 98.5s-24.833 30.5 -47.5 30.5c-20 0 -35.167 -9.83301 -45.5 -29.5
s-16.833 -55.167 -19.5 -106.5h126v7zM187.003 825l183 -128l-41 -73l-201 94z" />
    <glyph glyph-name="eacute" unicode="&#xe9;" horiz-adv-x="470" 
d="M446 221l-269.997 -0.000976562c3.33301 -48 12.166 -81.167 26.499 -99.5s35.166 -27.5 62.499 -27.5c18 0 35.333 3.5 52 10.5s34.667 17.833 54 32.5l62 -82c-49.333 -48 -109 -72 -179 -72c-74.667 0 -131.334 24.5 -170.001 73.5s-58 117.5 -58 205.5
s18.5 157.667 55.5 209s89.833 77 158.5 77c65.333 0 116.5 -23.167 153.5 -69.5s55.5 -113.833 55.5 -202.5c0 -21.333 -1 -39.666 -3 -54.999zM302.003 318.999c0 45.333 -4.5 78.167 -13.5 98.5s-24.833 30.5 -47.5 30.5c-20 0 -35.167 -9.83301 -45.5 -29.5
s-16.833 -55.167 -19.5 -106.5h126v7zM295.003 825l59 -107l-201 -94l-41 73z" />
    <glyph glyph-name="ecircumflex" unicode="&#xea;" horiz-adv-x="470" 
d="M446 221l-269.997 -0.000976562c3.33301 -48 12.166 -81.167 26.499 -99.5s35.166 -27.5 62.499 -27.5c18 0 35.333 3.5 52 10.5s34.667 17.833 54 32.5l62 -82c-49.333 -48 -109 -72 -179 -72c-74.667 0 -131.334 24.5 -170.001 73.5s-58 117.5 -58 205.5
s18.5 157.667 55.5 209s89.833 77 158.5 77c65.333 0 116.5 -23.167 153.5 -69.5s55.5 -113.833 55.5 -202.5c0 -21.333 -1 -39.666 -3 -54.999zM302.003 318.999c0 45.333 -4.5 78.167 -13.5 98.5s-24.833 30.5 -47.5 30.5c-20 0 -35.167 -9.83301 -45.5 -29.5
s-16.833 -55.167 -19.5 -106.5h126v7zM130.003 626l-52 54l118 139h90l118 -139l-52 -54l-111 91z" />
    <glyph glyph-name="edieresis" unicode="&#xeb;" horiz-adv-x="470" 
d="M446 221l-269.997 -0.000976562c3.33301 -48 12.166 -81.167 26.499 -99.5s35.166 -27.5 62.499 -27.5c18 0 35.333 3.5 52 10.5s34.667 17.833 54 32.5l62 -82c-49.333 -48 -109 -72 -179 -72c-74.667 0 -131.334 24.5 -170.001 73.5s-58 117.5 -58 205.5
s18.5 157.667 55.5 209s89.833 77 158.5 77c65.333 0 116.5 -23.167 153.5 -69.5s55.5 -113.833 55.5 -202.5c0 -21.333 -1 -39.666 -3 -54.999zM302.003 318.999c0 45.333 -4.5 78.167 -13.5 98.5s-24.833 30.5 -47.5 30.5c-20 0 -35.167 -9.83301 -45.5 -29.5
s-16.833 -55.167 -19.5 -106.5h126v7zM196.003 773c14 -14.667 21 -32.667 21 -54c0 -22 -6.83301 -40.167 -20.5 -54.5s-31.5 -21.5 -53.5 -21.5c-21.333 0 -39.166 7.33301 -53.499 22s-21.5 32.667 -21.5 54s7.16699 39.333 21.5 54s32.166 22 53.499 22
s39 -7.33301 53 -22zM392.003 773c14 -14.667 21 -32.667 21 -54c0 -22 -6.83301 -40.167 -20.5 -54.5s-31.5 -21.5 -53.5 -21.5c-20.667 0 -38.167 7.33301 -52.5 22s-21.5 32.667 -21.5 54s7.16699 39.333 21.5 54s31.833 22 52.5 22c21.333 0 39 -7.33301 53 -22z" />
    <glyph glyph-name="igrave" unicode="&#xec;" horiz-adv-x="240" 
d="M196 531v-531h-151v531h151zM66 825l183 -128l-41 -73l-201 94z" />
    <glyph glyph-name="iacute" unicode="&#xed;" horiz-adv-x="240" 
d="M196 531v-531h-151v531h151zM174 825l59 -107l-201 -94l-41 73z" />
    <glyph glyph-name="icircumflex" unicode="&#xee;" horiz-adv-x="240" 
d="M196 531v-531h-151v531h151zM9 626l-52 54l118 139h90l118 -139l-52 -54l-111 91z" />
    <glyph glyph-name="idieresis" unicode="&#xef;" horiz-adv-x="240" 
d="M196 531v-531h-151v531h151zM75 773c14 -14.667 21 -32.667 21 -54c0 -22 -6.83301 -40.167 -20.5 -54.5s-31.5 -21.5 -53.5 -21.5c-21.333 0 -39.166 7.33301 -53.499 22s-21.5 32.667 -21.5 54s7.16699 39.333 21.5 54s32.166 22 53.499 22s39 -7.33301 53 -22z
M271 773c14 -14.667 21 -32.667 21 -54c0 -22 -6.83301 -40.167 -20.5 -54.5s-31.5 -21.5 -53.5 -21.5c-20.667 0 -38.167 7.33301 -52.5 22s-21.5 32.667 -21.5 54s7.16699 39.333 21.5 54s31.833 22 52.5 22c21.333 0 39 -7.33301 53 -22z" />
    <glyph glyph-name="eth" unicode="&#xf0;" horiz-adv-x="493" 
d="M426 503.5c24 -63.667 35.999 -139.167 35.999 -226.5c0 -88 -19.167 -158.833 -57.5 -212.5s-92.833 -80.5 -163.5 -80.5c-41.333 0 -78.166 9.66699 -110.499 29s-57.833 47.833 -76.5 85.5s-28 82.834 -28 135.501c0 48 7.83301 90.5 23.5 127.5s36.5 65.667 62.5 86
s54 30.5 84 30.5c22.667 0 42.5 -3.83301 59.5 -11.5s33.167 -19.167 48.5 -34.5c-8 34 -17.833 63 -29.5 87s-28.5 46.333 -50.5 67l-48 -58l-90 45l55 64c-18.667 8 -43.667 16 -75 24l28 96c38 -8 78.667 -20.667 122 -38l62 76l80 -59l-53 -67
c56.667 -46.667 97 -101.834 121 -165.501zM293.999 129.5c10.667 23.667 15.999 62.5 15.999 116.5c0 39.333 -0.333008 67 -1 83c-18.667 28.667 -40.667 43 -66 43c-22 0 -38.5 -11.167 -49.5 -33.5s-16.5 -56.5 -16.5 -102.5c0 -52 5.66699 -88.667 17 -110
s28 -32 50 -32c22.667 0 39.334 11.833 50.001 35.5z" />
    <glyph glyph-name="ntilde" unicode="&#xf1;" horiz-adv-x="480" 
d="M406.5 507c21.667 -27.333 32.5 -64 32.5 -110v-397h-151v381c0 34.667 -9.66699 52 -29 52s-40.333 -21.333 -63 -64v-369h-151v531h131l11 -63c17.333 26.667 36.333 46.667 57 60s45 20 73 20c38 0 67.833 -13.667 89.5 -41zM261.5 648.5
c-9 4.33301 -19.168 10.168 -30.501 17.501c-14 10.667 -25.667 16 -35 16c-8.66699 0 -16 -3.16699 -22 -9.5s-13 -16.833 -21 -31.5l-70 33c10.667 33.333 25.667 60.166 45 80.499s41.333 30.5 66 30.5c12 0 22.333 -2 31 -6s19.334 -10 32.001 -18
c7.33301 -6 13.666 -10.333 18.999 -13s11 -4 17 -4c8.66699 0 15.834 3.16699 21.501 9.5s12.167 16.5 19.5 30.5l71 -32c-10.667 -34 -25.667 -60.833 -45 -80.5s-41.333 -29.5 -66 -29.5c-12.667 0 -23.5 2.16699 -32.5 6.5z" />
    <glyph glyph-name="ograve" unicode="&#xf2;" horiz-adv-x="494" 
d="M409.5 477c39 -47.333 58.5 -117.999 58.5 -211.999c0 -90 -19.5 -159.5 -58.5 -208.5s-93.167 -73.5 -162.5 -73.5s-123.5 23.833 -162.5 71.5s-58.5 118.167 -58.5 211.5c0 91.333 19.5 161.166 58.5 209.499s93.167 72.5 162.5 72.5s123.5 -23.667 162.5 -71z
M196.5 397.501c-10.333 -25.667 -15.5 -69.5 -15.5 -131.5c0 -64 5.16699 -108.667 15.5 -134s27.166 -38 50.499 -38s40.166 12.833 50.499 38.5s15.5 69.834 15.5 132.501c0 63.333 -5.16699 107.666 -15.5 132.999s-27.166 38 -50.499 38s-40.166 -12.833 -50.499 -38.5z
M193 825.001l183 -128l-41 -73l-201 94z" />
    <glyph glyph-name="oacute" unicode="&#xf3;" horiz-adv-x="494" 
d="M409.5 477c39 -47.333 58.5 -117.999 58.5 -211.999c0 -90 -19.5 -159.5 -58.5 -208.5s-93.167 -73.5 -162.5 -73.5s-123.5 23.833 -162.5 71.5s-58.5 118.167 -58.5 211.5c0 91.333 19.5 161.166 58.5 209.499s93.167 72.5 162.5 72.5s123.5 -23.667 162.5 -71z
M196.5 397.501c-10.333 -25.667 -15.5 -69.5 -15.5 -131.5c0 -64 5.16699 -108.667 15.5 -134s27.166 -38 50.499 -38s40.166 12.833 50.499 38.5s15.5 69.834 15.5 132.501c0 63.333 -5.16699 107.666 -15.5 132.999s-27.166 38 -50.499 38s-40.166 -12.833 -50.499 -38.5z
M301 825.001l59 -107l-201 -94l-41 73z" />
    <glyph glyph-name="ocircumflex" unicode="&#xf4;" horiz-adv-x="494" 
d="M409.5 477c39 -47.333 58.5 -117.999 58.5 -211.999c0 -90 -19.5 -159.5 -58.5 -208.5s-93.167 -73.5 -162.5 -73.5s-123.5 23.833 -162.5 71.5s-58.5 118.167 -58.5 211.5c0 91.333 19.5 161.166 58.5 209.499s93.167 72.5 162.5 72.5s123.5 -23.667 162.5 -71z
M196.5 397.501c-10.333 -25.667 -15.5 -69.5 -15.5 -131.5c0 -64 5.16699 -108.667 15.5 -134s27.166 -38 50.499 -38s40.166 12.833 50.499 38.5s15.5 69.834 15.5 132.501c0 63.333 -5.16699 107.666 -15.5 132.999s-27.166 38 -50.499 38s-40.166 -12.833 -50.499 -38.5z
M136 626.001l-52 54l118 139h90l118 -139l-52 -54l-111 91z" />
    <glyph glyph-name="otilde" unicode="&#xf5;" horiz-adv-x="494" 
d="M409.5 477c39 -47.333 58.5 -117.999 58.5 -211.999c0 -90 -19.5 -159.5 -58.5 -208.5s-93.167 -73.5 -162.5 -73.5s-123.5 23.833 -162.5 71.5s-58.5 118.167 -58.5 211.5c0 91.333 19.5 161.166 58.5 209.499s93.167 72.5 162.5 72.5s123.5 -23.667 162.5 -71z
M196.5 397.501c-10.333 -25.667 -15.5 -69.5 -15.5 -131.5c0 -64 5.16699 -108.667 15.5 -134s27.166 -38 50.499 -38s40.166 12.833 50.499 38.5s15.5 69.834 15.5 132.501c0 63.333 -5.16699 107.666 -15.5 132.999s-27.166 38 -50.499 38s-40.166 -12.833 -50.499 -38.5z
M264.5 648.501c-9 4.33301 -19.168 10.168 -30.501 17.501c-14 10.667 -25.667 16 -35 16c-8.66699 0 -16 -3.16699 -22 -9.5s-13 -16.833 -21 -31.5l-70 33c10.667 33.333 25.667 60.166 45 80.499s41.333 30.5 66 30.5c12 0 22.333 -2 31 -6s19.334 -10 32.001 -18
c7.33301 -6 13.666 -10.333 18.999 -13s11 -4 17 -4c8.66699 0 15.834 3.16699 21.501 9.5s12.167 16.5 19.5 30.5l71 -32c-10.667 -34 -25.667 -60.833 -45 -80.5s-41.333 -29.5 -66 -29.5c-12.667 0 -23.5 2.16699 -32.5 6.5z" />
    <glyph glyph-name="odieresis" unicode="&#xf6;" horiz-adv-x="494" 
d="M409.5 477c39 -47.333 58.5 -117.999 58.5 -211.999c0 -90 -19.5 -159.5 -58.5 -208.5s-93.167 -73.5 -162.5 -73.5s-123.5 23.833 -162.5 71.5s-58.5 118.167 -58.5 211.5c0 91.333 19.5 161.166 58.5 209.499s93.167 72.5 162.5 72.5s123.5 -23.667 162.5 -71z
M196.5 397.501c-10.333 -25.667 -15.5 -69.5 -15.5 -131.5c0 -64 5.16699 -108.667 15.5 -134s27.166 -38 50.499 -38s40.166 12.833 50.499 38.5s15.5 69.834 15.5 132.501c0 63.333 -5.16699 107.666 -15.5 132.999s-27.166 38 -50.499 38s-40.166 -12.833 -50.499 -38.5z
M202 773.001c14 -14.667 21 -32.667 21 -54c0 -22 -6.83301 -40.167 -20.5 -54.5s-31.5 -21.5 -53.5 -21.5c-21.333 0 -39.166 7.33301 -53.499 22s-21.5 32.667 -21.5 54s7.16699 39.333 21.5 54s32.166 22 53.499 22s39 -7.33301 53 -22zM398 773.001
c14 -14.667 21 -32.667 21 -54c0 -22 -6.83301 -40.167 -20.5 -54.5s-31.5 -21.5 -53.5 -21.5c-20.667 0 -38.167 7.33301 -52.5 22s-21.5 32.667 -21.5 54s7.16699 39.333 21.5 54s31.833 22 52.5 22c21.333 0 39 -7.33301 53 -22z" />
    <glyph glyph-name="divide" unicode="&#xf7;" horiz-adv-x="431" 
d="M277 154c16 -17.333 24 -38 24 -62s-8 -44.5 -24 -61.5s-36.333 -25.5 -61 -25.5c-25.333 0 -45.833 8.5 -61.5 25.5s-23.5 37.5 -23.5 61.5s7.83301 44.667 23.5 62s36.167 26 61.5 26c24.667 0 45 -8.66699 61 -26zM277 632c16 -17.333 24 -38 24 -62
s-8 -44.5 -24 -61.5s-36.333 -25.5 -61 -25.5c-25.333 0 -45.833 8.5 -61.5 25.5s-23.5 37.5 -23.5 61.5s7.83301 44.667 23.5 62s36.167 26 61.5 26c24.667 0 45 -8.66699 61 -26zM35 275v114h361v-114h-361z" />
    <glyph glyph-name="oslash" unicode="&#xf8;" horiz-adv-x="494" 
d="M443.5 414.5c16.333 -41 24.501 -90.8311 24.501 -149.498c0 -90 -19.5 -159.5 -58.5 -208.5s-93.167 -73.5 -162.5 -73.5c-8.66699 0 -15.334 0.333008 -20.001 1l-30 -118l-108 30l34 124c-30.667 22 -54.5 53.667 -71.5 95s-25.5 91.666 -25.5 150.999
c0 91.333 19.5 161.166 58.5 209.499s93.167 72.5 162.5 72.5c10.667 0 18.667 -0.333008 24 -1l31 119l107 -31l-36 -125c30.667 -22.667 54.167 -54.5 70.5 -95.5zM181.001 400.502c-14 -26.333 -21 -71.167 -21 -134.5c0 -67.333 7 -114 21 -140l75 314h-9
c-30 0 -52 -13.167 -66 -39.5zM313.501 130.001c13.667 26 20.499 71 20.499 135c0 66 -6.33301 111.667 -19 137l-74 -311h6c30.667 0 52.834 13 66.501 39z" />
    <glyph glyph-name="ugrave" unicode="&#xf9;" horiz-adv-x="476" 
d="M431 0h-132l-6 61c-32 -52 -74.333 -78 -127 -78c-38.667 0 -69.167 14 -91.5 42s-33.5 65 -33.5 111v395h151v-389c0 -15.333 2.66699 -27 8 -35s13 -12 23 -12c21.333 0 40.333 18.667 57 56v380h151v-531zM183 825l183 -128l-41 -73l-201 94z" />
    <glyph glyph-name="uacute" unicode="&#xfa;" horiz-adv-x="476" 
d="M431 0h-132l-6 61c-32 -52 -74.333 -78 -127 -78c-38.667 0 -69.167 14 -91.5 42s-33.5 65 -33.5 111v395h151v-389c0 -15.333 2.66699 -27 8 -35s13 -12 23 -12c21.333 0 40.333 18.667 57 56v380h151v-531zM291 825l59 -107l-201 -94l-41 73z" />
    <glyph glyph-name="ucircumflex" unicode="&#xfb;" horiz-adv-x="476" 
d="M431 0h-132l-6 61c-32 -52 -74.333 -78 -127 -78c-38.667 0 -69.167 14 -91.5 42s-33.5 65 -33.5 111v395h151v-389c0 -15.333 2.66699 -27 8 -35s13 -12 23 -12c21.333 0 40.333 18.667 57 56v380h151v-531zM126 626l-52 54l118 139h90l118 -139l-52 -54l-111 91z" />
    <glyph glyph-name="udieresis" unicode="&#xfc;" horiz-adv-x="476" 
d="M431 0h-132l-6 61c-32 -52 -74.333 -78 -127 -78c-38.667 0 -69.167 14 -91.5 42s-33.5 65 -33.5 111v395h151v-389c0 -15.333 2.66699 -27 8 -35s13 -12 23 -12c21.333 0 40.333 18.667 57 56v380h151v-531zM192 773c14 -14.667 21 -32.667 21 -54
c0 -22 -6.83301 -40.167 -20.5 -54.5s-31.5 -21.5 -53.5 -21.5c-21.333 0 -39.166 7.33301 -53.499 22s-21.5 32.667 -21.5 54s7.16699 39.333 21.5 54s32.166 22 53.499 22s39 -7.33301 53 -22zM388 773c14 -14.667 21 -32.667 21 -54c0 -22 -6.83301 -40.167 -20.5 -54.5
s-31.5 -21.5 -53.5 -21.5c-20.667 0 -38.167 7.33301 -52.5 22s-21.5 32.667 -21.5 54s7.16699 39.333 21.5 54s31.833 22 52.5 22c21.333 0 39 -7.33301 53 -22z" />
    <glyph glyph-name="yacute" unicode="&#xfd;" horiz-adv-x="442" 
d="M310 -1c-34.667 -136.667 -122 -210 -262 -220l-16 104c42 7.33301 73.833 19.5 95.5 36.5s38.5 43.833 50.5 80.5h-56l-127 531h152l70 -434l82 434h149zM275 825l59 -107l-201 -94l-41 73z" />
    <glyph glyph-name="thorn" unicode="&#xfe;" horiz-adv-x="499" 
d="M432 475.5c27.333 -48.333 41 -117.833 41 -208.5c0 -57.333 -7.16699 -107.5 -21.5 -150.5s-34.5 -76 -60.5 -99s-56.667 -34.5 -92 -34.5c-42.667 0 -77 19.667 -103 59v-245l-151 -18v963l151 16v-274c30 42.667 69 64 117 64c52 0 91.667 -24.167 119 -72.5z
M301.5 134c11 26 16.498 69.667 16.498 131c0 66 -4.66699 111.167 -14 135.5s-23.666 36.5 -42.999 36.5c-24 0 -45.667 -18.667 -65 -56v-245c16.667 -27.333 36.334 -41 59.001 -41c20 0 35.5 13 46.5 39z" />
    <glyph glyph-name="ydieresis" unicode="&#xff;" horiz-adv-x="442" 
d="M310 -1c-34.667 -136.667 -122 -210 -262 -220l-16 104c42 7.33301 73.833 19.5 95.5 36.5s38.5 43.833 50.5 80.5h-56l-127 531h152l70 -434l82 434h149zM176 773c14 -14.667 21 -32.667 21 -54c0 -22 -6.83301 -40.167 -20.5 -54.5s-31.5 -21.5 -53.5 -21.5
c-21.333 0 -39.166 7.33301 -53.499 22s-21.5 32.667 -21.5 54s7.16699 39.333 21.5 54s32.166 22 53.499 22s39 -7.33301 53 -22zM372 773c14 -14.667 21 -32.667 21 -54c0 -22 -6.83301 -40.167 -20.5 -54.5s-31.5 -21.5 -53.5 -21.5c-20.667 0 -38.167 7.33301 -52.5 22
s-21.5 32.667 -21.5 54s7.16699 39.333 21.5 54s31.833 22 52.5 22c21.333 0 39 -7.33301 53 -22z" />
    <glyph glyph-name="Amacron" unicode="&#x100;" horiz-adv-x="506" 
d="M356 0l-28 152h-154l-27 -152h-156l168 693h188l168 -693h-159zM195 265h113l-57 313zM383 784h-260v102h260v-102z" />
    <glyph glyph-name="amacron" unicode="&#x101;" horiz-adv-x="457" 
d="M416 104c4 -8 11.001 -14.334 21.001 -19.001l-31 -99c-28.667 2.66699 -52.167 9.5 -70.5 20.5s-32.5 28.167 -42.5 51.5c-30.667 -50 -74.334 -75 -131.001 -75c-44 0 -79 15.167 -105 45.5s-39 70.5 -39 120.5c0 58 18 102.167 54 132.5s88.667 45.5 158 45.5h32v28
c0 32 -4.83301 54.167 -14.5 66.5s-26.834 18.5 -51.501 18.5c-30.667 0 -68.667 -9 -114 -27l-34 96c27.333 12.667 56.5 22.334 87.5 29.001s60.5 10 88.5 10c62.667 0 109.334 -15.167 140.001 -45.5s46 -76.833 46 -139.5v-222c0 -16.667 2 -29 6 -37zM239.001 102.999
c9.33301 8.66699 17.001 20.999 23.001 36.999v103h-18c-27.333 0 -47.166 -6.5 -59.499 -19.5s-18.5 -33.5 -18.5 -61.5c0 -23.333 3.66699 -41.166 11 -53.499s17.666 -18.5 30.999 -18.5c11.333 0 21.666 4.33301 30.999 13zM356.002 657.998h-260v102h260v-102z" />
    <glyph glyph-name="Abreve" unicode="&#x102;" horiz-adv-x="506" 
d="M356 0l-28 152h-154l-27 -152h-156l168 693h188l168 -693h-159zM195 265h113l-57 313zM149 794.5c-24.667 28.333 -38.999 66.5 -42.999 114.5l79 16c10.667 -45.333 33.667 -68 69 -68c18 0 32.667 5.83301 44 17.5s19 28.5 23 50.5l80 -16
c-4 -48 -18.333 -86.167 -43 -114.5s-59.334 -42.5 -104.001 -42.5c-45.333 0 -80.333 14.167 -105 42.5z" />
    <glyph glyph-name="abreve" unicode="&#x103;" horiz-adv-x="457" 
d="M416 104c4 -8 11.001 -14.334 21.001 -19.001l-31 -99c-28.667 2.66699 -52.167 9.5 -70.5 20.5s-32.5 28.167 -42.5 51.5c-30.667 -50 -74.334 -75 -131.001 -75c-44 0 -79 15.167 -105 45.5s-39 70.5 -39 120.5c0 58 18 102.167 54 132.5s88.667 45.5 158 45.5h32v28
c0 32 -4.83301 54.167 -14.5 66.5s-26.834 18.5 -51.501 18.5c-30.667 0 -68.667 -9 -114 -27l-34 96c27.333 12.667 56.5 22.334 87.5 29.001s60.5 10 88.5 10c62.667 0 109.334 -15.167 140.001 -45.5s46 -76.833 46 -139.5v-222c0 -16.667 2 -29 6 -37zM239.001 102.999
c9.33301 8.66699 17.001 20.999 23.001 36.999v103h-18c-27.333 0 -47.166 -6.5 -59.499 -19.5s-18.5 -33.5 -18.5 -61.5c0 -23.333 3.66699 -41.166 11 -53.499s17.666 -18.5 30.999 -18.5c11.333 0 21.666 4.33301 30.999 13zM121.502 678.498
c-25 29.667 -39.166 70.834 -42.499 123.501l79 15c10.667 -53.333 33.667 -80 69 -80s57.666 26.667 66.999 80l80 -15c-3.33301 -52.667 -17.333 -93.834 -42 -123.501s-59.667 -44.5 -105 -44.5s-80.5 14.833 -105.5 44.5z" />
    <glyph glyph-name="Aogonek" unicode="&#x104;" horiz-adv-x="506" 
d="M357 -51c-13.333 -16.667 -20.001 -34.334 -20.001 -53.001c0 -30.667 14.667 -46 44 -46c15.333 0 31.333 2.33301 48 7l-9 -93c-19.333 -5.33301 -38.666 -8 -57.999 -8c-38.667 0 -70.167 10 -94.5 30s-36.5 48 -36.5 84c0 34.667 10.5 64.334 31.5 89.001
s50.5 46.667 88.5 66l-23 127h-154l-27 -152h-156l168 693h188l168 -693h-83c-36.667 -17.333 -61.667 -34.333 -75 -51zM194.999 265h113l-57 313z" />
    <glyph glyph-name="aogonek" unicode="&#x105;" horiz-adv-x="457" 
d="M331 -65c-13.333 -16.667 -19.999 -34.334 -19.999 -53.001c0 -30.667 14.667 -46 44 -46c15.333 0 31.333 2.33301 48 7l-9 -93c-19.333 -5.33301 -38.666 -8 -57.999 -8c-38.667 0 -70.167 10 -94.5 30s-36.5 48 -36.5 84c0 34.667 10.667 64.667 32 90
s51.666 47.333 90.999 66c-14 10.667 -25.667 26 -35 46c-30.667 -50 -74.334 -75 -131.001 -75c-44 0 -79 15.167 -105 45.5s-39 70.5 -39 120.5c0 58 18 102.167 54 132.5s88.667 45.5 158 45.5h32v28c0 32 -4.83301 54.167 -14.5 66.5s-26.834 18.5 -51.501 18.5
c-30.667 0 -68.667 -9 -114 -27l-34 96c27.333 12.667 56.5 22.334 87.5 29.001s60.5 10 88.5 10c62.667 0 109.334 -15.167 140.001 -45.5s46 -76.833 46 -139.5v-222c0 -16.667 2 -29 6 -37s11 -14.333 21 -19l-31 -99c-36.667 -17.333 -61.667 -34.333 -75 -51z
M239.001 103c9.33301 8.66699 17.001 20.999 23.001 36.999v103h-18c-27.333 0 -47.166 -6.5 -59.499 -19.5s-18.5 -33.5 -18.5 -61.5c0 -23.333 3.66699 -41.166 11 -53.499s17.666 -18.5 30.999 -18.5c11.333 0 21.666 4.33301 30.999 13z" />
    <glyph glyph-name="Cacute" unicode="&#x106;" horiz-adv-x="484" 
d="M392.5 691c29.667 -12.667 57.499 -31.668 83.499 -57.001l-73 -86c-16.667 14.667 -32.834 25.834 -48.501 33.501s-32.5 11.5 -50.5 11.5c-36.667 0 -64.667 -18.833 -84 -56.5s-29 -100.5 -29 -188.5c0 -86 9.83301 -148 29.5 -186s47.834 -57 84.501 -57
c20 0 37.333 4 52 12s32.667 20.667 54 38l71 -84c-24 -26 -52 -47.167 -84 -63.5s-67.667 -24.5 -107 -24.5c-80 0 -143.833 30.667 -191.5 92s-71.5 152.333 -71.5 273c0 79.333 11.167 146 33.5 200s53.5 94.5 93.5 121.5s86 40.5 138 40.5
c36.667 0 69.834 -6.33301 99.501 -19zM362.999 944.999l57 -109l-203 -85l-38 74z" />
    <glyph glyph-name="cacute" unicode="&#x107;" horiz-adv-x="401" 
d="M335 532c24.667 -10.667 47.666 -27 68.999 -49l-62 -83c-27.333 22 -53.333 33 -78 33c-27.333 0 -47.666 -12.5 -60.999 -37.5s-20 -69.5 -20 -133.5c0 -60.667 7 -102.667 21 -126s33.667 -35 59 -35c13.333 0 25.666 2.33301 36.999 7s24.333 12.667 39 24l65 -87
c-43.333 -41.333 -93.333 -62 -150 -62c-72 0 -128 23.5 -168 70.5s-60 116.167 -60 207.5c0 59.333 9.16699 110.5 27.5 153.5s44.5 76 78.5 99s74 34.5 120 34.5c30.667 0 58.334 -5.33301 83.001 -16zM302.999 825l59 -107l-201 -94l-41 73z" />
    <glyph glyph-name="Ccircumflex" unicode="&#x108;" horiz-adv-x="484" 
d="M392.5 691c29.667 -12.667 57.499 -31.668 83.499 -57.001l-73 -86c-16.667 14.667 -32.834 25.834 -48.501 33.501s-32.5 11.5 -50.5 11.5c-36.667 0 -64.667 -18.833 -84 -56.5s-29 -100.5 -29 -188.5c0 -86 9.83301 -148 29.5 -186s47.834 -57 84.501 -57
c20 0 37.333 4 52 12s32.667 20.667 54 38l71 -84c-24 -26 -52 -47.167 -84 -63.5s-67.667 -24.5 -107 -24.5c-80 0 -143.833 30.667 -191.5 92s-71.5 152.333 -71.5 273c0 79.333 11.167 146 33.5 200s53.5 94.5 93.5 121.5s86 40.5 138 40.5
c36.667 0 69.834 -6.33301 99.501 -19zM188.999 759.999l-52 54l118 131h90l118 -131l-52 -54l-111 83z" />
    <glyph glyph-name="ccircumflex" unicode="&#x109;" horiz-adv-x="401" 
d="M335 532c24.667 -10.667 47.666 -27 68.999 -49l-62 -83c-27.333 22 -53.333 33 -78 33c-27.333 0 -47.666 -12.5 -60.999 -37.5s-20 -69.5 -20 -133.5c0 -60.667 7 -102.667 21 -126s33.667 -35 59 -35c13.333 0 25.666 2.33301 36.999 7s24.333 12.667 39 24l65 -87
c-43.333 -41.333 -93.333 -62 -150 -62c-72 0 -128 23.5 -168 70.5s-60 116.167 -60 207.5c0 59.333 9.16699 110.5 27.5 153.5s44.5 76 78.5 99s74 34.5 120 34.5c30.667 0 58.334 -5.33301 83.001 -16zM137.999 626l-52 54l118 139h90l118 -139l-52 -54l-111 91z" />
    <glyph glyph-name="Cdotaccent" unicode="&#x10a;" horiz-adv-x="484" 
d="M392.5 691c29.667 -12.667 57.499 -31.668 83.499 -57.001l-73 -86c-16.667 14.667 -32.834 25.834 -48.501 33.501s-32.5 11.5 -50.5 11.5c-36.667 0 -64.667 -18.833 -84 -56.5s-29 -100.5 -29 -188.5c0 -86 9.83301 -148 29.5 -186s47.834 -57 84.501 -57
c20 0 37.333 4 52 12s32.667 20.667 54 38l71 -84c-24 -26 -52 -47.167 -84 -63.5s-67.667 -24.5 -107 -24.5c-80 0 -143.833 30.667 -191.5 92s-71.5 152.333 -71.5 273c0 79.333 11.167 146 33.5 200s53.5 94.5 93.5 121.5s86 40.5 138 40.5
c36.667 0 69.834 -6.33301 99.501 -19zM361.499 908.499c15.667 -16.333 23.5 -37.166 23.5 -62.499c0 -24.667 -8 -45.167 -24 -61.5s-36.667 -24.5 -62 -24.5s-46 8.16699 -62 24.5s-24 36.833 -24 61.5c0 25.333 8 46.166 24 62.499s36.667 24.5 62 24.5
c26 0 46.833 -8.16699 62.5 -24.5z" />
    <glyph glyph-name="cdotaccent" unicode="&#x10b;" horiz-adv-x="401" 
d="M335 532c24.667 -10.667 47.666 -27 68.999 -49l-62 -83c-27.333 22 -53.333 33 -78 33c-27.333 0 -47.666 -12.5 -60.999 -37.5s-20 -69.5 -20 -133.5c0 -60.667 7 -102.667 21 -126s33.667 -35 59 -35c13.333 0 25.666 2.33301 36.999 7s24.333 12.667 39 24l65 -87
c-43.333 -41.333 -93.333 -62 -150 -62c-72 0 -128 23.5 -168 70.5s-60 116.167 -60 207.5c0 59.333 9.16699 110.5 27.5 153.5s44.5 76 78.5 99s74 34.5 120 34.5c30.667 0 58.334 -5.33301 83.001 -16zM310.499 782.5c15.667 -16.333 23.5 -37.166 23.5 -62.499
c0 -24.667 -8 -45.167 -24 -61.5s-36.667 -24.5 -62 -24.5s-46 8.16699 -62 24.5s-24 36.833 -24 61.5c0 25.333 8 46.166 24 62.499s36.667 24.5 62 24.5c26 0 46.833 -8.16699 62.5 -24.5z" />
    <glyph glyph-name="Ccaron" unicode="&#x10c;" horiz-adv-x="484" 
d="M392.5 691c29.667 -12.667 57.499 -31.668 83.499 -57.001l-73 -86c-16.667 14.667 -32.834 25.834 -48.501 33.501s-32.5 11.5 -50.5 11.5c-36.667 0 -64.667 -18.833 -84 -56.5s-29 -100.5 -29 -188.5c0 -86 9.83301 -148 29.5 -186s47.834 -57 84.501 -57
c20 0 37.333 4 52 12s32.667 20.667 54 38l71 -84c-24 -26 -52 -47.167 -84 -63.5s-67.667 -24.5 -107 -24.5c-80 0 -143.833 30.667 -191.5 92s-71.5 152.333 -71.5 273c0 79.333 11.167 146 33.5 200s53.5 94.5 93.5 121.5s86 40.5 138 40.5
c36.667 0 69.834 -6.33301 99.501 -19zM410.999 935.999l52 -55l-118 -131h-90l-118 131l52 55l111 -84z" />
    <glyph glyph-name="ccaron" unicode="&#x10d;" horiz-adv-x="401" 
d="M335 532c24.667 -10.667 47.666 -27 68.999 -49l-62 -83c-27.333 22 -53.333 33 -78 33c-27.333 0 -47.666 -12.5 -60.999 -37.5s-20 -69.5 -20 -133.5c0 -60.667 7 -102.667 21 -126s33.667 -35 59 -35c13.333 0 25.666 2.33301 36.999 7s24.333 12.667 39 24l65 -87
c-43.333 -41.333 -93.333 -62 -150 -62c-72 0 -128 23.5 -168 70.5s-60 116.167 -60 207.5c0 59.333 9.16699 110.5 27.5 153.5s44.5 76 78.5 99s74 34.5 120 34.5c30.667 0 58.334 -5.33301 83.001 -16zM359.999 807l52 -55l-118 -139h-90l-118 139l52 55l111 -93z" />
    <glyph glyph-name="Dcaron" unicode="&#x10e;" horiz-adv-x="549" 
d="M375.5 666.5c43 -17.667 78 -51.667 105 -102s40.5 -121.833 40.5 -214.5c0 -130 -26.167 -220.833 -78.5 -272.5s-122.5 -77.5 -210.5 -77.5h-186v693h175c60 0 111.5 -8.83301 154.5 -26.5zM203 580v-465.998h38c26.667 0 48.5 6.83301 65.5 20.5
s30.167 37.667 39.5 72s14 82.166 14 143.499c0 62 -4.83301 109.667 -14.5 143s-23 56.166 -40 68.499s-38.5 18.5 -64.5 18.5h-38zM356 936.002l52 -55l-118 -131h-90l-118 131l52 55l111 -84z" />
    <glyph glyph-name="dcaron" unicode="&#x10f;" horiz-adv-x="594" 
d="M456 742v-742.001h-135l-5 56c-15.333 -22.667 -32.666 -40.5 -51.999 -53.5s-42.666 -19.5 -69.999 -19.5c-54.667 0 -96.334 24.5 -125.001 73.5s-43 118.833 -43 209.5c0 56.667 7.66699 106.334 23 149.001s36.666 75.5 63.999 98.5s58.333 34.5 93 34.5
c40 0 73 -16.333 99 -49v259zM305 145.999l0.000976562 248c-8.66699 14.667 -17.334 25.5 -26.001 32.5s-18.667 10.5 -30 10.5c-45.333 0 -68 -57 -68 -171c0 -64.667 5.5 -109.5 16.5 -134.5s26.167 -37.5 45.5 -37.5c23.333 0 44 17.333 62 52zM569.001 528.999l46 212
l-109 17l-20 -216z" />
    <glyph glyph-name="Dcroat" unicode="&#x110;" horiz-adv-x="566" 
d="M392.5 666.5c43 -17.667 78 -51.667 105 -102s40.5 -121.833 40.5 -214.5c0 -130 -26.167 -220.833 -78.5 -272.5s-122.5 -77.5 -210.5 -77.5h-186v305h-49v96h49v292h175c60 0 111.5 -8.83301 154.5 -26.5zM323.5 134.5c17 13.667 30.167 37.6689 39.5 72.002
s14 82.166 14 143.499c0 62 -4.83301 109.667 -14.5 143s-23 56.166 -40 68.499s-38.5 18.5 -64.5 18.5h-38v-179h85v-96h-85v-191h38c26.667 0 48.5 6.83301 65.5 20.5z" />
    <glyph glyph-name="dcroat" unicode="&#x111;" horiz-adv-x="504" 
d="M500 688v-90.001h-44v-598h-135l-5 56c-15.333 -22.667 -32.666 -40.5 -51.999 -53.5s-42.666 -19.5 -69.999 -19.5c-54.667 0 -96.334 24.5 -125.001 73.5s-43 118.833 -43 209.5c0 56.667 7.66699 106.334 23 149.001s36.666 75.5 63.999 98.5s58.333 34.5 93 34.5
c40 0 73 -16.333 99 -49v99h-106v90h106v70l151 -16v-54h44zM305 145.999l0.000976562 248c-8.66699 14.667 -17.334 25.5 -26.001 32.5s-18.667 10.5 -30 10.5c-45.333 0 -68 -57 -68 -171c0 -64.667 5.5 -109.5 16.5 -134.5s26.167 -37.5 45.5 -37.5
c23.333 0 44 17.333 62 52z" />
    <glyph glyph-name="Emacron" unicode="&#x112;" horiz-adv-x="432" 
d="M412 693l-16 -112h-193v-174h170v-110h-170v-183h206v-114h-363v693h366zM360 784h-260v102h260v-102z" />
    <glyph glyph-name="emacron" unicode="&#x113;" horiz-adv-x="470" 
d="M446 221l-269.997 -0.000976562c3.33301 -48 12.166 -81.167 26.499 -99.5s35.166 -27.5 62.499 -27.5c18 0 35.333 3.5 52 10.5s34.667 17.833 54 32.5l62 -82c-49.333 -48 -109 -72 -179 -72c-74.667 0 -131.334 24.5 -170.001 73.5s-58 117.5 -58 205.5
s18.5 157.667 55.5 209s89.833 77 158.5 77c65.333 0 116.5 -23.167 153.5 -69.5s55.5 -113.833 55.5 -202.5c0 -21.333 -1 -39.666 -3 -54.999zM302.003 318.999c0 45.333 -4.5 78.167 -13.5 98.5s-24.833 30.5 -47.5 30.5c-20 0 -35.167 -9.83301 -45.5 -29.5
s-16.833 -55.167 -19.5 -106.5h126v7zM371.003 658h-260v102h260v-102z" />
    <glyph glyph-name="Ebreve" unicode="&#x114;" horiz-adv-x="432" 
d="M412 693l-16 -112h-193v-174h170v-110h-170v-183h206v-114h-363v693h366zM126 794.5c-24.667 28.333 -38.999 66.5 -42.999 114.5l79 16c10.667 -45.333 33.667 -68 69 -68c18 0 32.667 5.83301 44 17.5s19 28.5 23 50.5l80 -16c-4 -48 -18.333 -86.167 -43 -114.5
s-59.334 -42.5 -104.001 -42.5c-45.333 0 -80.333 14.167 -105 42.5z" />
    <glyph glyph-name="ebreve" unicode="&#x115;" horiz-adv-x="470" 
d="M446 221l-269.997 -0.000976562c3.33301 -48 12.166 -81.167 26.499 -99.5s35.166 -27.5 62.499 -27.5c18 0 35.333 3.5 52 10.5s34.667 17.833 54 32.5l62 -82c-49.333 -48 -109 -72 -179 -72c-74.667 0 -131.334 24.5 -170.001 73.5s-58 117.5 -58 205.5
s18.5 157.667 55.5 209s89.833 77 158.5 77c65.333 0 116.5 -23.167 153.5 -69.5s55.5 -113.833 55.5 -202.5c0 -21.333 -1 -39.666 -3 -54.999zM302.003 318.999c0 45.333 -4.5 78.167 -13.5 98.5s-24.833 30.5 -47.5 30.5c-20 0 -35.167 -9.83301 -45.5 -29.5
s-16.833 -55.167 -19.5 -106.5h126v7zM136.503 678.5c-25 29.667 -39.166 70.834 -42.499 123.501l79 15c10.667 -53.333 33.667 -80 69 -80s57.666 26.667 66.999 80l80 -15c-3.33301 -52.667 -17.333 -93.834 -42 -123.501s-59.667 -44.5 -105 -44.5
s-80.5 14.833 -105.5 44.5z" />
    <glyph glyph-name="Edotaccent" unicode="&#x116;" horiz-adv-x="432" 
d="M412 693l-16 -112h-193v-174h170v-110h-170v-183h206v-114h-363v693h366zM291.5 908.5c15.667 -16.333 23.5 -37.166 23.5 -62.499c0 -24.667 -8 -45.167 -24 -61.5s-36.667 -24.5 -62 -24.5s-46 8.16699 -62 24.5s-24 36.833 -24 61.5c0 25.333 8 46.166 24 62.499
s36.667 24.5 62 24.5c26 0 46.833 -8.16699 62.5 -24.5z" />
    <glyph glyph-name="edotaccent" unicode="&#x117;" horiz-adv-x="470" 
d="M446 221l-269.997 -0.000976562c3.33301 -48 12.166 -81.167 26.499 -99.5s35.166 -27.5 62.499 -27.5c18 0 35.333 3.5 52 10.5s34.667 17.833 54 32.5l62 -82c-49.333 -48 -109 -72 -179 -72c-74.667 0 -131.334 24.5 -170.001 73.5s-58 117.5 -58 205.5
s18.5 157.667 55.5 209s89.833 77 158.5 77c65.333 0 116.5 -23.167 153.5 -69.5s55.5 -113.833 55.5 -202.5c0 -21.333 -1 -39.666 -3 -54.999zM302.003 318.999c0 45.333 -4.5 78.167 -13.5 98.5s-24.833 30.5 -47.5 30.5c-20 0 -35.167 -9.83301 -45.5 -29.5
s-16.833 -55.167 -19.5 -106.5h126v7zM302.503 782.5c15.667 -16.333 23.5 -37.166 23.5 -62.499c0 -24.667 -8 -45.167 -24 -61.5s-36.667 -24.5 -62 -24.5s-46 8.16699 -62 24.5s-24 36.833 -24 61.5c0 25.333 8 46.166 24 62.499s36.667 24.5 62 24.5
c26 0 46.833 -8.16699 62.5 -24.5z" />
    <glyph glyph-name="Eogonek" unicode="&#x118;" horiz-adv-x="432" 
d="M203 114l205.999 0.000976562v-114h-32c-36.667 -17.333 -61.667 -34.333 -75 -51s-20 -34.334 -20 -53.001c0 -30.667 14.667 -46 44 -46c15.333 0 31.333 2.33301 48 7l-9 -93c-19.333 -5.33301 -38.666 -8 -57.999 -8c-38.667 0 -70.167 10 -94.5 30
s-36.5 48 -36.5 84c0 52 25.667 95.333 77 130h-207v693h366l-16 -112h-193v-174h170v-110h-170v-183z" />
    <glyph glyph-name="eogonek" unicode="&#x119;" horiz-adv-x="470" 
d="M446 221l-270 -0.00292969c3.33301 -48 12.166 -81.167 26.499 -99.5s35.166 -27.5 62.499 -27.5c18 0 35.333 3.5 52 10.5s34.667 17.833 54 32.5l62 -82c-23.333 -24 -51.666 -42.333 -84.999 -55c-51.333 -28 -77 -59.333 -77 -94c0 -14.667 3.83301 -26 11.5 -34
s18.167 -12 31.5 -12c16.667 0 33.334 2.33301 50.001 7l-9 -94c-20 -5.33301 -40 -8 -60 -8c-36.667 0 -67 10.5 -91 31.5s-36 48.833 -36 83.5c0 42.667 20.333 77.334 61 104.001c-66.667 5.33301 -117.167 32.333 -151.5 81s-51.5 114.334 -51.5 197.001
c0 88 18.5 157.667 55.5 209s89.833 77 158.5 77c65.333 0 116.5 -23.167 153.5 -69.5s55.5 -113.833 55.5 -202.5c0 -21.333 -1 -39.666 -3 -54.999zM302 318.997c0 45.333 -4.5 78.167 -13.5 98.5s-24.833 30.5 -47.5 30.5c-20 0 -35.167 -9.83301 -45.5 -29.5
s-16.833 -55.167 -19.5 -106.5h126v7z" />
    <glyph glyph-name="Ecaron" unicode="&#x11a;" horiz-adv-x="432" 
d="M412 693l-16 -112h-193v-174h170v-110h-170v-183h206v-114h-363v693h366zM341 936l52 -55l-118 -131h-90l-118 131l52 55l111 -84z" />
    <glyph glyph-name="ecaron" unicode="&#x11b;" horiz-adv-x="470" 
d="M446 221l-269.997 -0.000976562c3.33301 -48 12.166 -81.167 26.499 -99.5s35.166 -27.5 62.499 -27.5c18 0 35.333 3.5 52 10.5s34.667 17.833 54 32.5l62 -82c-49.333 -48 -109 -72 -179 -72c-74.667 0 -131.334 24.5 -170.001 73.5s-58 117.5 -58 205.5
s18.5 157.667 55.5 209s89.833 77 158.5 77c65.333 0 116.5 -23.167 153.5 -69.5s55.5 -113.833 55.5 -202.5c0 -21.333 -1 -39.666 -3 -54.999zM302.003 318.999c0 45.333 -4.5 78.167 -13.5 98.5s-24.833 30.5 -47.5 30.5c-20 0 -35.167 -9.83301 -45.5 -29.5
s-16.833 -55.167 -19.5 -106.5h126v7zM352.003 807l52 -55l-118 -139h-90l-118 139l52 55l111 -93z" />
    <glyph glyph-name="Gcircumflex" unicode="&#x11c;" horiz-adv-x="545" 
d="M508 626l-75.002 -78.999c-20.667 17.333 -39.5 29.833 -56.5 37.5s-36.5 11.5 -58.5 11.5c-42.667 0 -74.667 -18.333 -96 -55s-32 -101.334 -32 -194.001c0 -65.333 3.66699 -116 11 -152s18.333 -61 33 -75s34 -21 58 -21c24.667 0 47.667 7 69 21v166h-66l-15 111
h229v-342c-30 -22 -64 -39.333 -102 -52s-75.333 -19 -112 -19c-91.333 0 -158.666 29.333 -201.999 88s-65 150.334 -65 275.001c0 80.667 12.167 148.167 36.5 202.5s57.833 94.666 100.5 120.999s91.334 39.5 146.001 39.5c75.333 0 141 -28 197 -84zM183.998 760.001
l-52 54l118 131h90l118 -131l-52 -54l-111 83z" />
    <glyph glyph-name="gcircumflex" unicode="&#x11d;" horiz-adv-x="454" 
d="M460 501c-24.667 -13.333 -66.001 -20.001 -124.001 -20.001c29.333 -13.333 51 -31.166 65 -53.499s21 -50.5 21 -84.5c0 -52.667 -17.167 -95.334 -51.5 -128.001s-81.166 -49 -140.499 -49c-18.667 0 -34.667 2 -48 6c-10.667 -7.33301 -16 -18.666 -16 -33.999
c0 -11.333 3.5 -20 10.5 -26s19.833 -9 38.5 -9h54c57.333 0 102.166 -14 134.499 -42s48.5 -64 48.5 -108c0 -52.667 -20.5 -94.834 -61.5 -126.501s-99.5 -47.5 -175.5 -47.5c-82 0 -138.667 14.333 -170 43s-47 71 -47 127h134c0 -25.333 5.83301 -43.5 17.5 -54.5
s33.834 -16.5 66.501 -16.5c57.333 0 86 21.333 86 64c0 19.333 -5.5 33.833 -16.5 43.5s-27.833 14.5 -50.5 14.5h-40c-52.667 0 -91 9.16699 -115 27.5s-36 43.5 -36 75.5c0 19.333 5 37.5 15 54.5s23.667 31.5 41 43.5c-28.667 18 -49.5 39 -62.5 63s-19.5 54 -19.5 90
c0 60 18.333 107 55 141s86.667 51 150 51c42 0 77.5 5.33301 106.5 16s60.167 26.334 93.5 47.001zM180.499 426.499c-9.66699 -14.333 -14.5 -37.833 -14.5 -70.5c0 -62 19 -93 57 -93c18.667 0 32.667 7 42 21s14 38.667 14 74c0 32 -4.5 55 -13.5 69
s-22.833 21 -41.5 21c-19.333 0 -33.833 -7.16699 -43.5 -21.5zM117.999 625.999l-52 54l118 139h90l118 -139l-52 -54l-111 91z" />
    <glyph glyph-name="Gbreve" unicode="&#x11e;" horiz-adv-x="545" 
d="M508 626l-75.002 -78.999c-20.667 17.333 -39.5 29.833 -56.5 37.5s-36.5 11.5 -58.5 11.5c-42.667 0 -74.667 -18.333 -96 -55s-32 -101.334 -32 -194.001c0 -65.333 3.66699 -116 11 -152s18.333 -61 33 -75s34 -21 58 -21c24.667 0 47.667 7 69 21v166h-66l-15 111
h229v-342c-30 -22 -64 -39.333 -102 -52s-75.333 -19 -112 -19c-91.333 0 -158.666 29.333 -201.999 88s-65 150.334 -65 275.001c0 80.667 12.167 148.167 36.5 202.5s57.833 94.666 100.5 120.999s91.334 39.5 146.001 39.5c75.333 0 141 -28 197 -84zM190.998 794.501
c-24.667 28.333 -38.999 66.5 -42.999 114.5l79 16c10.667 -45.333 33.667 -68 69 -68c18 0 32.667 5.83301 44 17.5s19 28.5 23 50.5l80 -16c-4 -48 -18.333 -86.167 -43 -114.5s-59.334 -42.5 -104.001 -42.5c-45.333 0 -80.333 14.167 -105 42.5z" />
    <glyph glyph-name="gbreve" unicode="&#x11f;" horiz-adv-x="454" 
d="M460 501c-24.667 -13.333 -66.001 -20.001 -124.001 -20.001c29.333 -13.333 51 -31.166 65 -53.499s21 -50.5 21 -84.5c0 -52.667 -17.167 -95.334 -51.5 -128.001s-81.166 -49 -140.499 -49c-18.667 0 -34.667 2 -48 6c-10.667 -7.33301 -16 -18.666 -16 -33.999
c0 -11.333 3.5 -20 10.5 -26s19.833 -9 38.5 -9h54c57.333 0 102.166 -14 134.499 -42s48.5 -64 48.5 -108c0 -52.667 -20.5 -94.834 -61.5 -126.501s-99.5 -47.5 -175.5 -47.5c-82 0 -138.667 14.333 -170 43s-47 71 -47 127h134c0 -25.333 5.83301 -43.5 17.5 -54.5
s33.834 -16.5 66.501 -16.5c57.333 0 86 21.333 86 64c0 19.333 -5.5 33.833 -16.5 43.5s-27.833 14.5 -50.5 14.5h-40c-52.667 0 -91 9.16699 -115 27.5s-36 43.5 -36 75.5c0 19.333 5 37.5 15 54.5s23.667 31.5 41 43.5c-28.667 18 -49.5 39 -62.5 63s-19.5 54 -19.5 90
c0 60 18.333 107 55 141s86.667 51 150 51c42 0 77.5 5.33301 106.5 16s60.167 26.334 93.5 47.001zM180.499 426.499c-9.66699 -14.333 -14.5 -37.833 -14.5 -70.5c0 -62 19 -93 57 -93c18.667 0 32.667 7 42 21s14 38.667 14 74c0 32 -4.5 55 -13.5 69
s-22.833 21 -41.5 21c-19.333 0 -33.833 -7.16699 -43.5 -21.5zM124.499 678.499c-25 29.667 -39.166 70.834 -42.499 123.501l79 15c10.667 -53.333 33.667 -80 69 -80s57.666 26.667 66.999 80l80 -15c-3.33301 -52.667 -17.333 -93.834 -42 -123.501
s-59.667 -44.5 -105 -44.5s-80.5 14.833 -105.5 44.5z" />
    <glyph glyph-name="Gdotaccent" unicode="&#x120;" horiz-adv-x="545" 
d="M508 626l-75.002 -78.999c-20.667 17.333 -39.5 29.833 -56.5 37.5s-36.5 11.5 -58.5 11.5c-42.667 0 -74.667 -18.333 -96 -55s-32 -101.334 -32 -194.001c0 -65.333 3.66699 -116 11 -152s18.333 -61 33 -75s34 -21 58 -21c24.667 0 47.667 7 69 21v166h-66l-15 111
h229v-342c-30 -22 -64 -39.333 -102 -52s-75.333 -19 -112 -19c-91.333 0 -158.666 29.333 -201.999 88s-65 150.334 -65 275.001c0 80.667 12.167 148.167 36.5 202.5s57.833 94.666 100.5 120.999s91.334 39.5 146.001 39.5c75.333 0 141 -28 197 -84zM356.498 908.501
c15.667 -16.333 23.5 -37.166 23.5 -62.499c0 -24.667 -8 -45.167 -24 -61.5s-36.667 -24.5 -62 -24.5s-46 8.16699 -62 24.5s-24 36.833 -24 61.5c0 25.333 8 46.166 24 62.499s36.667 24.5 62 24.5c26 0 46.833 -8.16699 62.5 -24.5z" />
    <glyph glyph-name="gdotaccent" unicode="&#x121;" horiz-adv-x="454" 
d="M460 501c-24.667 -13.333 -66.001 -20.001 -124.001 -20.001c29.333 -13.333 51 -31.166 65 -53.499s21 -50.5 21 -84.5c0 -52.667 -17.167 -95.334 -51.5 -128.001s-81.166 -49 -140.499 -49c-18.667 0 -34.667 2 -48 6c-10.667 -7.33301 -16 -18.666 -16 -33.999
c0 -11.333 3.5 -20 10.5 -26s19.833 -9 38.5 -9h54c57.333 0 102.166 -14 134.499 -42s48.5 -64 48.5 -108c0 -52.667 -20.5 -94.834 -61.5 -126.501s-99.5 -47.5 -175.5 -47.5c-82 0 -138.667 14.333 -170 43s-47 71 -47 127h134c0 -25.333 5.83301 -43.5 17.5 -54.5
s33.834 -16.5 66.501 -16.5c57.333 0 86 21.333 86 64c0 19.333 -5.5 33.833 -16.5 43.5s-27.833 14.5 -50.5 14.5h-40c-52.667 0 -91 9.16699 -115 27.5s-36 43.5 -36 75.5c0 19.333 5 37.5 15 54.5s23.667 31.5 41 43.5c-28.667 18 -49.5 39 -62.5 63s-19.5 54 -19.5 90
c0 60 18.333 107 55 141s86.667 51 150 51c42 0 77.5 5.33301 106.5 16s60.167 26.334 93.5 47.001zM180.499 426.499c-9.66699 -14.333 -14.5 -37.833 -14.5 -70.5c0 -62 19 -93 57 -93c18.667 0 32.667 7 42 21s14 38.667 14 74c0 32 -4.5 55 -13.5 69
s-22.833 21 -41.5 21c-19.333 0 -33.833 -7.16699 -43.5 -21.5zM290.499 782.499c15.667 -16.333 23.5 -37.166 23.5 -62.499c0 -24.667 -8 -45.167 -24 -61.5s-36.667 -24.5 -62 -24.5s-46 8.16699 -62 24.5s-24 36.833 -24 61.5c0 25.333 8 46.166 24 62.499
s36.667 24.5 62 24.5c26 0 46.833 -8.16699 62.5 -24.5z" />
    <glyph glyph-name="Gcommaaccent" unicode="&#x122;" horiz-adv-x="545" 
d="M508 626l-75.002 -78.999c-20.667 17.333 -39.5 29.833 -56.5 37.5s-36.5 11.5 -58.5 11.5c-42.667 0 -74.667 -18.333 -96 -55s-32 -101.334 -32 -194.001c0 -65.333 3.66699 -116 11 -152s18.333 -61 33 -75s34 -21 58 -21c24.667 0 47.667 7 69 21v166h-66l-15 111
h229v-342c-30 -22 -64 -39.333 -102 -52s-75.333 -19 -112 -19c-91.333 0 -158.666 29.333 -201.999 88s-65 150.334 -65 275.001c0 80.667 12.167 148.167 36.5 202.5s57.833 94.666 100.5 120.999s91.334 39.5 146.001 39.5c75.333 0 141 -28 197 -84zM345.998 -89.999
c13.333 -14 20.001 -32 20.001 -54c0 -11.333 -1.5 -22.5 -4.5 -33.5s-8.83301 -27.5 -17.5 -49.5l-40 -95h-73l26 116c-24 14.667 -36 35.334 -36 62.001c0 21.333 6.83301 39.166 20.5 53.499s31.167 21.5 52.5 21.5s38.666 -7 51.999 -21z" />
    <glyph glyph-name="gcommaaccent" unicode="&#x123;" horiz-adv-x="454" 
d="M460 501c-24.667 -13.333 -66.001 -20.001 -124.001 -20.001c29.333 -13.333 51 -31.166 65 -53.499s21 -50.5 21 -84.5c0 -52.667 -17.167 -95.334 -51.5 -128.001s-81.166 -49 -140.499 -49c-18.667 0 -34.667 2 -48 6c-10.667 -7.33301 -16 -18.666 -16 -33.999
c0 -11.333 3.5 -20 10.5 -26s19.833 -9 38.5 -9h54c57.333 0 102.166 -14 134.499 -42s48.5 -64 48.5 -108c0 -52.667 -20.5 -94.834 -61.5 -126.501s-99.5 -47.5 -175.5 -47.5c-82 0 -138.667 14.333 -170 43s-47 71 -47 127h134c0 -25.333 5.83301 -43.5 17.5 -54.5
s33.834 -16.5 66.501 -16.5c57.333 0 86 21.333 86 64c0 19.333 -5.5 33.833 -16.5 43.5s-27.833 14.5 -50.5 14.5h-40c-52.667 0 -91 9.16699 -115 27.5s-36 43.5 -36 75.5c0 19.333 5 37.5 15 54.5s23.667 31.5 41 43.5c-28.667 18 -49.5 39 -62.5 63s-19.5 54 -19.5 90
c0 60 18.333 107 55 141s86.667 51 150 51c42 0 77.5 5.33301 106.5 16s60.167 26.334 93.5 47.001zM180.499 426.499c-9.66699 -14.333 -14.5 -37.833 -14.5 -70.5c0 -62 19 -93 57 -93c18.667 0 32.667 7 42 21s14 38.667 14 74c0 32 -4.5 55 -13.5 69
s-22.833 21 -41.5 21c-19.333 0 -33.833 -7.16699 -43.5 -21.5zM174.999 598.999c-13.333 14 -20.001 32 -20.001 54c0 11.333 1.5 22.5 4.5 33.5s8.83301 27.5 17.5 49.5l40 95h73l-26 -116c24 -14.667 36 -35.334 36 -62.001c0 -21.333 -6.83301 -39.166 -20.5 -53.499
s-31.167 -21.5 -52.5 -21.5s-38.666 7 -51.999 21z" />
    <glyph glyph-name="Hcircumflex" unicode="&#x124;" horiz-adv-x="551" 
d="M348 0v299h-145v-299h-157v693h157v-271h145v271h157v-693h-157zM165 760l-52 54l118 131h90l118 -131l-52 -54l-111 83z" />
    <glyph glyph-name="hcircumflex" unicode="&#x125;" horiz-adv-x="480" 
d="M406.5 507c21.667 -27.333 32.501 -64 32.501 -110v-397h-151v381c0 34.667 -9.66699 52 -29 52s-40.333 -21.333 -63 -64v-369h-151v742l151 16v-283c16.667 25.333 34.667 43.833 54 55.5s41.666 17.5 66.999 17.5c38 0 67.833 -13.667 89.5 -41zM129.001 809l-52 54
l118 131h90l118 -131l-52 -54l-111 83z" />
    <glyph glyph-name="Hbar" unicode="&#x126;" horiz-adv-x="562" 
d="M552 590v-89h-41v-501h-157v299h-145v-299h-157v501h-42v89h42v103h157v-103h145v103h157v-103h41zM354 422v79h-145v-79h145z" />
    <glyph glyph-name="hbar" unicode="&#x127;" horiz-adv-x="485" 
d="M411.5 507c21.667 -27.333 32.501 -64 32.501 -110v-397h-151v381c0 34.667 -9.66699 52 -29 52s-40.333 -21.333 -63 -64v-369h-151v599h-46v89h46v54l151 16v-70h103v-89h-103v-124c16.667 25.333 34.667 43.833 54 55.5s41.666 17.5 66.999 17.5
c38 0 67.833 -13.667 89.5 -41z" />
    <glyph glyph-name="Itilde" unicode="&#x128;" horiz-adv-x="250" 
d="M203 693v-693h-157v693h157zM143.5 774.5c-9 4.33301 -19.168 10.168 -30.501 17.501c-14 10.667 -25.667 16 -35 16c-8.66699 0 -16 -3.16699 -22 -9.5s-13 -16.833 -21 -31.5l-70 33c10.667 33.333 25.667 60.166 45 80.499s41.333 30.5 66 30.5c12 0 22.333 -2 31 -6
s19.334 -10 32.001 -18c7.33301 -6 13.666 -10.333 18.999 -13s11 -4 17 -4c8.66699 0 15.834 3.16699 21.501 9.5s12.167 16.5 19.5 30.5l71 -32c-10.667 -34 -25.667 -60.833 -45 -80.5s-41.333 -29.5 -66 -29.5c-12.667 0 -23.5 2.16699 -32.5 6.5z" />
    <glyph glyph-name="itilde" unicode="&#x129;" horiz-adv-x="240" 
d="M196 531v-531h-151v531h151zM137.5 648.5c-9 4.33301 -19.168 10.168 -30.501 17.501c-14 10.667 -25.667 16 -35 16c-8.66699 0 -16 -3.16699 -22 -9.5s-13 -16.833 -21 -31.5l-70 33c10.667 33.333 25.667 60.166 45 80.499s41.333 30.5 66 30.5c12 0 22.333 -2 31 -6
s19.334 -10 32.001 -18c7.33301 -6 13.666 -10.333 18.999 -13s11 -4 17 -4c8.66699 0 15.834 3.16699 21.501 9.5s12.167 16.5 19.5 30.5l71 -32c-10.667 -34 -25.667 -60.833 -45 -80.5s-41.333 -29.5 -66 -29.5c-12.667 0 -23.5 2.16699 -32.5 6.5z" />
    <glyph glyph-name="Imacron" unicode="&#x12a;" horiz-adv-x="250" 
d="M203 693v-693h-157v693h157zM255 784h-260v102h260v-102z" />
    <glyph glyph-name="imacron" unicode="&#x12b;" horiz-adv-x="240" 
d="M196 531v-531h-151v531h151zM250 658h-260v102h260v-102z" />
    <glyph glyph-name="Ibreve" unicode="&#x12c;" horiz-adv-x="250" 
d="M203 693v-693h-157v693h157zM21 794.5c-24.667 28.333 -38.999 66.5 -42.999 114.5l79 16c10.667 -45.333 33.667 -68 69 -68c18 0 32.667 5.83301 44 17.5s19 28.5 23 50.5l80 -16c-4 -48 -18.333 -86.167 -43 -114.5s-59.334 -42.5 -104.001 -42.5
c-45.333 0 -80.333 14.167 -105 42.5z" />
    <glyph glyph-name="ibreve" unicode="&#x12d;" horiz-adv-x="240" 
d="M196 531v-531h-151v531h151zM15.5 678.5c-25 29.667 -39.166 70.834 -42.499 123.501l79 15c10.667 -53.333 33.667 -80 69 -80s57.666 26.667 66.999 80l80 -15c-3.33301 -52.667 -17.333 -93.834 -42 -123.501s-59.667 -44.5 -105 -44.5s-80.5 14.833 -105.5 44.5z" />
    <glyph glyph-name="Iogonek" unicode="&#x12e;" horiz-adv-x="250" 
d="M203 693l-0.000976562 -692.998h-37c-36.667 -17.333 -61.667 -34.333 -75 -51s-20 -34.334 -20 -53.001c0 -30.667 14.667 -46 44 -46c15.333 0 31.333 2.33301 48 7l-9 -93c-19.333 -5.33301 -38.666 -8 -57.999 -8c-38.667 0 -70.167 10 -94.5 30s-36.5 48 -36.5 84
c0 53.333 27 97.666 81 132.999v690h157z" />
    <glyph glyph-name="iogonek" unicode="&#x12f;" horiz-adv-x="240" 
d="M57 658.5c-16 16.333 -24 36.833 -24 61.5c0 25.333 8 46.166 24 62.499s36.667 24.5 62 24.5c26 0 46.833 -8.16699 62.5 -24.5s23.5 -37.166 23.5 -62.499c0 -24.667 -8 -45.167 -24 -61.5s-36.667 -24.5 -62 -24.5s-46 8.16699 -62 24.5zM45 531l150.999 0.000976562
v-531h-28c-36.667 -17.333 -61.667 -34.333 -75 -51s-20 -34.334 -20 -53.001c0 -30.667 14.667 -46 44 -46c15.333 0 31.333 2.33301 48 7l-9 -93c-19.333 -5.33301 -38.666 -8 -57.999 -8c-38.667 0 -70.167 10 -94.5 30s-36.5 48 -36.5 84c0 52 26 95.667 78 131v530z
" />
    <glyph glyph-name="Idotaccent" unicode="&#x130;" horiz-adv-x="250" 
d="M203 693v-693h-157v693h157zM186.5 908.5c15.667 -16.333 23.5 -37.166 23.5 -62.499c0 -24.667 -8 -45.167 -24 -61.5s-36.667 -24.5 -62 -24.5s-46 8.16699 -62 24.5s-24 36.833 -24 61.5c0 25.333 8 46.166 24 62.499s36.667 24.5 62 24.5
c26 0 46.833 -8.16699 62.5 -24.5z" />
    <glyph glyph-name="dotlessi" unicode="&#x131;" horiz-adv-x="240" 
d="M196 531v-531h-151v531h151z" />
    <glyph glyph-name="IJ" unicode="&#x132;" horiz-adv-x="517" 
d="M203 693v-693h-157v693h157zM473 104c0 -53.333 -9 -97.6689 -27 -133.002s-41 -63.166 -69 -83.499s-61.667 -38.166 -101 -53.499l-41 110c24 12 41.667 24.833 53 38.5s18.833 30 22.5 49s5.5 45.167 5.5 78.5v583h157v-589z" />
    <glyph glyph-name="ij" unicode="&#x133;" horiz-adv-x="480" 
d="M196 531v-531h-151v531h151zM181.5 782.5c15.667 -16.333 23.5 -37.166 23.5 -62.499c0 -24.667 -8 -45.167 -24 -61.5s-36.667 -24.5 -62 -24.5s-46 8.16699 -62 24.5s-24 36.833 -24 61.5c0 25.333 8 46.166 24 62.499s36.667 24.5 62 24.5
c26 0 46.833 -8.16699 62.5 -24.5zM436 38c0 -69.333 -16.498 -123 -49.498 -161s-80.167 -70.333 -141.5 -97l-51 109c21.333 12.667 38.166 24.667 50.499 36s22.166 25.833 29.499 43.5s11 40.167 11 67.5v495h151v-493zM421.502 782.5
c15.667 -16.333 23.5 -37.166 23.5 -62.499c0 -24.667 -8 -45.167 -24 -61.5s-36.667 -24.5 -62 -24.5s-46 8.16699 -62 24.5s-24 36.833 -24 61.5c0 25.333 8 46.166 24 62.499s36.667 24.5 62 24.5c26 0 46.833 -8.16699 62.5 -24.5z" />
    <glyph glyph-name="Jcircumflex" unicode="&#x134;" horiz-adv-x="267" 
d="M223 104c0 -53.333 -9 -97.6689 -27 -133.002s-41 -63.166 -69 -83.499s-61.667 -38.166 -101 -53.499l-41 110c24 12 41.667 24.833 53 38.5s18.833 30 22.5 49s5.5 45.167 5.5 78.5v583h157v-589zM34 759.997l-52 54l118 131h90l118 -131l-52 -54l-111 83z" />
    <glyph glyph-name="jcircumflex" unicode="&#x135;" horiz-adv-x="240" 
d="M196 38c0 -69.333 -16.498 -123 -49.498 -161s-80.167 -70.333 -141.5 -97l-51 109c21.333 12.667 38.166 24.667 50.499 36s22.166 25.833 29.499 43.5s11 40.167 11 67.5v495h151v-493zM9.00195 626l-52 54l118 139h90l118 -139l-52 -54l-111 91z" />
    <glyph glyph-name="Kcommaaccent" unicode="&#x136;" horiz-adv-x="540" 
d="M203 693v-693h-157v693h157zM537 693l-172 -312l187 -381h-171l-173 370l174 323h155zM326 -90c13.333 -14 20.001 -32 20.001 -54c0 -11.333 -1.5 -22.5 -4.5 -33.5s-8.83301 -27.5 -17.5 -49.5l-40 -95h-73l26 116c-24 14.667 -36 35.334 -36 62.001
c0 21.333 6.83301 39.166 20.5 53.499s31.167 21.5 52.5 21.5s38.666 -7 51.999 -21z" />
    <glyph glyph-name="kcommaaccent" unicode="&#x137;" horiz-adv-x="474" 
d="M196 758v-758h-151v742zM473 531l-126 -234l134 -297h-159l-123 290l130 241h144zM290 -90c13.333 -14 20.001 -32 20.001 -54c0 -11.333 -1.5 -22.5 -4.5 -33.5s-8.83301 -27.5 -17.5 -49.5l-40 -95h-73l26 116c-24 14.667 -36 35.334 -36 62.001
c0 21.333 6.83301 39.166 20.5 53.499s31.167 21.5 52.5 21.5s38.666 -7 51.999 -21z" />
    <glyph glyph-name="kgreenlandic" unicode="&#x138;" horiz-adv-x="474" 
d="M196 531v-531h-151v531h151zM473 531l-126 -237l134 -294h-159l-123 287l130 244h144z" />
    <glyph glyph-name="Lacute" unicode="&#x139;" horiz-adv-x="426" 
d="M203 693v-569h218l-16 -124h-359v693h157zM188 945l57 -109l-203 -85l-38 74z" />
    <glyph glyph-name="lacute" unicode="&#x13a;" horiz-adv-x="254" 
d="M75 20c-23.333 24.667 -34.999 58.333 -34.999 101v621l151 16v-630c0 -16.667 7 -25 21 -25c4 0 10 1 18 3l27 -104c-10.667 -5.33301 -23.334 -9.83301 -38.001 -13.5s-30 -5.5 -46 -5.5c-42 0 -74.667 12.333 -98 37zM178.001 993.999l57 -109l-203 -85l-38 74z" />
    <glyph glyph-name="Lcommaaccent" unicode="&#x13b;" horiz-adv-x="426" 
d="M203 693v-569h218l-16 -124h-359v693h157zM278 -90c13.333 -14 20.001 -32 20.001 -54c0 -11.333 -1.5 -22.5 -4.5 -33.5s-8.83301 -27.5 -17.5 -49.5l-40 -95h-73l26 116c-24 14.667 -36 35.334 -36 62.001c0 21.333 6.83301 39.166 20.5 53.499s31.167 21.5 52.5 21.5
s38.666 -7 51.999 -21z" />
    <glyph glyph-name="lcommaaccent" unicode="&#x13c;" horiz-adv-x="254" 
d="M75 20c-23.333 24.667 -34.999 58.333 -34.999 101v621l151 16v-630c0 -16.667 7 -25 21 -25c4 0 10 1 18 3l27 -104c-10.667 -5.33301 -23.334 -9.83301 -38.001 -13.5s-30 -5.5 -46 -5.5c-42 0 -74.667 12.333 -98 37zM207.001 -90.001
c13.333 -14 20.001 -32 20.001 -54c0 -11.333 -1.5 -22.5 -4.5 -33.5s-8.83301 -27.5 -17.5 -49.5l-40 -95h-73l26 116c-24 14.667 -36 35.334 -36 62.001c0 21.333 6.83301 39.166 20.5 53.499s31.167 21.5 52.5 21.5s38.666 -7 51.999 -21z" />
    <glyph glyph-name="Lcaron" unicode="&#x13d;" horiz-adv-x="426" 
d="M203 693v-569h218l-16 -124h-359v693h157zM317 480l46 212l-109 17l-20 -216z" />
    <glyph glyph-name="lcaron" unicode="&#x13e;" horiz-adv-x="325" 
d="M75 20c-23.333 24.667 -34.999 58.333 -34.999 101v621l151 16v-630c0 -16.667 7 -25 21 -25c4 0 10 1 18 3l27 -104c-10.667 -5.33301 -23.334 -9.83301 -38.001 -13.5s-30 -5.5 -46 -5.5c-42 0 -74.667 12.333 -98 37zM303.001 528.999l46 212l-109 17l-20 -216z" />
    <glyph glyph-name="Ldot" unicode="&#x13f;" horiz-adv-x="426" 
d="M203 693v-569h218l-16 -124h-359v693h157zM395.5 459.5c15.667 -16.333 23.5 -37.166 23.5 -62.499c0 -24.667 -8 -45.167 -24 -61.5s-36.667 -24.5 -62 -24.5s-46 8.16699 -62 24.5s-24 36.833 -24 61.5c0 25.333 8 46.166 24 62.499s36.667 24.5 62 24.5
c26 0 46.833 -8.16699 62.5 -24.5z" />
    <glyph glyph-name="ldot" unicode="&#x140;" horiz-adv-x="395" 
d="M75 20c-23.333 24.667 -34.999 58.333 -34.999 101v621l151 16v-630c0 -16.667 7 -25 21 -25c4 0 10 1 18 3l27 -104c-10.667 -5.33301 -23.334 -9.83301 -38.001 -13.5s-30 -5.5 -46 -5.5c-42 0 -74.667 12.333 -98 37zM375.501 438.499
c15.667 -16.333 23.5 -37.166 23.5 -62.499c0 -24.667 -8 -45.167 -24 -61.5s-36.667 -24.5 -62 -24.5s-46 8.16699 -62 24.5s-24 36.833 -24 61.5c0 25.333 8 46.166 24 62.499s36.667 24.5 62 24.5c26 0 46.833 -8.16699 62.5 -24.5z" />
    <glyph glyph-name="Lslash" unicode="&#x141;" horiz-adv-x="466" 
d="M244 124h218l-16 -124h-359v227l-36 -26l-49 84l79 58l6 4v346h157v-234l89 63l49 -83l-138 -99v-216z" />
    <glyph glyph-name="lslash" unicode="&#x142;" horiz-adv-x="312" 
d="M264 106l27.001 -104.001c-10.667 -5.33301 -23.334 -9.83301 -38.001 -13.5s-30 -5.5 -46 -5.5c-42 0 -74.667 12.333 -98 37s-35 58.334 -35 101.001v150l-32 -22l-49 80l80 58l1 1v354l151 16v-270l46 31l49 -79l-95 -65v-247c0 -16.667 7 -25 21 -25c4 0 10 1 18 3z
" />
    <glyph glyph-name="Nacute" unicode="&#x143;" horiz-adv-x="547" 
d="M501 0h-194l-146 549c6.66699 -58 11.667 -106.5 15 -145.5s5 -86.167 5 -141.5v-262h-135v693h194l146 -549c-14 92 -21 178.333 -21 259v290h136v-693zM338 945l57 -109l-203 -85l-38 74z" />
    <glyph glyph-name="nacute" unicode="&#x144;" horiz-adv-x="480" 
d="M406.5 507c21.667 -27.333 32.5 -64 32.5 -110v-397h-151v381c0 34.667 -9.66699 52 -29 52s-40.333 -21.333 -63 -64v-369h-151v531h131l11 -63c17.333 26.667 36.333 46.667 57 60s45 20 73 20c38 0 67.833 -13.667 89.5 -41zM298 825l59 -107l-201 -94l-41 73z" />
    <glyph glyph-name="Ncommaaccent" unicode="&#x145;" horiz-adv-x="547" 
d="M501 0h-194l-146 549c6.66699 -58 11.667 -106.5 15 -145.5s5 -86.167 5 -141.5v-262h-135v693h194l146 -549c-14 92 -21 178.333 -21 259v290h136v-693zM326 -90c13.333 -14 20.001 -32 20.001 -54c0 -11.333 -1.5 -22.5 -4.5 -33.5s-8.83301 -27.5 -17.5 -49.5l-40 -95
h-73l26 116c-24 14.667 -36 35.334 -36 62.001c0 21.333 6.83301 39.166 20.5 53.499s31.167 21.5 52.5 21.5s38.666 -7 51.999 -21z" />
    <glyph glyph-name="ncommaaccent" unicode="&#x146;" horiz-adv-x="480" 
d="M406.5 507c21.667 -27.333 32.5 -64 32.5 -110v-397h-151v381c0 34.667 -9.66699 52 -29 52s-40.333 -21.333 -63 -64v-369h-151v531h131l11 -63c17.333 26.667 36.333 46.667 57 60s45 20 73 20c38 0 67.833 -13.667 89.5 -41zM292 -90
c13.333 -14 20.001 -32 20.001 -54c0 -11.333 -1.5 -22.5 -4.5 -33.5s-8.83301 -27.5 -17.5 -49.5l-40 -95h-73l26 116c-24 14.667 -36 35.334 -36 62.001c0 21.333 6.83301 39.166 20.5 53.499s31.167 21.5 52.5 21.5s38.666 -7 51.999 -21z" />
    <glyph glyph-name="Ncaron" unicode="&#x147;" horiz-adv-x="547" 
d="M501 0h-194l-146 549c6.66699 -58 11.667 -106.5 15 -145.5s5 -86.167 5 -141.5v-262h-135v693h194l146 -549c-14 92 -21 178.333 -21 259v290h136v-693zM386 936l52 -55l-118 -131h-90l-118 131l52 55l111 -84z" />
    <glyph glyph-name="ncaron" unicode="&#x148;" horiz-adv-x="480" 
d="M406.5 507c21.667 -27.333 32.5 -64 32.5 -110v-397h-151v381c0 34.667 -9.66699 52 -29 52s-40.333 -21.333 -63 -64v-369h-151v531h131l11 -63c17.333 26.667 36.333 46.667 57 60s45 20 73 20c38 0 67.833 -13.667 89.5 -41zM355 807l52 -55l-118 -139h-90l-118 139
l52 55l111 -93z" />
    <glyph glyph-name="napostrophe" unicode="&#x149;" horiz-adv-x="596" 
d="M138.5 740.5c11 -12.333 16.499 -28.168 16.499 -47.501c0 -10 -1.33301 -20 -4 -30s-8 -25 -16 -45l-32 -83h-63l18 102c-18.667 14 -28 32.667 -28 56c0 18.667 5.83301 34.334 17.5 47.001s26.834 19 45.501 19c19.333 0 34.5 -6.16699 45.5 -18.5zM522.499 506.998
c21.667 -27.333 32.5 -64 32.5 -110v-397h-151v381c0 34.667 -9.66699 52 -29 52s-40.333 -21.333 -63 -64v-369h-151v531h131l11 -63c17.333 26.667 36.333 46.667 57 60s45 20 73 20c38 0 67.833 -13.667 89.5 -41z" />
    <glyph glyph-name="Eng" unicode="&#x14a;" horiz-adv-x="547" 
d="M501 693l-0.000976562 -741c0 -56.667 -16.167 -99.667 -48.5 -129s-75.5 -44 -129.5 -44c-49.333 0 -91.666 14 -126.999 42l52 89c10 -6 19 -10.167 27 -12.5s17.333 -3.5 28 -3.5c27.333 0 41 16.333 41 49v57h-37l-146 549c6.66699 -58 11.667 -106.5 15 -145.5
s5 -86.167 5 -141.5v-262h-135v693h194l146 -549c-14 92 -21 178.333 -21 259v290h136z" />
    <glyph glyph-name="eng" unicode="&#x14b;" horiz-adv-x="480" 
d="M406.5 507c21.667 -27.333 32.501 -64 32.501 -110v-450c0 -54 -15.833 -95.5 -47.5 -124.5s-73.167 -43.5 -124.5 -43.5c-50.667 0 -93.334 14 -128.001 42l52 85c10.667 -6 20 -10.167 28 -12.5s17 -3.5 27 -3.5c28 0 42 16.333 42 49v442c0 34.667 -9.66699 52 -29 52
s-40.333 -21.333 -63 -64v-369h-151v531h131l11 -63c17.333 26.667 36.333 46.667 57 60s45 20 73 20c38 0 67.833 -13.667 89.5 -41z" />
    <glyph glyph-name="Omacron" unicode="&#x14c;" horiz-adv-x="581" 
d="M485.5 619.5c45 -60.333 67.5 -151.167 67.5 -272.5c0 -120 -22.667 -210.667 -68 -272s-110.333 -92 -195 -92s-149.5 30.167 -194.5 90.5s-67.5 151.5 -67.5 273.5c0 120 22.5 210.5 67.5 271.5s109.833 91.5 194.5 91.5c85.333 0 150.5 -30.167 195.5 -90.5z
M214.5 538.499c-15.667 -37.667 -23.498 -101.499 -23.498 -191.499c0 -62.667 3.5 -112 10.5 -148s17.667 -61.833 32 -77.5s33.166 -23.5 56.499 -23.5c24 0 43.167 7.66699 57.5 23s25 41.166 32 77.499s10.5 85.833 10.5 148.5c0 90.667 -7.83301 154.667 -23.5 192
s-41.167 56 -76.5 56c-34.667 0 -59.834 -18.833 -75.501 -56.5zM420.002 784h-260v102h260v-102z" />
    <glyph glyph-name="omacron" unicode="&#x14d;" horiz-adv-x="494" 
d="M409.5 477c39 -47.333 58.5 -117.999 58.5 -211.999c0 -90 -19.5 -159.5 -58.5 -208.5s-93.167 -73.5 -162.5 -73.5s-123.5 23.833 -162.5 71.5s-58.5 118.167 -58.5 211.5c0 91.333 19.5 161.166 58.5 209.499s93.167 72.5 162.5 72.5s123.5 -23.667 162.5 -71z
M196.5 397.501c-10.333 -25.667 -15.5 -69.5 -15.5 -131.5c0 -64 5.16699 -108.667 15.5 -134s27.166 -38 50.499 -38s40.166 12.833 50.499 38.5s15.5 69.834 15.5 132.501c0 63.333 -5.16699 107.666 -15.5 132.999s-27.166 38 -50.499 38s-40.166 -12.833 -50.499 -38.5z
M377 658.001h-260v102h260v-102z" />
    <glyph glyph-name="Obreve" unicode="&#x14e;" horiz-adv-x="581" 
d="M485.5 619.5c45 -60.333 67.5 -151.167 67.5 -272.5c0 -120 -22.667 -210.667 -68 -272s-110.333 -92 -195 -92s-149.5 30.167 -194.5 90.5s-67.5 151.5 -67.5 273.5c0 120 22.5 210.5 67.5 271.5s109.833 91.5 194.5 91.5c85.333 0 150.5 -30.167 195.5 -90.5z
M214.5 538.499c-15.667 -37.667 -23.498 -101.499 -23.498 -191.499c0 -62.667 3.5 -112 10.5 -148s17.667 -61.833 32 -77.5s33.166 -23.5 56.499 -23.5c24 0 43.167 7.66699 57.5 23s25 41.166 32 77.499s10.5 85.833 10.5 148.5c0 90.667 -7.83301 154.667 -23.5 192
s-41.167 56 -76.5 56c-34.667 0 -59.834 -18.833 -75.501 -56.5zM186.002 794.5c-24.667 28.333 -38.999 66.5 -42.999 114.5l79 16c10.667 -45.333 33.667 -68 69 -68c18 0 32.667 5.83301 44 17.5s19 28.5 23 50.5l80 -16c-4 -48 -18.333 -86.167 -43 -114.5
s-59.334 -42.5 -104.001 -42.5c-45.333 0 -80.333 14.167 -105 42.5z" />
    <glyph glyph-name="obreve" unicode="&#x14f;" horiz-adv-x="494" 
d="M409.5 477c39 -47.333 58.5 -117.999 58.5 -211.999c0 -90 -19.5 -159.5 -58.5 -208.5s-93.167 -73.5 -162.5 -73.5s-123.5 23.833 -162.5 71.5s-58.5 118.167 -58.5 211.5c0 91.333 19.5 161.166 58.5 209.499s93.167 72.5 162.5 72.5s123.5 -23.667 162.5 -71z
M196.5 397.501c-10.333 -25.667 -15.5 -69.5 -15.5 -131.5c0 -64 5.16699 -108.667 15.5 -134s27.166 -38 50.499 -38s40.166 12.833 50.499 38.5s15.5 69.834 15.5 132.501c0 63.333 -5.16699 107.666 -15.5 132.999s-27.166 38 -50.499 38s-40.166 -12.833 -50.499 -38.5z
M142.5 678.501c-25 29.667 -39.166 70.834 -42.499 123.501l79 15c10.667 -53.333 33.667 -80 69 -80s57.666 26.667 66.999 80l80 -15c-3.33301 -52.667 -17.333 -93.834 -42 -123.501s-59.667 -44.5 -105 -44.5s-80.5 14.833 -105.5 44.5z" />
    <glyph glyph-name="Ohungarumlaut" unicode="&#x150;" horiz-adv-x="581" 
d="M485.5 619.5c45 -60.333 67.5 -151.167 67.5 -272.5c0 -120 -22.667 -210.667 -68 -272s-110.333 -92 -195 -92s-149.5 30.167 -194.5 90.5s-67.5 151.5 -67.5 273.5c0 120 22.5 210.5 67.5 271.5s109.833 91.5 194.5 91.5c85.333 0 150.5 -30.167 195.5 -90.5z
M214.5 538.499c-15.667 -37.667 -23.498 -101.499 -23.498 -191.499c0 -62.667 3.5 -112 10.5 -148s17.667 -61.833 32 -77.5s33.166 -23.5 56.499 -23.5c24 0 43.167 7.66699 57.5 23s25 41.166 32 77.499s10.5 85.833 10.5 148.5c0 90.667 -7.83301 154.667 -23.5 192
s-41.167 56 -76.5 56c-34.667 0 -59.834 -18.833 -75.501 -56.5zM253.002 981l96 -47l-99 -177l-72 30zM404.002 981l94 -50l-105 -179l-70 35z" />
    <glyph glyph-name="ohungarumlaut" unicode="&#x151;" horiz-adv-x="494" 
d="M409.5 477c39 -47.333 58.5 -117.999 58.5 -211.999c0 -90 -19.5 -159.5 -58.5 -208.5s-93.167 -73.5 -162.5 -73.5s-123.5 23.833 -162.5 71.5s-58.5 118.167 -58.5 211.5c0 91.333 19.5 161.166 58.5 209.499s93.167 72.5 162.5 72.5s123.5 -23.667 162.5 -71z
M196.5 397.501c-10.333 -25.667 -15.5 -69.5 -15.5 -131.5c0 -64 5.16699 -108.667 15.5 -134s27.166 -38 50.499 -38s40.166 12.833 50.499 38.5s15.5 69.834 15.5 132.501c0 63.333 -5.16699 107.666 -15.5 132.999s-27.166 38 -50.499 38s-40.166 -12.833 -50.499 -38.5z
M202 855.001l96 -47l-99 -177l-72 30zM353 855.001l94 -50l-105 -179l-70 35z" />
    <glyph glyph-name="OE" unicode="&#x152;" horiz-adv-x="751" 
d="M477 114l251 0.000976562v-114h-366c-26 -11.333 -54.667 -17 -86 -17c-77.333 0 -138 31.333 -182 94s-66 152.667 -66 270c0 116.667 22 206.334 66 269.001s104.667 94 182 94c32 0 61 -5.66699 87 -17h368l-16 -112h-239c31.333 -46.667 50 -104.334 56 -173.001h160
v-112h-159c-5.33301 -72.667 -24 -133.334 -56 -182.001zM352 154.001c14.667 37.333 22 101.668 22 193.001c0 90 -7.5 153.833 -22.5 191.5s-38.167 56.5 -69.5 56.5s-54.333 -18.833 -69 -56.5s-22 -101.5 -22 -191.5c0 -90.667 7.33301 -154.834 22 -192.501
s37.667 -56.5 69 -56.5c32 0 55.333 18.667 70 56z" />
    <glyph glyph-name="oe" unicode="&#x153;" horiz-adv-x="756" 
d="M732 221l-269 -0.000976562c3.33301 -46.667 12.666 -79.5 27.999 -98.5s36.333 -28.5 63 -28.5c18 0 35.333 3.5 52 10.5s34.667 17.833 54 32.5l62 -80c-49.333 -49.333 -109 -74 -179 -74c-64 0 -115.333 25.667 -154 77c-39.333 -51.333 -88.333 -77 -147 -77
c-67.333 0 -120.166 24.333 -158.499 73s-57.5 118.667 -57.5 210c0 88 19.5 157 58.5 207s92.167 75 159.5 75c58.667 0 107 -25 145 -75c39.333 50 87.666 75 144.999 75c60.667 0 109.334 -23.333 146.001 -70s55 -114 55 -202c0 -21.333 -1 -39.666 -3 -54.999z
M589 318.999c0 44 -4.5 76.167 -13.5 96.5s-24.5 30.5 -46.5 30.5c-20.667 0 -36.167 -10.167 -46.5 -30.5s-16.833 -54.833 -19.5 -103.5h126v7zM295.5 133.499c10.333 26.333 15.499 70.5 15.499 132.5c0 61.333 -5 105 -15 131s-26.333 39 -49 39
c-23.333 0 -40.166 -12.833 -50.499 -38.5s-15.5 -69.5 -15.5 -131.5c0 -63.333 5.16699 -107.833 15.5 -133.5s26.833 -38.5 49.5 -38.5s39.167 13.167 49.5 39.5z" />
    <glyph glyph-name="Racute" unicode="&#x154;" horiz-adv-x="517" 
d="M359 0l-113 267.001h-5h-38v-267h-157v693h185c172 0 258 -70 258 -210c0 -40.667 -8.5 -77.334 -25.5 -110.001s-43.5 -58 -79.5 -76l142 -297h-167zM235 376.001c33.333 0 57.334 8.5 72.001 25.5s22 44.167 22 81.5c0 34 -7.83301 59 -23.5 75s-40.834 24 -75.501 24
h-27v-206h32zM317.001 945.001l57 -109l-203 -85l-38 74z" />
    <glyph glyph-name="racute" unicode="&#x155;" horiz-adv-x="338" 
d="M344 538l-24.999 -145c-12 4 -24.333 6 -37 6c-24.667 0 -43.167 -9.5 -55.5 -28.5s-22.5 -47.5 -30.5 -85.5v-285h-151v531h131l11 -87c25.333 68 63.666 102 114.999 102c14 0 28 -2.66699 42 -8zM249.001 825l59 -107l-201 -94l-41 73z" />
    <glyph glyph-name="Rcommaaccent" unicode="&#x156;" horiz-adv-x="517" 
d="M359 0l-113 267.001h-5h-38v-267h-157v693h185c172 0 258 -70 258 -210c0 -40.667 -8.5 -77.334 -25.5 -110.001s-43.5 -58 -79.5 -76l142 -297h-167zM235 376.001c33.333 0 57.334 8.5 72.001 25.5s22 44.167 22 81.5c0 34 -7.83301 59 -23.5 75s-40.834 24 -75.501 24
h-27v-206h32zM313.001 -89.999c13.333 -14 20.001 -32 20.001 -54c0 -11.333 -1.5 -22.5 -4.5 -33.5s-8.83301 -27.5 -17.5 -49.5l-40 -95h-73l26 116c-24 14.667 -36 35.334 -36 62.001c0 21.333 6.83301 39.166 20.5 53.499s31.167 21.5 52.5 21.5s38.666 -7 51.999 -21z
" />
    <glyph glyph-name="rcommaaccent" unicode="&#x157;" horiz-adv-x="338" 
d="M344 538l-24.999 -145c-12 4 -24.333 6 -37 6c-24.667 0 -43.167 -9.5 -55.5 -28.5s-22.5 -47.5 -30.5 -85.5v-285h-151v531h131l11 -87c25.333 68 63.666 102 114.999 102c14 0 28 -2.66699 42 -8zM172.001 -90c13.333 -14 20.001 -32 20.001 -54
c0 -11.333 -1.5 -22.5 -4.5 -33.5s-8.83301 -27.5 -17.5 -49.5l-40 -95h-73l26 116c-24 14.667 -36 35.334 -36 62.001c0 21.333 6.83301 39.166 20.5 53.499s31.167 21.5 52.5 21.5s38.666 -7 51.999 -21z" />
    <glyph glyph-name="Rcaron" unicode="&#x158;" horiz-adv-x="517" 
d="M359 0l-113 267.001h-5h-38v-267h-157v693h185c172 0 258 -70 258 -210c0 -40.667 -8.5 -77.334 -25.5 -110.001s-43.5 -58 -79.5 -76l142 -297h-167zM235 376.001c33.333 0 57.334 8.5 72.001 25.5s22 44.167 22 81.5c0 34 -7.83301 59 -23.5 75s-40.834 24 -75.501 24
h-27v-206h32zM365.001 936.001l52 -55l-118 -131h-90l-118 131l52 55l111 -84z" />
    <glyph glyph-name="rcaron" unicode="&#x159;" horiz-adv-x="338" 
d="M344 538l-24.999 -145c-12 4 -24.333 6 -37 6c-24.667 0 -43.167 -9.5 -55.5 -28.5s-22.5 -47.5 -30.5 -85.5v-285h-151v531h131l11 -87c25.333 68 63.666 102 114.999 102c14 0 28 -2.66699 42 -8zM306.001 807l52 -55l-118 -139h-90l-118 139l52 55l111 -93z" />
    <glyph glyph-name="Sacute" unicode="&#x15a;" horiz-adv-x="477" 
d="M355.5 688c33 -14.667 63.166 -36.665 90.499 -65.998l-69 -82c-40 36.667 -79.667 55 -119 55c-22.667 0 -40.334 -6.66699 -53.001 -20s-19 -31 -19 -53c0 -21.333 7.33301 -38.833 22 -52.5s43 -29.5 85 -47.5c38.667 -17.333 70 -35.166 94 -53.499
s42.167 -40.833 54.5 -67.5s18.5 -59.667 18.5 -99c0 -42 -9.5 -79.667 -28.5 -113s-46.167 -59.333 -81.5 -78s-76.666 -28 -123.999 -28c-49.333 0 -92 8.66699 -128 26s-68.333 41.333 -97 72l75 83c24 -21.333 46.833 -37.5 68.5 -48.5s44.834 -16.5 69.501 -16.5
c27.333 0 48 8.16699 62 24.5s21 38.5 21 66.5c0 25.333 -7 46.166 -21 62.499s-39.333 31.833 -76 46.5c-64 26.667 -109.333 56.167 -136 88.5s-40 73.166 -40 122.499c0 39.333 9.33301 74.166 28 104.499s44.5 53.833 77.5 70.5s70.167 25 111.5 25
c43.333 0 81.5 -7.33301 114.5 -22zM308.999 945.002l57 -109l-203 -85l-38 74z" />
    <glyph glyph-name="sacute" unicode="&#x15b;" horiz-adv-x="402" 
d="M299 531c28.667 -11.333 53.667 -27.333 75 -48l-55 -81c-36.667 25.333 -69.667 38 -99 38c-16 0 -28.5 -4 -37.5 -12s-13.5 -19 -13.5 -33c0 -15.333 5.66699 -27.833 17 -37.5s35.666 -22.167 72.999 -37.5c44.667 -18.667 77.667 -40.334 99 -65.001
s32 -57.667 32 -99c0 -53.333 -18.833 -95.5 -56.5 -126.5s-86.5 -46.5 -146.5 -46.5c-37.333 0 -72.333 6.83301 -105 20.5s-60.667 32.834 -84 57.501l71 78c40 -32.667 76.667 -49 110 -49c18 0 32.167 4.66699 42.5 14s15.5 22.333 15.5 39
c0 18.667 -5.83301 33.5 -17.5 44.5s-35.5 23.833 -71.5 38.5c-45.333 18.667 -78 40.167 -98 64.5s-30 55.5 -30 93.5c0 48 16.667 87.333 50 118s79 46 137 46c32.667 0 63.334 -5.66699 92.001 -17zM258 825l59 -107l-201 -94l-41 73z" />
    <glyph glyph-name="Scircumflex" unicode="&#x15c;" horiz-adv-x="477" 
d="M355.5 688c33 -14.667 63.166 -36.665 90.499 -65.998l-69 -82c-40 36.667 -79.667 55 -119 55c-22.667 0 -40.334 -6.66699 -53.001 -20s-19 -31 -19 -53c0 -21.333 7.33301 -38.833 22 -52.5s43 -29.5 85 -47.5c38.667 -17.333 70 -35.166 94 -53.499
s42.167 -40.833 54.5 -67.5s18.5 -59.667 18.5 -99c0 -42 -9.5 -79.667 -28.5 -113s-46.167 -59.333 -81.5 -78s-76.666 -28 -123.999 -28c-49.333 0 -92 8.66699 -128 26s-68.333 41.333 -97 72l75 83c24 -21.333 46.833 -37.5 68.5 -48.5s44.834 -16.5 69.501 -16.5
c27.333 0 48 8.16699 62 24.5s21 38.5 21 66.5c0 25.333 -7 46.166 -21 62.499s-39.333 31.833 -76 46.5c-64 26.667 -109.333 56.167 -136 88.5s-40 73.166 -40 122.499c0 39.333 9.33301 74.166 28 104.499s44.5 53.833 77.5 70.5s70.167 25 111.5 25
c43.333 0 81.5 -7.33301 114.5 -22zM134.999 760.002l-52 54l118 131h90l118 -131l-52 -54l-111 83z" />
    <glyph glyph-name="scircumflex" unicode="&#x15d;" horiz-adv-x="402" 
d="M299 531c28.667 -11.333 53.667 -27.333 75 -48l-55 -81c-36.667 25.333 -69.667 38 -99 38c-16 0 -28.5 -4 -37.5 -12s-13.5 -19 -13.5 -33c0 -15.333 5.66699 -27.833 17 -37.5s35.666 -22.167 72.999 -37.5c44.667 -18.667 77.667 -40.334 99 -65.001
s32 -57.667 32 -99c0 -53.333 -18.833 -95.5 -56.5 -126.5s-86.5 -46.5 -146.5 -46.5c-37.333 0 -72.333 6.83301 -105 20.5s-60.667 32.834 -84 57.501l71 78c40 -32.667 76.667 -49 110 -49c18 0 32.167 4.66699 42.5 14s15.5 22.333 15.5 39
c0 18.667 -5.83301 33.5 -17.5 44.5s-35.5 23.833 -71.5 38.5c-45.333 18.667 -78 40.167 -98 64.5s-30 55.5 -30 93.5c0 48 16.667 87.333 50 118s79 46 137 46c32.667 0 63.334 -5.66699 92.001 -17zM93 626l-52 54l118 139h90l118 -139l-52 -54l-111 91z" />
    <glyph glyph-name="Scedilla" unicode="&#x15e;" horiz-adv-x="477" 
d="M410.5 59c-33 -39.333 -78.166 -63.332 -135.499 -71.999v-40c58 -9.33301 87 -41 87 -95c0 -33.333 -11.333 -60.166 -34 -80.499s-54.334 -30.5 -95.001 -30.5c-38.667 0 -71.667 9.66699 -99 29l34 66c17.333 -8.66699 35.333 -13 54 -13c23.333 0 35 10.333 35 31
c0 12.667 -6 21.667 -18 27s-31.333 8 -58 8l10 96c-74 6.66699 -137.333 38.667 -190 96l75 83c24 -21.333 46.833 -37.5 68.5 -48.5s44.834 -16.5 69.501 -16.5c27.333 0 48 8.16699 62 24.5s21 38.5 21 66.5c0 25.333 -7 46.166 -21 62.499s-39.333 31.833 -76 46.5
c-64 26.667 -109.333 56.167 -136 88.5s-40 73.166 -40 122.499c0 39.333 9.33301 74.166 28 104.499s44.5 53.833 77.5 70.5s70.167 25 111.5 25c43.333 0 81.5 -7.33301 114.5 -22s63.167 -36.667 90.5 -66l-69 -82c-40 36.667 -79.667 55 -119 55
c-22.667 0 -40.334 -6.66699 -53.001 -20s-19 -31 -19 -53c0 -21.333 7.33301 -38.833 22 -52.5s43 -29.5 85 -47.5c38.667 -17.333 70 -35.166 94 -53.499s42.167 -40.833 54.5 -67.5s18.5 -59.667 18.5 -99c0 -56 -16.5 -103.667 -49.5 -143z" />
    <glyph glyph-name="scedilla" unicode="&#x15f;" horiz-adv-x="402" 
d="M350.5 46c-26.333 -29.333 -61.832 -48.3311 -106.499 -56.998v-42c58 -9.33301 87 -41 87 -95c0 -33.333 -11.333 -60.166 -34 -80.499s-54.334 -30.5 -95.001 -30.5c-38.667 0 -71.667 9.66699 -99 29l34 66c17.333 -8.66699 35.333 -13 54 -13
c23.333 0 35 10.333 35 31c0 12.667 -6 21.667 -18 27s-31.333 8 -58 8l10 95c-32 3.33301 -62 11.666 -90 24.999s-52 30.666 -72 51.999l71 78c40 -32.667 76.667 -49 110 -49c18 0 32.167 4.66699 42.5 14s15.5 22.333 15.5 39c0 18.667 -5.83301 33.5 -17.5 44.5
s-35.5 23.833 -71.5 38.5c-45.333 18.667 -78 40.167 -98 64.5s-30 55.5 -30 93.5c0 48 16.667 87.333 50 118s79 46 137 46c32.667 0 63.334 -5.66699 92.001 -17s53.667 -27.333 75 -48l-55 -81c-36.667 25.333 -69.667 38 -99 38c-16 0 -28.5 -4 -37.5 -12
s-13.5 -19 -13.5 -33c0 -15.333 5.66699 -27.833 17 -37.5s35.666 -22.167 72.999 -37.5c44.667 -18.667 77.667 -40.334 99 -65.001s32 -57.667 32 -99c0 -44 -13.167 -80.667 -39.5 -110z" />
    <glyph glyph-name="Scaron" unicode="&#x160;" horiz-adv-x="477" 
d="M355.5 688c33 -14.667 63.166 -36.665 90.499 -65.998l-69 -82c-40 36.667 -79.667 55 -119 55c-22.667 0 -40.334 -6.66699 -53.001 -20s-19 -31 -19 -53c0 -21.333 7.33301 -38.833 22 -52.5s43 -29.5 85 -47.5c38.667 -17.333 70 -35.166 94 -53.499
s42.167 -40.833 54.5 -67.5s18.5 -59.667 18.5 -99c0 -42 -9.5 -79.667 -28.5 -113s-46.167 -59.333 -81.5 -78s-76.666 -28 -123.999 -28c-49.333 0 -92 8.66699 -128 26s-68.333 41.333 -97 72l75 83c24 -21.333 46.833 -37.5 68.5 -48.5s44.834 -16.5 69.501 -16.5
c27.333 0 48 8.16699 62 24.5s21 38.5 21 66.5c0 25.333 -7 46.166 -21 62.499s-39.333 31.833 -76 46.5c-64 26.667 -109.333 56.167 -136 88.5s-40 73.166 -40 122.499c0 39.333 9.33301 74.166 28 104.499s44.5 53.833 77.5 70.5s70.167 25 111.5 25
c43.333 0 81.5 -7.33301 114.5 -22zM356.999 936.002l52 -55l-118 -131h-90l-118 131l52 55l111 -84z" />
    <glyph glyph-name="scaron" unicode="&#x161;" horiz-adv-x="402" 
d="M299 531c28.667 -11.333 53.667 -27.333 75 -48l-55 -81c-36.667 25.333 -69.667 38 -99 38c-16 0 -28.5 -4 -37.5 -12s-13.5 -19 -13.5 -33c0 -15.333 5.66699 -27.833 17 -37.5s35.666 -22.167 72.999 -37.5c44.667 -18.667 77.667 -40.334 99 -65.001
s32 -57.667 32 -99c0 -53.333 -18.833 -95.5 -56.5 -126.5s-86.5 -46.5 -146.5 -46.5c-37.333 0 -72.333 6.83301 -105 20.5s-60.667 32.834 -84 57.501l71 78c40 -32.667 76.667 -49 110 -49c18 0 32.167 4.66699 42.5 14s15.5 22.333 15.5 39
c0 18.667 -5.83301 33.5 -17.5 44.5s-35.5 23.833 -71.5 38.5c-45.333 18.667 -78 40.167 -98 64.5s-30 55.5 -30 93.5c0 48 16.667 87.333 50 118s79 46 137 46c32.667 0 63.334 -5.66699 92.001 -17zM315 807l52 -55l-118 -139h-90l-118 139l52 55l111 -93z" />
    <glyph glyph-name="uni0162" unicode="&#x162;" horiz-adv-x="450" 
d="M369 -80.5c14.667 -17 21.998 -39.167 21.998 -66.5c0 -34 -11.5 -61.167 -34.5 -81.5s-54.833 -30.5 -95.5 -30.5c-19.333 0 -37.666 2.66699 -54.999 8s-31.666 12.333 -42.999 21l34 70c18 -11.333 34.667 -17 50 -17c26 0 39 10.667 39 32c0 12 -6 20.667 -18 26
s-31.333 8 -58 8l11 111h-75v573h-141v120h447l-16 -120h-133v-622c29.333 -4 51.333 -14.5 66 -31.5z" />
    <glyph glyph-name="uni0163" unicode="&#x163;" horiz-adv-x="325" 
d="M323 -148c0 -33.333 -11.3311 -60.167 -33.998 -80.5s-54.334 -30.5 -95.001 -30.5c-38.667 0 -71.667 9.66699 -99 29l34 66c17.333 -8.66699 35.333 -13 54 -13c23.333 0 35 10.333 35 31c0 12.667 -6 21.667 -18 27s-31.333 8 -58 8l10 102c-32 10 -56 28.5 -72 55.5
s-24 59.833 -24 98.5v280h-55v106h55v116l151 17v-133h99l-16 -106h-83v-279c0 -28.667 12 -43 36 -43c13.333 0 27.666 4.66699 42.999 14l50 -92c-26.667 -22 -60 -35.667 -100 -41v-37c58 -9.33301 87 -41 87 -95z" />
    <glyph glyph-name="Tcaron" unicode="&#x164;" horiz-adv-x="450" 
d="M452 693l-16 -120h-133v-573h-157v573h-141v120h447zM336 936l52 -55l-118 -131h-90l-118 131l52 55l111 -84z" />
    <glyph glyph-name="tcaron" unicode="&#x165;" horiz-adv-x="325" 
d="M352 776l-46 -212l-83 13l20 216zM286 117l50.001 -91.999c-16.667 -14 -36 -24.5 -58 -31.5s-44.333 -10.5 -67 -10.5c-51.333 0 -90 14.667 -116 44s-39 68.666 -39 117.999v280h-55v106h55v116l151 17v-133h99l-16 -106h-83v-279c0 -28.667 12 -43 36 -43
c13.333 0 27.666 4.66699 42.999 14z" />
    <glyph glyph-name="Tbar" unicode="&#x166;" horiz-adv-x="450" 
d="M436 572h-133v-183h91v-90h-91v-300h-157v300h-92v90h92v183h-141v120h447z" />
    <glyph glyph-name="tbar" unicode="&#x167;" horiz-adv-x="325" 
d="M336 25c-16.667 -14 -35.999 -24.499 -57.999 -31.499s-44.333 -10.5 -67 -10.5c-51.333 0 -90 14.667 -116 44s-39 68.666 -39 117.999v115h-51v100h51v65h-55v106h55v116l151 17v-133h99l-16 -106h-83v-65h82v-100h-82v-114c0 -28.667 12 -43 36 -43
c13.333 0 27.666 4.66699 42.999 14z" />
    <glyph glyph-name="Utilde" unicode="&#x168;" horiz-adv-x="536" 
d="M500 200c0 -41.333 -8.66797 -78.166 -26.001 -110.499s-43.333 -58 -78 -77s-77.334 -28.5 -128.001 -28.5c-76 0 -133.667 19.667 -173 59s-59 91.666 -59 156.999v493h157v-486c0 -36 5.83301 -62.667 17.5 -80s30.834 -26 57.501 -26s45.834 8.66699 57.501 26
s17.5 44 17.5 80v486h157v-493zM286.499 774.5c-9 4.33301 -19.168 10.168 -30.501 17.501c-14 10.667 -25.667 16 -35 16c-8.66699 0 -16 -3.16699 -22 -9.5s-13 -16.833 -21 -31.5l-70 33c10.667 33.333 25.667 60.166 45 80.499s41.333 30.5 66 30.5
c12 0 22.333 -2 31 -6s19.334 -10 32.001 -18c7.33301 -6 13.666 -10.333 18.999 -13s11 -4 17 -4c8.66699 0 15.834 3.16699 21.501 9.5s12.167 16.5 19.5 30.5l71 -32c-10.667 -34 -25.667 -60.833 -45 -80.5s-41.333 -29.5 -66 -29.5c-12.667 0 -23.5 2.16699 -32.5 6.5z
" />
    <glyph glyph-name="utilde" unicode="&#x169;" horiz-adv-x="476" 
d="M431 0h-132l-6 61c-32 -52 -74.333 -78 -127 -78c-38.667 0 -69.167 14 -91.5 42s-33.5 65 -33.5 111v395h151v-389c0 -15.333 2.66699 -27 8 -35s13 -12 23 -12c21.333 0 40.333 18.667 57 56v380h151v-531zM254.5 648.5c-9 4.33301 -19.168 10.168 -30.501 17.501
c-14 10.667 -25.667 16 -35 16c-8.66699 0 -16 -3.16699 -22 -9.5s-13 -16.833 -21 -31.5l-70 33c10.667 33.333 25.667 60.166 45 80.499s41.333 30.5 66 30.5c12 0 22.333 -2 31 -6s19.334 -10 32.001 -18c7.33301 -6 13.666 -10.333 18.999 -13s11 -4 17 -4
c8.66699 0 15.834 3.16699 21.501 9.5s12.167 16.5 19.5 30.5l71 -32c-10.667 -34 -25.667 -60.833 -45 -80.5s-41.333 -29.5 -66 -29.5c-12.667 0 -23.5 2.16699 -32.5 6.5z" />
    <glyph glyph-name="Umacron" unicode="&#x16a;" horiz-adv-x="536" 
d="M500 200c0 -41.333 -8.66797 -78.166 -26.001 -110.499s-43.333 -58 -78 -77s-77.334 -28.5 -128.001 -28.5c-76 0 -133.667 19.667 -173 59s-59 91.666 -59 156.999v493h157v-486c0 -36 5.83301 -62.667 17.5 -80s30.834 -26 57.501 -26s45.834 8.66699 57.501 26
s17.5 44 17.5 80v486h157v-493zM397.999 784h-260v102h260v-102z" />
    <glyph glyph-name="umacron" unicode="&#x16b;" horiz-adv-x="476" 
d="M431 0h-132l-6 61c-32 -52 -74.333 -78 -127 -78c-38.667 0 -69.167 14 -91.5 42s-33.5 65 -33.5 111v395h151v-389c0 -15.333 2.66699 -27 8 -35s13 -12 23 -12c21.333 0 40.333 18.667 57 56v380h151v-531zM367 658h-260v102h260v-102z" />
    <glyph glyph-name="Ubreve" unicode="&#x16c;" horiz-adv-x="536" 
d="M500 200c0 -41.333 -8.66797 -78.166 -26.001 -110.499s-43.333 -58 -78 -77s-77.334 -28.5 -128.001 -28.5c-76 0 -133.667 19.667 -173 59s-59 91.666 -59 156.999v493h157v-486c0 -36 5.83301 -62.667 17.5 -80s30.834 -26 57.501 -26s45.834 8.66699 57.501 26
s17.5 44 17.5 80v486h157v-493zM163.999 794.5c-24.667 28.333 -38.999 66.5 -42.999 114.5l79 16c10.667 -45.333 33.667 -68 69 -68c18 0 32.667 5.83301 44 17.5s19 28.5 23 50.5l80 -16c-4 -48 -18.333 -86.167 -43 -114.5s-59.334 -42.5 -104.001 -42.5
c-45.333 0 -80.333 14.167 -105 42.5z" />
    <glyph glyph-name="ubreve" unicode="&#x16d;" horiz-adv-x="476" 
d="M431 0h-132l-6 61c-32 -52 -74.333 -78 -127 -78c-38.667 0 -69.167 14 -91.5 42s-33.5 65 -33.5 111v395h151v-389c0 -15.333 2.66699 -27 8 -35s13 -12 23 -12c21.333 0 40.333 18.667 57 56v380h151v-531zM132.5 678.5c-25 29.667 -39.166 70.834 -42.499 123.501
l79 15c10.667 -53.333 33.667 -80 69 -80s57.666 26.667 66.999 80l80 -15c-3.33301 -52.667 -17.333 -93.834 -42 -123.501s-59.667 -44.5 -105 -44.5s-80.5 14.833 -105.5 44.5z" />
    <glyph glyph-name="Uring" unicode="&#x16e;" horiz-adv-x="536" 
d="M500 200c0 -41.333 -8.66797 -78.166 -26.001 -110.499s-43.333 -58 -78 -77s-77.334 -28.5 -128.001 -28.5c-76 0 -133.667 19.667 -173 59s-59 91.666 -59 156.999v493h157v-486c0 -36 5.83301 -62.667 17.5 -80s30.834 -26 57.501 -26s45.834 8.66699 57.501 26
s17.5 44 17.5 80v486h157v-493zM357.999 954.5c22 -23.667 33 -54.5 33 -92.5c0 -38.667 -11 -70 -33 -94s-51.667 -36 -89 -36c-38 0 -67.833 12 -89.5 36s-32.5 55.333 -32.5 94c0 38 10.833 68.833 32.5 92.5s51.5 35.5 89.5 35.5c37.333 0 67 -11.833 89 -35.5z
M233.999 862c0 -19.333 3 -33.167 9 -41.5s14.667 -12.5 26 -12.5c24 0 36 18 36 54c0 35.333 -12 53 -36 53c-23.333 0 -35 -17.667 -35 -53z" />
    <glyph glyph-name="uring" unicode="&#x16f;" horiz-adv-x="476" 
d="M431 0h-132l-6 61c-32 -52 -74.333 -78 -127 -78c-38.667 0 -69.167 14 -91.5 42s-33.5 65 -33.5 111v395h151v-389c0 -15.333 2.66699 -27 8 -35s13 -12 23 -12c21.333 0 40.333 18.667 57 56v380h151v-531zM326 828.5c22 -23.667 33 -54.5 33 -92.5
c0 -38.667 -11 -70 -33 -94s-51.667 -36 -89 -36c-38 0 -67.833 12 -89.5 36s-32.5 55.333 -32.5 94c0 38 10.833 68.833 32.5 92.5s51.5 35.5 89.5 35.5c37.333 0 67 -11.833 89 -35.5zM202 736c0 -19.333 3 -33.167 9 -41.5s14.667 -12.5 26 -12.5c24 0 36 18 36 54
c0 35.333 -12 53 -36 53c-23.333 0 -35 -17.667 -35 -53z" />
    <glyph glyph-name="Uhungarumlaut" unicode="&#x170;" horiz-adv-x="536" 
d="M500 200c0 -41.333 -8.66797 -78.166 -26.001 -110.499s-43.333 -58 -78 -77s-77.334 -28.5 -128.001 -28.5c-76 0 -133.667 19.667 -173 59s-59 91.666 -59 156.999v493h157v-486c0 -36 5.83301 -62.667 17.5 -80s30.834 -26 57.501 -26s45.834 8.66699 57.501 26
s17.5 44 17.5 80v486h157v-493zM230.999 981l96 -47l-99 -177l-72 30zM381.999 981l94 -50l-105 -179l-70 35z" />
    <glyph glyph-name="uhungarumlaut" unicode="&#x171;" horiz-adv-x="476" 
d="M431 0h-132l-6 61c-32 -52 -74.333 -78 -127 -78c-38.667 0 -69.167 14 -91.5 42s-33.5 65 -33.5 111v395h151v-389c0 -15.333 2.66699 -27 8 -35s13 -12 23 -12c21.333 0 40.333 18.667 57 56v380h151v-531zM192 855l96 -47l-99 -177l-72 30zM343 855l94 -50l-105 -179
l-70 35z" />
    <glyph glyph-name="Uogonek" unicode="&#x172;" horiz-adv-x="536" 
d="M500 693l-0.00390625 -492.999c0 -46.667 -11.167 -87.834 -33.5 -123.501s-55.166 -61.167 -98.499 -76.5c-63.333 -30 -95 -64.333 -95 -103c0 -14.667 3.83301 -26 11.5 -34s18.167 -12 31.5 -12c16.667 0 33.334 2.33301 50.001 7l-9 -94c-20 -5.33301 -40 -8 -60 -8
c-36.667 0 -67 10.5 -91 31.5s-36 48.833 -36 83.5c0 48 25.667 86 77 114c-69.333 3.33301 -121.833 24.5 -157.5 63.5s-53.5 89.5 -53.5 151.5v493h157v-486c0 -36 5.83301 -62.667 17.5 -80s30.834 -26 57.501 -26s45.834 8.66699 57.501 26s17.5 44 17.5 80v486h157z
" />
    <glyph glyph-name="uogonek" unicode="&#x173;" horiz-adv-x="476" 
d="M356 -51c-13.333 -16.667 -20.001 -34.333 -20.001 -53c0 -30.667 14.667 -46 44 -46c15.333 0 31.333 2.33301 48 7l-9 -93c-19.333 -5.33301 -38.666 -8 -57.999 -8c-38.667 0 -70.167 10 -94.5 30s-36.5 48 -36.5 84c0 52 25.667 95.333 77 130h-8l-6 61
c-32 -52 -74.333 -78 -127 -78c-38.667 0 -69.167 14 -91.5 42s-33.5 65 -33.5 111v395h151v-389c0 -15.333 2.66699 -27 8 -35s13 -12 23 -12c21.333 0 40.333 18.667 57 56v380h151v-531c-36.667 -17.333 -61.667 -34.333 -75 -51z" />
    <glyph glyph-name="Wcircumflex" unicode="&#x174;" horiz-adv-x="712" 
d="M704 693l-87 -693h-205l-57 537l-63 -537h-200l-84 693h150l50 -573l68 573h162l64 -573l58 573h144zM247 760l-52 54l118 131h90l118 -131l-52 -54l-111 83z" />
    <glyph glyph-name="wcircumflex" unicode="&#x175;" horiz-adv-x="639" 
d="M633 531l-88 -531h-176l-50 395l-49 -395h-175l-89 531h145l40 -417l59 417h143l56 -417l43 417h141zM209 626l-52 54l118 139h90l118 -139l-52 -54l-111 91z" />
    <glyph glyph-name="Ycircumflex" unicode="&#x176;" horiz-adv-x="500" 
d="M511 693l-182 -432v-261h-157v260l-182 433h164l98 -310l100 310h159zM139 760l-52 54l118 131h90l118 -131l-52 -54l-111 83z" />
    <glyph glyph-name="ycircumflex" unicode="&#x177;" horiz-adv-x="442" 
d="M310 -1c-34.667 -136.667 -122 -210 -262 -220l-16 104c42 7.33301 73.833 19.5 95.5 36.5s38.5 43.833 50.5 80.5h-56l-127 531h152l70 -434l82 434h149zM110 626l-52 54l118 139h90l118 -139l-52 -54l-111 91z" />
    <glyph glyph-name="Ydieresis" unicode="&#x178;" horiz-adv-x="500" 
d="M511 693l-182 -432v-261h-157v260l-182 433h164l98 -310l100 310h159zM210 899c14 -14.667 21 -32.667 21 -54c0 -22 -6.83301 -40.167 -20.5 -54.5s-31.5 -21.5 -53.5 -21.5c-21.333 0 -39.166 7.33301 -53.499 22s-21.5 32.667 -21.5 54s7.16699 39.333 21.5 54
s32.166 22 53.499 22s39 -7.33301 53 -22zM406 899c14 -14.667 21 -32.667 21 -54c0 -22 -6.83301 -40.167 -20.5 -54.5s-31.5 -21.5 -53.5 -21.5c-20.667 0 -38.167 7.33301 -52.5 22s-21.5 32.667 -21.5 54s7.16699 39.333 21.5 54s31.833 22 52.5 22
c21.333 0 39 -7.33301 53 -22z" />
    <glyph glyph-name="Zacute" unicode="&#x179;" horiz-adv-x="450" 
d="M432 693v-119l-251 -448h256l-15 -126h-412v117l250 454h-226v122h398zM291 945l57 -109l-203 -85l-38 74z" />
    <glyph glyph-name="zacute" unicode="&#x17a;" horiz-adv-x="385" 
d="M371 531v-107l-198 -309h202l-12 -115h-354v107l198 310h-181v114h345zM252 825l59 -107l-201 -94l-41 73z" />
    <glyph glyph-name="Zdotaccent" unicode="&#x17b;" horiz-adv-x="450" 
d="M432 693v-119l-251 -448h256l-15 -126h-412v117l250 454h-226v122h398zM289.5 908.5c15.667 -16.333 23.5 -37.166 23.5 -62.499c0 -24.667 -8 -45.167 -24 -61.5s-36.667 -24.5 -62 -24.5s-46 8.16699 -62 24.5s-24 36.833 -24 61.5c0 25.333 8 46.166 24 62.499
s36.667 24.5 62 24.5c26 0 46.833 -8.16699 62.5 -24.5z" />
    <glyph glyph-name="zdotaccent" unicode="&#x17c;" horiz-adv-x="385" 
d="M371 531v-107l-198 -309h202l-12 -115h-354v107l198 310h-181v114h345zM259.5 782.5c15.667 -16.333 23.5 -37.166 23.5 -62.499c0 -24.667 -8 -45.167 -24 -61.5s-36.667 -24.5 -62 -24.5s-46 8.16699 -62 24.5s-24 36.833 -24 61.5c0 25.333 8 46.166 24 62.499
s36.667 24.5 62 24.5c26 0 46.833 -8.16699 62.5 -24.5z" />
    <glyph glyph-name="Zcaron" unicode="&#x17d;" horiz-adv-x="450" 
d="M432 693v-119l-251 -448h256l-15 -126h-412v117l250 454h-226v122h398zM339 936l52 -55l-118 -131h-90l-118 131l52 55l111 -84z" />
    <glyph glyph-name="zcaron" unicode="&#x17e;" horiz-adv-x="385" 
d="M371 531v-107l-198 -309h202l-12 -115h-354v107l198 310h-181v114h345zM309 807l52 -55l-118 -139h-90l-118 139l52 55l111 -93z" />
    <glyph glyph-name="longs" unicode="&#x17f;" horiz-adv-x="306" 
d="M369 726l-39.999 -96c-22.667 11.333 -44 17 -64 17c-33.333 0 -50 -18.667 -50 -56v-591h-151v425h-60v106h60v54c0 52.667 15.333 94.667 46 126s74.667 47 132 47c45.333 0 87.666 -10.667 126.999 -32z" />
    <glyph glyph-name="uni0180" unicode="&#x180;" horiz-adv-x="503" 
d="M437.5 477c27 -47.333 40.5 -118.002 40.5 -212.002c0 -87.333 -15.5 -156.166 -46.5 -206.499s-73.833 -75.5 -128.5 -75.5c-23.333 0 -44.5 5.66699 -63.5 17s-35.167 27.333 -48.5 48l-7 -48h-134v598h-46v90h46v54l151 16v-70h103v-90h-103v-116
c14 20.667 31.167 36.834 51.5 48.501s42.5 17.5 66.5 17.5c52 0 91.5 -23.667 118.5 -71zM306.5 130.998c11 25.333 16.5 70 16.5 134c0 67.333 -4.83301 112.833 -14.5 136.5s-23.5 35.5 -41.5 35.5c-24 0 -46 -19 -66 -57v-240c16 -31.333 35.333 -47 58 -47
c20.667 0 36.5 12.667 47.5 38z" />
    <glyph glyph-name="uni0181" unicode="&#x181;" horiz-adv-x="644" 
d="M591 313.5c25.333 -25.667 38.001 -63.167 38.001 -112.5c0 -69.333 -23.333 -120.166 -70 -152.499s-110.334 -48.5 -191.001 -48.5h-191v581h-18c-25.333 0 -38 -14 -38 -42c0 -22 6 -45 18 -69l-96 -42c-12.667 18.667 -22.5 38 -29.5 58s-10.5 42.667 -10.5 68
c0 42.667 14 76.5 42 101.5s68.333 37.5 121 37.5h180c82 0 145.667 -14.833 191 -44.5s68 -73.834 68 -132.501c0 -39.333 -10.667 -71.5 -32 -96.5s-49.333 -42.5 -84 -52.5c42.667 -10 76.667 -27.833 102 -53.5zM334.001 582v-168.002h30c30 0 51.333 7.33301 64 22
s19 36.334 19 65.001c0 26.667 -6.83301 46.834 -20.5 60.501s-35.5 20.5 -65.5 20.5h-27zM444.001 136.498c16.667 15 24.998 39.501 24.998 73.501c0 33.333 -7.66699 58.166 -23 74.499s-39.666 24.5 -72.999 24.5h-39v-195h36c32.667 0 57.334 7.5 74.001 22.5z" />
    <glyph glyph-name="uni0182" unicode="&#x182;" horiz-adv-x="501" 
d="M429 390c40 -36 60 -89.999 60 -161.999c0 -76.667 -21 -133.834 -63 -171.501s-101.667 -56.5 -179 -56.5h-201v693h374l-15 -119h-202v-130h51c76.667 0 135 -18 175 -54zM305.5 140.501c13 17.667 19.499 46.499 19.499 86.499c0 36.667 -6.66699 63.834 -20 81.501
s-35.666 26.5 -66.999 26.5h-35v-221h37c30.667 0 52.5 8.83301 65.5 26.5z" />
    <glyph glyph-name="uni0183" unicode="&#x183;" horiz-adv-x="499" 
d="M432.5 477c27 -47.333 40.5 -118.002 40.5 -212.002c0 -87.333 -15.5 -156.166 -46.5 -206.499s-73.833 -75.5 -128.5 -75.5c-23.333 0 -44.5 5.66699 -63.5 17s-35.167 27.333 -48.5 48l-7 -48h-134v742h328l-16 -109h-161v-151c14 20.667 31.167 36.834 51.5 48.501
s42.5 17.5 66.5 17.5c52 0 91.5 -23.667 118.5 -71zM301.5 130.998c11 25.333 16.5 70 16.5 134c0 67.333 -4.83301 112.833 -14.5 136.5s-23.5 35.5 -41.5 35.5c-24 0 -46 -19 -66 -57v-240c16 -31.333 35.333 -47 58 -47c20.667 0 36.5 12.667 47.5 38z" />
    <glyph glyph-name="uni0184" unicode="&#x184;" horiz-adv-x="518" 
d="M446.5 399c40.333 -36.667 60.5 -91.667 60.5 -165c0 -79.333 -20.667 -138.166 -62 -176.499s-100.666 -57.5 -177.999 -57.5h-202v496l-62 49c34 37.333 63.667 86.666 89 147.999h130v-239h48c77.333 0 136.166 -18.333 176.499 -55zM324 141.5
c13.333 18.333 20.001 48.5 20.001 90.5c0 38.667 -6.83301 67 -20.5 85s-36.834 27 -69.501 27h-32v-230h37c30 0 51.667 9.16699 65 27.5z" />
    <glyph glyph-name="uni0185" unicode="&#x185;" horiz-adv-x="452" 
d="M392 319c34.667 -30.667 52 -76.333 52 -137c0 -62.667 -17.5 -108.667 -52.5 -138s-86.167 -44 -153.5 -44h-177v343l-63 50c34.667 38.667 64.667 84.667 90 138h124v-166h17c74 0 128.333 -15.333 163 -46zM279 118.501c8.66699 12.333 13 34.167 13 65.5
c0 32 -4 54.333 -12 67s-23 19 -45 19h-23v-170h24c20 0 34.333 6.16699 43 18.5z" />
    <glyph glyph-name="uni0186" unicode="&#x186;" horiz-adv-x="484" 
d="M387 619.5c46 -60.333 69.001 -150.832 69.001 -271.499c0 -120 -23.667 -210.667 -71 -272s-112 -92 -194 -92c-38.667 0 -73.834 8.16699 -105.501 24.5s-59.5 37.166 -83.5 62.499l72 85c21.333 -17.333 39.666 -30.166 54.999 -38.499s33.333 -12.5 54 -12.5
c35.333 0 62.5 18.5 81.5 55.5s28.5 99.5 28.5 187.5c0 90.667 -8.66699 154.167 -26 190.5s-43.333 54.5 -78 54.5c-20 0 -38.167 -3.83301 -54.5 -11.5s-33.166 -18.834 -50.499 -33.501l-75 86c26.667 25.333 55.167 44.333 85.5 57s64.833 19 103.5 19
c80 0 143 -30.167 189 -90.5z" />
    <glyph glyph-name="uni0187" unicode="&#x187;" horiz-adv-x="484" 
d="M608 814l-42.001 -89.998c-10.667 5.33301 -19.667 9.16602 -27 11.499s-15.666 3.5 -24.999 3.5c-13.333 0 -23 -3.83301 -29 -11.5s-9 -20.834 -9 -39.501v-54l-69 -81c-18 13.333 -35.167 23.333 -51.5 30s-33.5 10 -51.5 10c-36.667 0 -64.667 -18.833 -84 -56.5
s-29 -100.5 -29 -188.5c0 -86 9.83301 -148 29.5 -186s47.834 -57 84.501 -57c20 0 37.333 4 52 12s32.667 20.667 54 38l71 -84c-24 -26 -52 -47.167 -84 -63.5s-67.667 -24.5 -107 -24.5c-80 0 -143.833 30.667 -191.5 92s-71.5 152.333 -71.5 273
c0 78 11.167 144.333 33.5 199s52.166 95.5 89.499 122.5s79 40.5 125 40.5c24.667 0 48 -5 70 -15v7c0 46.667 13 83.167 39 109.5s61 39.5 105 39.5c42 0 81.333 -12.333 118 -37z" />
    <glyph glyph-name="uni0188" unicode="&#x188;" horiz-adv-x="401" 
d="M537 721l-42.0049 -91c-19.333 10.667 -36.666 16 -51.999 16c-13.333 0 -23.166 -4 -29.499 -12s-9.5 -21.333 -9.5 -40v-111l-60 -82c-15.333 10.667 -29.166 18.667 -41.499 24s-25.166 8 -38.499 8c-27.333 0 -47.666 -12.5 -60.999 -37.5s-20 -69.5 -20 -133.5
c0 -60.667 7 -102.667 21 -126s33.667 -35 59 -35c13.333 0 25.666 2.33301 36.999 7s24.333 12.667 39 24l65 -87c-43.333 -41.333 -93.333 -62 -150 -62c-72 0 -128 23.5 -168 70.5s-60 116.167 -60 207.5c0 58.667 8.83301 109.667 26.5 153s42.167 76.5 73.5 99.5
s67 34.5 107 34.5c13.333 0 27.333 -2 42 -6v67c0 46.667 12.833 83.167 38.5 109.5s60.5 39.5 104.5 39.5c42.667 0 82.334 -12.333 119.001 -37z" />
    <glyph glyph-name="uni0189" unicode="&#x189;" horiz-adv-x="566" 
d="M392.5 666.5c43 -17.667 78 -51.667 105 -102s40.5 -121.833 40.5 -214.5c0 -130 -26.167 -220.833 -78.5 -272.5s-122.5 -77.5 -210.5 -77.5h-186v305h-49v96h49v292h175c60 0 111.5 -8.83301 154.5 -26.5zM323.5 134.5c17 13.667 30.167 37.6689 39.5 72.002
s14 82.166 14 143.499c0 62 -4.83301 109.667 -14.5 143s-23 56.166 -40 68.499s-38.5 18.5 -64.5 18.5h-38v-179h85v-96h-85v-191h38c26.667 0 48.5 6.83301 65.5 20.5z" />
    <glyph glyph-name="uni018A" unicode="&#x18a;" horiz-adv-x="680" 
d="M506.5 666.5c43 -17.667 78 -51.667 105 -102s40.5 -121.833 40.5 -214.5c0 -130 -26.167 -220.833 -78.5 -272.5s-122.5 -77.5 -210.5 -77.5h-186v581h-18c-25.333 0 -38 -14 -38 -42c0 -22 6 -45 18 -69l-96 -42c-12.667 18.667 -22.5 38 -29.5 58
s-10.5 42.667 -10.5 68c0 42.667 14 76.5 42 101.5s68.333 37.5 121 37.5h186c60 0 111.5 -8.83301 154.5 -26.5zM437.5 134.5c17 13.667 30.167 37.6689 39.5 72.002s14 82.166 14 143.499c0 62 -4.83301 109.667 -14.5 143s-23 56.166 -40 68.499s-38.5 18.5 -64.5 18.5
h-38v-466h38c26.667 0 48.5 6.83301 65.5 20.5z" />
    <glyph glyph-name="uni018B" unicode="&#x18b;" horiz-adv-x="501" 
d="M455 0h-195c-164.667 -0 -247 74.333 -247 223c0 72 20.5 126.833 61.5 164.5s100.5 56.5 178.5 56.5h45v130h-211v119h368v-693zM298 114v221h-28c-34 0 -58.167 -8.83301 -72.5 -26.5s-21.5 -46.167 -21.5 -85.5s7 -67.333 21 -84s37.333 -25 70 -25h31z" />
    <glyph glyph-name="uni018C" unicode="&#x18c;" horiz-adv-x="500" 
d="M456 0l-134.999 -0.000976562l-5 56c-15.333 -22.667 -32.5 -40.5 -51.5 -53.5s-42.167 -19.5 -69.5 -19.5c-56 0 -98.167 24 -126.5 72s-42.5 116.333 -42.5 205c0 55.333 7.66699 103.833 23 145.5s36.666 73.834 63.999 96.501s58.333 34 93 34
c38.667 0 71.667 -16.333 99 -49v146h-169v109h320v-742zM305.001 145.999l0.000976562 236c-9.33301 14.667 -18.333 25.5 -27 32.5s-18.334 10.5 -29.001 10.5c-20.667 0 -37.167 -13 -49.5 -39s-18.5 -68 -18.5 -126c0 -62 5.5 -105.167 16.5 -129.5
s26.167 -36.5 45.5 -36.5c23.333 0 44 17.333 62 52z" />
    <glyph glyph-name="uni018D" unicode="&#x18d;" horiz-adv-x="488" 
d="M334 73c32.667 -20.667 54.832 -41.665 66.499 -62.998s17.5 -47 17.5 -77c0 -44.667 -15.667 -81.834 -47 -111.501s-78 -44.5 -140 -44.5c-32.667 0 -63.167 5.66699 -91.5 17s-52.166 25.666 -71.499 42.999l63 76c15.333 -10.667 30 -18.334 44 -23.001
s29.333 -7 46 -7c18 0 31.5 4.5 40.5 13.5s13.5 21.5 13.5 37.5c0 12 -1.66699 21.833 -5 29.5s-10.333 15.667 -21 24s-27 18.166 -49 29.499c-42.667 22 -76.5 44.5 -101.5 67.5s-43.333 50 -55 81s-17.5 69.167 -17.5 114.5c0 86.667 19.333 153 58 199s92 69 160 69
c69.333 0 123 -21.167 161 -63.5s57 -106.166 57 -191.499c0 -101.333 -42.667 -174.666 -128 -219.999zM186.498 207.502c3.66699 -19.667 11.001 -36.8359 22.001 -51.5029s28.167 -29 51.5 -43c19.333 20.667 32.166 44.334 38.499 71.001s9.83301 62.334 10.5 107.001
c0 56 -5 94.333 -15 115s-26.333 31 -49 31c-15.333 0 -27.5 -4.16699 -36.5 -12.5s-15.833 -23.166 -20.5 -44.499s-7 -51.333 -7 -90c0 -35.333 1.83301 -62.833 5.5 -82.5z" />
    <glyph glyph-name="uni018E" unicode="&#x18e;" horiz-adv-x="432" 
d="M27 693h359v-693h-363v114h205v183h-169v110h169v174h-201v112z" />
    <glyph glyph-name="uni018F" unicode="&#x18f;" horiz-adv-x="535" 
d="M443.5 624c42.333 -57.333 63.502 -148.003 63.502 -272.003c0 -126 -21.333 -218.833 -64 -278.5s-103.667 -89.5 -183 -89.5c-84 0 -145.333 29.333 -184 88s-58 147.334 -58 266.001c0 21.333 1.66699 43 5 65h326c-1.33301 70.667 -10.833 120.334 -28.5 149.001
s-43.834 43 -78.501 43c-24.667 0 -46.5 -4.66699 -65.5 -14s-38.167 -22.666 -57.5 -39.999l-69 81c29.333 29.333 60.666 51.333 93.999 66s71 22 113 22c82 0 144.167 -28.667 186.5 -86zM307.502 114.997c12.333 11.333 22 31.332 29 59.999s11.167 68.334 12.5 119.001
h-181c0 -74 7.66699 -125.167 23 -153.5s38 -42.5 68 -42.5c20 0 36.167 5.66699 48.5 17z" />
    <glyph glyph-name="uni0190" unicode="&#x190;" horiz-adv-x="451" 
d="M348.5 687c31.667 -15.333 61.167 -38 88.5 -68l-71 -77c-37.333 36 -72 54 -104 54c-24 0 -41.667 -7.83301 -53 -23.5s-17 -36.167 -17 -61.5c0 -28.667 7 -50.667 21 -66s34.667 -23 62 -23h58l-18 -114h-43c-62 0 -93 -34.333 -93 -103
c0 -35.333 7.33301 -61.666 22 -78.999s35.667 -26 63 -26c20.667 0 39.5 4.66699 56.5 14s35.167 23.666 54.5 42.999l81 -77c-26 -32 -55.833 -56 -89.5 -72s-73.5 -24 -119.5 -24c-45.333 0 -85.5 8.5 -120.5 25.5s-62.333 41.333 -82 73s-29.5 69.167 -29.5 112.5
c0 51.333 13 91.333 39 120s63 46.334 111 53.001c-45.333 10 -78.833 28.667 -100.5 56s-32.5 61.666 -32.5 102.999c0 34.667 8.83301 66 26.5 94s42.5 49.833 74.5 65.5s68.333 23.5 109 23.5c39.333 0 74.833 -7.66699 106.5 -23z" />
    <glyph glyph-name="uni0191" unicode="&#x191;" horiz-adv-x="404" 
d="M203 581l-0.000976562 -190h159v-113h-159v-277h1v-49c0 -56.667 -16.167 -99.667 -48.5 -129s-75.5 -44 -129.5 -44c-49.333 0 -91.666 14 -126.999 42l52 89c10 -6 19 -10.167 27 -12.5s17.333 -3.5 28 -3.5c27.333 0 41 16.333 41 49v57h-1v693h354l-16 -112h-181z
" />
    <glyph glyph-name="florin" unicode="&#x192;" horiz-adv-x="320" 
d="M228.5 633.5c-8.33301 -9 -12.5 -23.1689 -12.5 -42.502v-60h103l-16 -106h-87v-368c0 -54 -8 -98.667 -24 -134s-37.667 -63.666 -65 -84.999s-61 -40.666 -101 -57.999l-51 109c21.333 12.667 38.166 24.834 50.499 36.501s22 27.167 29 46.5s10.5 44.666 10.5 75.999
v377h-60v106h60v54c0 53.333 15.5 95.5 46.5 126.5s75.833 46.5 134.5 46.5c46.667 0 92 -10.667 136 -32l-40 -96c-25.333 11.333 -49.666 17 -72.999 17c-18.667 0 -32.167 -4.5 -40.5 -13.5z" />
    <glyph glyph-name="uni0193" unicode="&#x193;" horiz-adv-x="516" 
d="M641 814l-42.001 -89.998c-11.333 5.33301 -20.666 9.16602 -27.999 11.499s-15.333 3.5 -24 3.5c-14 0 -24 -4 -30 -12s-9 -21 -9 -39v-62l-69 -73c-22 15.333 -42.167 26.333 -60.5 33s-38.5 10 -60.5 10c-42.667 0 -74.667 -18.333 -96 -55s-32 -101.334 -32 -194.001
c0 -65.333 3.66699 -116 11 -152s18.333 -61 33 -75s34 -21 58 -21c24.667 0 47.667 7 69 21v166h-66l-15 111h229v-342c-30 -22 -64 -39.333 -102 -52s-75.333 -19 -112 -19c-91.333 0 -158.666 29.333 -201.999 88s-65 150.334 -65 275.001c0 80.667 12 148.167 36 202.5
s56.333 94.666 97 120.999s86 39.5 136 39.5c29.333 0 56.666 -5.33301 81.999 -16v8c0 46.667 12.833 83.167 38.5 109.5s60.5 39.5 104.5 39.5c42 0 81.667 -12.333 119 -37z" />
    <glyph glyph-name="uni0194" unicode="&#x194;" horiz-adv-x="488" 
d="M324 90c20 -38 34.332 -71.3311 42.999 -99.998s13 -58.334 13 -89.001c0 -81.333 -44.333 -122 -133 -122c-89.333 0 -134 40.667 -134 122c0 26 4.33301 53.167 13 81.5s23.334 64.166 44.001 107.499l-179 603h157l98 -504l98 504h153zM264.999 -50.998
c-3.33301 13.333 -9.33301 32.668 -18 58.001c-15.333 -42.667 -23 -75.334 -23 -98.001c0 -20.667 7.66699 -31 23 -31s23 10.667 23 32c0 12.667 -1.66699 25.667 -5 39z" />
    <glyph glyph-name="uni0195" unicode="&#x195;" horiz-adv-x="719" 
d="M682.5 387c4.33301 -42.667 6.50098 -86.667 6.50098 -132c0 -96 -21 -165.167 -63 -207.5s-94.667 -63.5 -158 -63.5c-54 0 -97.5 14.833 -130.5 44.5s-49.5 73.167 -49.5 130.5v222c0 34.667 -9.66699 52 -29 52s-40.333 -21.333 -63 -64v-369h-151v742l151 16v-283
c16.667 25.333 34.667 43.833 54 55.5s41.666 17.5 66.999 17.5c38 0 67.833 -13.667 89.5 -41s32.5 -64 32.5 -110v-243c0 -21.333 3.16699 -36.5 9.5 -45.5s16.166 -13.5 29.499 -13.5c18.667 0 33.334 12 44.001 36s16 67.333 16 130c0 72.667 -7 162.667 -21 270h147
c8 -53.333 14.167 -101.333 18.5 -144z" />
    <glyph glyph-name="uni0196" unicode="&#x196;" horiz-adv-x="334" 
d="M341 25c-35.333 -28 -77.667 -42 -127 -42c-54 0 -97.167 14.667 -129.5 44s-48.5 72.333 -48.5 129v537h157v-546c0 -32.667 13.667 -49 41 -49c10.667 0 20 1.16699 28 3.5s17 6.5 27 12.5z" />
    <glyph glyph-name="uni0197" unicode="&#x197;" horiz-adv-x="281" 
d="M277 418v-116h-59v-302h-157v302h-57v116h57v275h157v-275h59z" />
    <glyph glyph-name="uni0198" unicode="&#x198;" horiz-adv-x="550" 
d="M208 370l89.999 207c19.333 47.333 40.333 81.333 63 102s54.334 31 95.001 31c38 0 73.667 -12 107 -36l-40 -87c-7.33301 4 -13.833 7 -19.5 9s-12.167 3 -19.5 3c-11.333 0 -20.333 -3.5 -27 -10.5s-14 -19.167 -22 -36.5l-74 -171l191 -381h-171zM202.999 693v-693
h-157v693h157z" />
    <glyph glyph-name="uni0199" unicode="&#x199;" horiz-adv-x="474" 
d="M208 631.5c-8 -9.66699 -12 -24.834 -12 -45.501v-586h-151v590c0 48.667 15.5 88.834 46.5 120.501s75.167 47.5 132.5 47.5c45.333 0 87 -11 125 -33l-42 -95c-20.667 10.667 -41 16 -61 16c-17.333 0 -30 -4.83301 -38 -14.5zM347 297l134 -297h-159l-123 290l130 241
h144z" />
    <glyph glyph-name="uni019A" unicode="&#x19a;" horiz-adv-x="287" 
d="M282 2c-10.667 -5.33301 -23.333 -9.83398 -38 -13.501s-30 -5.5 -46 -5.5c-42 0 -74.667 12.333 -98 37s-35 58.334 -35 101.001v198h-61v106h61v317l151 16v-333h61v-106h-61v-191c0 -16.667 7 -25 21 -25c4 0 10 1 18 3z" />
    <glyph glyph-name="uni019B" unicode="&#x19b;" horiz-adv-x="448" 
d="M396.5 193.5c17.667 -61 40.832 -114.832 69.499 -161.499l-144 -48c-23.333 50.667 -41.833 104.167 -55.5 160.5s-27.167 135.5 -40.5 237.5l-72 -398l-148 30l132 484h67c-6 32 -13.333 58.333 -22 79l-49 -56l-71 51l64 67c-17.333 10.667 -42.333 19.667 -75 27
l17 92c59.333 -10.667 106.333 -27.334 141 -50.001l63 62l59 -63l-60 -59c28.667 -38 50 -94.667 64 -170c22.667 -128.667 42.834 -223.5 60.501 -284.5z" />
    <glyph glyph-name="uni019C" unicode="&#x19c;" horiz-adv-x="752" 
d="M706 693l0.00195312 -693h-138l-10 60c-18.667 -26.667 -38.334 -46 -59.001 -58s-43.667 -18 -69 -18c-28 0 -52.333 7.66699 -73 23s-36.334 36.333 -47.001 63c-21.333 -30 -42.5 -51.833 -63.5 -65.5s-44.833 -20.5 -71.5 -20.5c-42.667 0 -76.5 16.5 -101.5 49.5
s-37.5 74.5 -37.5 124.5v535h157v-528c0 -42.667 12.667 -64 38 -64c22 0 42.667 19 62 57v535h156v-528c0 -19.333 3.33301 -34.833 10 -46.5s15.667 -17.5 27 -17.5c12 0 23 4.83301 33 14.5s20 25.167 30 46.5v531h157z" />
    <glyph glyph-name="uni019D" unicode="&#x19d;" horiz-adv-x="547" 
d="M501 693v-693h-194l-146 549c6.66699 -58 11.667 -106.5 15 -145.5s5 -86.167 5 -141.5v-310c0 -56 -15 -98.833 -45 -128.5s-69.333 -44.5 -118 -44.5c-46.667 0 -87 14 -121 42l52 81c11.333 -6 20.833 -10.333 28.5 -13s16.5 -4 26.5 -4c28 0 42 18.667 42 56v752h194
l146 -549c-14 92 -21 178.333 -21 259v290h136z" />
    <glyph glyph-name="uni019E" unicode="&#x19e;" horiz-adv-x="480" 
d="M406.5 507c21.667 -27.333 32.5 -64 32.5 -110v-618l-151 16v586c0 34.667 -9.66699 52 -29 52s-40.333 -21.333 -63 -64v-369h-151v531h131l11 -63c17.333 26.667 36.333 46.667 57 60s45 20 73 20c38 0 67.833 -13.667 89.5 -41z" />
    <glyph glyph-name="uni019F" unicode="&#x19f;" horiz-adv-x="581" 
d="M485.5 619.5c45 -60.333 67.5 -151.167 67.5 -272.5c0 -120 -22.667 -210.667 -68 -272s-110.333 -92 -195 -92s-149.5 30.167 -194.5 90.5s-67.5 151.5 -67.5 273.5c0 120 22.5 210.5 67.5 271.5s109.833 91.5 194.5 91.5c85.333 0 150.5 -30.167 195.5 -90.5z
M214.5 549.499c-17 -30.333 -26.833 -81.5 -29.5 -153.5h211c-2.66699 72 -12.5 123.167 -29.5 153.5s-42.5 45.5 -76.5 45.5c-33.333 0 -58.5 -15.167 -75.5 -45.5zM368 144.499c16.667 31 25.999 84.833 27.999 161.5h-211c2 -76.667 11.333 -130.5 28 -161.5
s42.334 -46.5 77.001 -46.5c35.333 0 61.333 15.5 78 46.5z" />
    <glyph glyph-name="Ohorn" unicode="&#x1a0;" horiz-adv-x="618" 
d="M585 604c-16 -20 -38.667 -33.333 -68 -40c24 -54.667 36 -127 36 -217c0 -120 -22.667 -210.667 -68 -272s-110.333 -92 -195 -92s-149.5 30.167 -194.5 90.5s-67.5 151.5 -67.5 273.5c0 120 22.5 210.5 67.5 271.5s109.833 91.5 194.5 91.5
c78.667 0 140.334 -25.333 185.001 -76c13.333 2 22.666 6.83301 27.999 14.5s8 19.5 8 35.5c0 24.667 -3.66699 49.334 -11 74.001l93 15c10.667 -30.667 16 -60.334 16 -89.001c0 -33.333 -8 -60 -24 -80zM347.5 121c14.333 15.333 25.002 41.167 32.002 77.5
s10.5 85.833 10.5 148.5c0 90.667 -7.83301 154.667 -23.5 192s-41.167 56 -76.5 56c-34.667 0 -59.834 -18.833 -75.501 -56.5s-23.5 -101.5 -23.5 -191.5c0 -62.667 3.5 -112 10.5 -148s17.667 -61.833 32 -77.5s33.166 -23.5 56.499 -23.5c24 0 43.167 7.66699 57.5 23z
" />
    <glyph glyph-name="ohorn" unicode="&#x1a1;" horiz-adv-x="534" 
d="M518.5 441c-16.333 -20 -39.5 -33.335 -69.5 -40.002c12.667 -39.333 19 -84.666 19 -135.999c0 -90 -19.5 -159.5 -58.5 -208.5s-93.167 -73.5 -162.5 -73.5s-123.5 23.833 -162.5 71.5s-58.5 118.167 -58.5 211.5c0 91.333 19.5 161.166 58.5 209.499
s93.167 72.5 162.5 72.5c72.667 0 128 -25.333 166 -76c12 2.66699 20.333 7.83398 25 15.501s7 18.834 7 33.501c0 24.667 -3.66699 49.334 -11 74.001l93 15c10.667 -30.667 16 -60.334 16 -89.001c0 -33.333 -8.16699 -60 -24.5 -80zM297.5 132.498
c10.333 25.667 15.5 69.834 15.5 132.501c0 63.333 -5.16699 107.666 -15.5 132.999s-27.166 38 -50.499 38s-40.166 -12.833 -50.499 -38.5s-15.5 -69.5 -15.5 -131.5c0 -64 5.16699 -108.667 15.5 -134s27.166 -38 50.499 -38s40.166 12.833 50.499 38.5z" />
    <glyph glyph-name="uni01A2" unicode="&#x1a2;" horiz-adv-x="803" 
d="M708.5 663c32.333 -31.333 48.501 -75 48.501 -131v-741h-157v749c0 40 -14.667 60 -44 60c-16.667 0 -33.334 -4.33301 -50.001 -13c31.333 -59.333 47 -139.333 47 -240c0 -120 -22.667 -210.667 -68 -272s-110.333 -92 -195 -92s-149.5 30.167 -194.5 90.5
s-67.5 151.5 -67.5 273.5c0 120 22.5 210.5 67.5 271.5s109.833 91.5 194.5 91.5c60.667 0 111.334 -15.333 152.001 -46c41.333 30.667 87.666 46 138.999 46c52.667 0 95.167 -15.667 127.5 -47zM347.501 121c14.333 15.333 25.002 41.167 32.002 77.5
s10.5 85.833 10.5 148.5c0 90.667 -7.83301 154.667 -23.5 192s-41.167 56 -76.5 56c-34.667 0 -59.834 -18.833 -75.501 -56.5s-23.5 -101.5 -23.5 -191.5c0 -62.667 3.5 -112 10.5 -148s17.667 -61.833 32 -77.5s33.166 -23.5 56.499 -23.5c24 0 43.167 7.66699 57.5 23z
" />
    <glyph glyph-name="uni01A3" unicode="&#x1a3;" horiz-adv-x="695" 
d="M606 503c30 -30 44.998 -74.332 44.998 -132.999v-591l-151 16v589c0 18.667 -3.16699 32.167 -9.5 40.5s-16.166 12.5 -29.499 12.5c-10 0 -20 -1.33301 -30 -4c20.667 -45.333 31 -101.333 31 -168c0 -89.333 -19.333 -158.666 -58 -207.999s-92 -74 -160 -74
s-121.333 24 -160 72s-58 118.333 -58 211c0 91.333 19.333 161.166 58 209.499s92 72.5 160 72.5c46.667 0 86.334 -11 119.001 -33c18 11.333 36.5 19.666 55.5 24.999s40.5 8 64.5 8c52 0 93 -15 123 -45zM291.998 132.501c10 25.667 15 69.834 15 132.501
c0 63.333 -5 107.666 -15 132.999s-26 38 -48 38s-38 -12.833 -48 -38.5s-15 -69.5 -15 -131.5c0 -64 5 -108.667 15 -134s26 -38 48 -38s38 12.833 48 38.5z" />
    <glyph glyph-name="uni01A4" unicode="&#x1a4;" horiz-adv-x="631" 
d="M552 636c45.333 -38 67.999 -94 67.999 -168c0 -77.333 -21.667 -135.833 -65 -175.5s-104.666 -59.5 -183.999 -59.5h-37v-233h-157v581h-18c-25.333 0 -38 -14 -38 -42c0 -22 6 -45 18 -69l-96 -42c-12.667 18.667 -22.5 38 -29.5 58s-10.5 42.667 -10.5 68
c0 42.667 14 76.5 42 101.5s68.333 37.5 121 37.5h189c86 0 151.667 -19 197 -57zM435.499 374.5c15.667 18.333 23.5 49.5 23.5 93.5c0 38.667 -7.5 67.167 -22.5 85.5s-40.5 27.5 -76.5 27.5h-26v-234h24c36 0 61.833 9.16699 77.5 27.5z" />
    <glyph glyph-name="uni01A5" unicode="&#x1a5;" horiz-adv-x="499" 
d="M432 475.5c27.333 -48.333 41 -117.832 41 -208.499c0 -57.333 -7.16699 -107.5 -21.5 -150.5s-34.5 -76 -60.5 -99s-56.667 -34.5 -92 -34.5c-41.333 0 -75.666 17.667 -102.999 53v-241l-151 -16v811c0 48.667 15.5 88.834 46.5 120.501s75.167 47.5 132.5 47.5
c45.333 0 87 -11 125 -33l-42 -95c-20.667 10.667 -41 16 -61 16c-17.333 0 -30 -4.83301 -38 -14.5s-12 -24.834 -12 -45.501v-98c15.333 21.333 32.666 36.666 51.999 45.999s41 14 65 14c52 0 91.667 -24.167 119 -72.5zM301.5 134.001c11 26 16.498 69.667 16.498 131
c0 66 -4.66699 111.167 -14 135.5s-23.666 36.5 -42.999 36.5c-24 0 -45.667 -18.667 -65 -56v-245c16.667 -27.333 36.334 -41 59.001 -41c20 0 35.5 13 46.5 39z" />
    <glyph glyph-name="uni01A6" unicode="&#x1a6;" horiz-adv-x="523" 
d="M365 -116l-113 267.002h-5h-44v-151h-157v693h157v-116h33c172.667 0 259 -70 259 -210c0 -40.667 -8.5 -77.334 -25.5 -110.001s-43.5 -58.334 -79.5 -77.001l142 -296h-167zM241 260.002c33.333 0 57.167 8.49902 71.5 25.499s21.5 44.167 21.5 81.5
c0 34 -7.66699 58.833 -23 74.5s-40.333 23.834 -75 24.501l-33 1v-207h38z" />
    <glyph glyph-name="uni01A7" unicode="&#x1a7;" horiz-adv-x="469" 
d="M398.5 657c38.333 -35.333 57.5 -82.6709 57.5 -142.004c0 -50 -13.667 -90.667 -41 -122s-73.333 -59.666 -138 -84.999c-38 -14.667 -63.667 -30.667 -77 -48s-20 -41 -20 -71c0 -28 6.83301 -49.5 20.5 -64.5s33.5 -22.5 59.5 -22.5c22.667 0 44.5 5.33301 65.5 16
s43.167 26 66.5 46l76 -83c-58.667 -64.667 -132.667 -97 -222 -97c-46.667 0 -87.167 8.83301 -121.5 26.5s-60.833 42.667 -79.5 75s-28 69.833 -28 112.5c0 56.667 13.167 100.834 39.5 132.501s69.166 59.167 128.499 82.5c42 16.667 70.833 32.834 86.5 48.501
s23.5 36.834 23.5 63.501c0 22.667 -5.66699 40 -17 52s-27.666 18 -48.999 18c-42 0 -83.333 -17.667 -124 -53l-70 80c57.333 58.667 127 88 209 88c64.667 0 116.167 -17.667 154.5 -53z" />
    <glyph glyph-name="uni01A8" unicode="&#x1a8;" horiz-adv-x="395" 
d="M332.5 503c32.333 -30 48.501 -68.332 48.501 -114.999c0 -41.333 -10.667 -74 -32 -98s-54 -44.333 -98 -61c-24.667 -8.66699 -43 -16.834 -55 -24.501s-20 -15.667 -24 -24s-6 -19.5 -6 -33.5c0 -18 4.83301 -31.833 14.5 -41.5s23.5 -14.5 41.5 -14.5
c33.333 0 67.666 15.333 102.999 46l72 -76c-22.667 -23.333 -50.667 -42 -84 -56s-68.666 -21 -105.999 -21c-58.667 0 -105.667 15 -141 45s-53 71 -53 123c0 42.667 11 76.334 33 101.001s55.333 44.667 100 60c35.333 12.667 58.666 24.667 69.999 36
s17 26.666 17 45.999c0 14.667 -4.16699 26 -12.5 34s-20.166 12 -35.499 12c-32 0 -65 -12.333 -99 -37l-56 79c50.667 43.333 107.667 65 171 65c55.333 0 99.166 -15 131.499 -45z" />
    <glyph glyph-name="uni01A9" unicode="&#x1a9;" horiz-adv-x="413" 
d="M401 693v-114h-232l142 -205v-65l-146 -192h236v-117h-390v114l166 226l-166 239v114h390z" />
    <glyph glyph-name="uni01AA" unicode="&#x1aa;" horiz-adv-x="367" 
d="M472 -179c-34.667 -28 -77.332 -41.999 -127.999 -41.999c-51.333 0 -92.833 14.5 -124.5 43.5s-47.5 70.5 -47.5 124.5v53h-1v434c-15.333 -6.66699 -32 -10 -50 -10c-42.667 0 -76.834 14.833 -102.501 44.5s-38.5 70.167 -38.5 121.5s14.5 92.166 43.5 122.499
s69.833 45.5 122.5 45.5c54 0 96.833 -15.5 128.5 -46.5s47.5 -70.833 47.5 -119.5v-591h1v-62c0 -32.667 14 -49 42 -49c10 0 19 1.16699 27 3.5s17.333 6.5 28 12.5zM171.002 533.001l0.000976562 65.999c0 20 -2.33301 33.833 -7 41.5s-12.667 11.5 -24 11.5
s-19.833 -4.5 -25.5 -13.5s-8.5 -24.5 -8.5 -46.5c0 -23.333 3.16699 -39.666 9.5 -48.999s16.5 -14 30.5 -14c9.33301 0 17.666 1.33301 24.999 4z" />
    <glyph glyph-name="uni01AB" unicode="&#x1ab;" horiz-adv-x="325" 
d="M336 25v-78c0 -54 -15.833 -95.5 -47.5 -124.5s-73.167 -43.5 -124.5 -43.5c-50 0 -92.667 14 -128 42l52 84c20 -12 41.333 -18 64 -18c36.667 0 55 19.333 55 58v38h-1c-50 0 -87.5 14.5 -112.5 43.5s-37.5 68.167 -37.5 117.5v281h-55v106h55v116l151 17v-133h99
l-16 -106h-83v-285c0 -28.667 12.333 -43 37 -43c14 0 30 3 48 9z" />
    <glyph glyph-name="uni01AC" unicode="&#x1ac;" horiz-adv-x="502" 
d="M489 573h-134v-573h-157v573h-36c-27.333 0 -41 -13.667 -41 -41c0 -19.333 4.66699 -39 14 -59l-99 -45c-22 36 -33 75.333 -33 118c0 46 15.167 82 45.5 108s71.833 39 124.5 39h331z" />
    <glyph glyph-name="uni01AD" unicode="&#x1ad;" horiz-adv-x="325" 
d="M336 25c-16.667 -14 -36 -24.498 -58 -31.498s-44.333 -10.5 -67 -10.5c-51.333 0 -90 14.667 -116 44s-39 68.666 -39 117.999v280h-55v106h55v65c0 47.333 14.167 86.166 42.5 116.499s68.833 45.5 121.5 45.5c42 0 80.333 -12.333 115 -37l-41 -85
c-10.667 6 -19.5 10.167 -26.5 12.5s-15.167 3.5 -24.5 3.5c-24 0 -36 -15 -36 -45v-76h99l-16 -106h-83v-279c0 -28.667 12.333 -43 37 -43c12.667 0 26.667 4.66699 42 14z" />
    <glyph glyph-name="uni01AE" unicode="&#x1ae;" horiz-adv-x="456" 
d="M372 -102.5c8 2.33301 16.999 6.5 26.999 12.5l52 -89c-35.333 -28 -77.666 -42 -126.999 -42c-54 0 -97.167 14.667 -129.5 44s-48.5 72.333 -48.5 129v621h-141v120h447l-16 -120h-133v-630c0 -32.667 13.667 -49 41 -49c10.667 0 20 1.16699 28 3.5z" />
    <glyph glyph-name="Uhorn" unicode="&#x1af;" horiz-adv-x="619" 
d="M594.5 593c-23 -20.667 -54.501 -31.6689 -94.501 -33.002v-360c0 -41.333 -8.66699 -78.166 -26 -110.499s-43.333 -58 -78 -77s-77.334 -28.5 -128.001 -28.5c-76 0 -133.667 19.667 -173 59s-59 91.666 -59 156.999v493h157v-486c0 -36 5.83301 -62.667 17.5 -80
s30.834 -26 57.501 -26s45.834 8.66699 57.501 26s17.5 44 17.5 80v486h157v-58c11.333 2.66699 19.333 7.83398 24 15.501s7 18.834 7 33.501c0 24.667 -3.66699 49.334 -11 74.001l93 15c10.667 -30.667 16 -60.334 16 -89.001c0 -40 -11.5 -70.333 -34.5 -91z" />
    <glyph glyph-name="uhorn" unicode="&#x1b0;" horiz-adv-x="546" 
d="M561 521c0 -40 -11.5 -70.335 -34.5 -91.002s-54.833 -31.667 -95.5 -33v-397h-132l-6 61c-32 -52 -74.333 -78 -127 -78c-38.667 0 -69.167 14 -91.5 42s-33.5 65 -33.5 111v395h151v-389c0 -15.333 2.66699 -27 8 -35s13 -12 23 -12c21.333 0 40.333 18.667 57 56v380
h151v-59c12 2.66699 20.333 7.83398 25 15.501s7 18.834 7 33.501c0 24.667 -3.66699 49.334 -11 74.001l93 15c10.667 -30.667 16 -60.334 16 -89.001z" />
    <glyph glyph-name="uni01B1" unicode="&#x1b1;" horiz-adv-x="566" 
d="M88.5 66.5c-45.667 55 -68.501 132.5 -68.501 232.5c0 68.667 9.33301 125.334 28 170.001s45.667 81.667 81 111h-92v113h205v-107c-20.667 -34.667 -35.667 -73 -45 -115s-14 -99.333 -14 -172s8 -124.167 24 -154.5s41.333 -45.5 76 -45.5s59.834 15.167 75.501 45.5
s23.5 82.166 23.5 155.499c0 72.667 -4.5 130 -13.5 172s-23.5 80 -43.5 114v107h204v-113h-93c35.333 -28 62.5 -64.167 81.5 -108.5s28.5 -101.5 28.5 -171.5c0 -98.667 -23 -176 -69 -232s-110.667 -84 -194 -84c-84 0 -148.833 27.5 -194.5 82.5z" />
    <glyph glyph-name="uni01B2" unicode="&#x1b2;" horiz-adv-x="536" 
d="M464.5 672.5c23.667 -25 35.5 -61.167 35.5 -108.5v-296c0 -59.333 -10.333 -110.333 -31 -153s-49.834 -75.167 -87.501 -97.5s-81.167 -33.5 -130.5 -33.5c-44 0 -82.167 8.83301 -114.5 26.5s-57.166 42 -74.499 73s-26 66.5 -26 106.5v503h157v-509
c0 -26.667 5.33301 -47.167 16 -61.5s26 -21.5 46 -21.5c26 0 47.167 13.333 63.5 40s24.5 65.667 24.5 117v307c0 9.33301 -2 16.833 -6 22.5s-9.33301 8.5 -16 8.5c-5.33301 0 -12 -1.33301 -20 -4l-21 102c25.333 10.667 53.333 16 84 16
c43.333 0 76.833 -12.5 100.5 -37.5z" />
    <glyph glyph-name="uni01B3" unicode="&#x1b3;" horiz-adv-x="530" 
d="M172 260l-182.001 433h164l99 -309l55 187c13.333 50 31 85.667 53 107s52.667 32 92 32c38.667 0 74.334 -12 107.001 -36l-40 -87c-14.667 8 -28.667 12 -42 12c-12 0 -21.333 -3.83301 -28 -11.5s-13.667 -21.5 -21 -41.5l-100 -286v-260h-157v260z" />
    <glyph glyph-name="uni01B4" unicode="&#x1b4;" horiz-adv-x="443" 
d="M32 -117c42 7.33301 73.832 19.5 95.499 36.5s38.5 43.833 50.5 80.5h-56l-127 531h152l70 -434l61 359c7.33301 45.333 20.333 78 39 98s46.667 30 84 30c26.667 0 51.667 -5.33301 75 -16l-24 -95c-6.66699 3.33301 -14 5 -22 5c-15.333 0 -25 -10 -29 -30l-91 -449
c-12.667 -66 -41.667 -117.833 -87 -155.5s-103.666 -59.167 -174.999 -64.5z" />
    <glyph glyph-name="uni01B5" unicode="&#x1b5;" horiz-adv-x="450" 
d="M169 126h268l-15 -126h-412v111l105 183h-67v101h124l101 176h-239v122h398v-113l-107 -185h67v-101h-126z" />
    <glyph glyph-name="uni01B6" unicode="&#x1b6;" horiz-adv-x="385" 
d="M160 109h215l-12 -109h-354v101l79 121h-54v92h115l71 109h-194v108h345v-100l-77 -117h57v-92h-117z" />
    <glyph glyph-name="uni01B7" unicode="&#x1b7;" horiz-adv-x="454" 
d="M394.5 346c31 -33.333 46.4971 -80.667 46.4971 -142c0 -42.667 -9.16699 -80.5 -27.5 -113.5s-45.166 -59 -80.499 -78s-77.333 -28.5 -126 -28.5c-47.333 0 -87.666 8.5 -120.999 25.5s-62 42.167 -86 75.5l83 71c18.667 -20 36.334 -34.333 53.001 -43s36 -13 58 -13
c27.333 0 48.5 9.5 63.5 28.5s22.5 46.5 22.5 82.5c0 35.333 -8 60.666 -24 75.999s-40.667 23 -74 23h-79v89l148 180h-215v114h373v-111l-152 -181c60.667 -3.33301 106.5 -21.666 137.5 -54.999z" />
    <glyph glyph-name="uni01B8" unicode="&#x1b8;" horiz-adv-x="454" 
d="M454 85c-50.667 -67.333 -119.999 -101 -207.999 -101c-48.667 0 -90.5 9.33301 -125.5 28s-61.667 44.5 -80 77.5s-27.5 70.5 -27.5 112.5c0 124 61.667 190.333 185 199l-153 181v111h373v-114h-215l148 -180v-89h-79c-33.333 0 -58 -8.16699 -74 -24.5
s-24 -42.833 -24 -79.5c0 -35.333 7.16699 -61.833 21.5 -79.5s35.166 -26.5 62.499 -26.5c22 0 41.333 4.33301 58 13s35 23 55 43z" />
    <glyph glyph-name="uni01B9" unicode="&#x1b9;" horiz-adv-x="426" 
d="M441 -120c-47.333 -67.333 -115.001 -100.999 -203.001 -100.999c-47.333 0 -88.166 9.66699 -122.499 29s-60.5 46.166 -78.5 80.499s-27 73.833 -27 118.5c0 62.667 15.333 111 46 145s75 53.667 133 59l-150 216v104h367v-113h-209l141 -207v-89h-73
c-34 0 -59.167 -8.83301 -75.5 -26.5s-24.5 -46.167 -24.5 -85.5c0 -76.667 28 -115 84 -115c21.333 0 40.333 4.5 57 13.5s35 24.167 55 45.5z" />
    <glyph glyph-name="uni01BA" unicode="&#x1ba;" horiz-adv-x="429" 
d="M59.5 -159c-25 25.333 -37.498 54.666 -37.498 87.999c0 34.667 11.333 62.334 34 83.001s57.334 36.334 104.001 47.001c38.667 8.66699 65 18.5 79 29.5s21 27.833 21 50.5c0 18 -5.16699 31.167 -15.5 39.5s-27.5 12.5 -51.5 12.5h-101v83l133 150h-208v107h366v-99
l-141 -153h16c47.333 0 85 -12.667 113 -38s42 -60.666 42 -105.999c-0.666992 -49.333 -15.334 -86.833 -44.001 -112.5s-68.334 -44.834 -119.001 -57.501c-26 -6.66699 -45.333 -12.334 -58 -17.001s-21.334 -9.66699 -26.001 -15s-7 -12 -7 -20
c0 -18 11.667 -34.667 35 -50l-32 -84c-43.333 16 -77.5 36.667 -102.5 62z" />
    <glyph glyph-name="uni01BB" unicode="&#x1bb;" horiz-adv-x="431" 
d="M404 117l-15.998 -116.999h-375v108l107 134h-74v101h144c18 29.333 30.5 55.5 37.5 78.5s10.5 46.833 10.5 71.5c0 26.667 -5.5 46.667 -16.5 60s-26.833 20 -47.5 20c-18.667 0 -34.667 -4.83301 -48 -14.5s-29.333 -26.167 -48 -49.5l-87 65
c50.667 77.333 117.334 116 200.001 116c42.667 0 79.167 -8.33301 109.5 -25s53.166 -39.167 68.499 -67.5s23 -59.833 23 -94.5c0 -28 -3.33301 -54.333 -10 -79s-18.334 -51.667 -35.001 -81h54v-101h-123c-28.667 -36.667 -63.334 -78.334 -104.001 -125.001h230z" />
    <glyph glyph-name="uni01BC" unicode="&#x1bc;" horiz-adv-x="459" 
d="M389 584l-202.998 0.000976562v-157c15.333 9.33301 29.666 15.833 42.999 19.5s27.666 5.5 42.999 5.5c48 0 87 -19.333 117 -58s45 -94 45 -166c0 -48.667 -9.5 -91.5 -28.5 -128.5s-46 -65.667 -81 -86s-75.833 -30.5 -122.5 -30.5c-43.333 0 -80.5 8.66699 -111.5 26
s-58.5 42.333 -82.5 75l82 73c16.667 -20 33 -35 49 -45s34.667 -15 56 -15c57.333 0 86 43.333 86 130c0 45.333 -6 76.833 -18 94.5s-29.667 26.5 -53 26.5c-11.333 0 -22 -1.83301 -32 -5.5s-21.333 -9.83398 -34 -18.501h-99v369h361z" />
    <glyph glyph-name="uni01BD" unicode="&#x1bd;" horiz-adv-x="405" 
d="M337 422l-160 0.00195312v-90c18.667 10 41.667 15 69 15c38.667 0 71.334 -14.833 98.001 -44.5s40 -71.834 40 -126.501c0 -60 -18.333 -107 -55 -141s-84.667 -51 -144 -51c-38.667 0 -71.334 6.66699 -98.001 20s-52 33 -76 59l77 78
c18 -16.667 33.5 -28.167 46.5 -34.5s27.167 -9.5 42.5 -9.5c20 0 34.833 6.16699 44.5 18.5s14.5 32.166 14.5 59.499c0 46.667 -15 70 -45 70c-16 0 -31.667 -5 -47 -15h-96v301h309z" />
    <glyph glyph-name="uni01BE" unicode="&#x1be;" horiz-adv-x="428" 
d="M371 357.5c20.667 -31.667 31.001 -77.166 31.001 -136.499c0 -76.667 -19.5 -135.334 -58.5 -176.001s-91.167 -61 -156.5 -61c-38 0 -72.5 7.5 -103.5 22.5s-60.167 37.833 -87.5 68.5l74 72c17.333 -17.333 33.666 -30.166 48.999 -38.499s32 -12.5 50 -12.5
c52.667 0 79 42 79 126c0 46 -7.66699 80.5 -23 103.5s-41 39.833 -77 50.5l-39 12v143h-57v90h57v121l151 16v-137h74v-90h-74v-95l21 -9c39.333 -14.667 69.333 -37.834 90 -69.501z" />
    <glyph glyph-name="uni01BF" unicode="&#x1bf;" horiz-adv-x="499" 
d="M398.5 524.5c23 -15.667 41.167 -38.334 54.5 -68.001s20 -64.5 20 -104.5c0 -56.667 -9.33301 -105 -28 -145s-44 -74.167 -76 -102.5s-72.667 -57.166 -122 -86.499l-51 -31v-192l-151 -16v752h134l6 -56c41.333 48.667 86.333 73 135 73
c29.333 0 55.5 -7.83301 78.5 -23.5zM294 219.5c16 37 23.999 80.501 23.999 130.501c0 59.333 -16.333 89 -49 89c-13.333 0 -25.666 -3.83301 -36.999 -11.5s-23.333 -18.834 -36 -33.501v-297l26 24c32 28.667 56 61.5 72 98.5z" />
    <glyph glyph-name="uni01C0" unicode="&#x1c0;" horiz-adv-x="222" 
d="M175 755v-755h-129v742z" />
    <glyph glyph-name="uni01C1" unicode="&#x1c1;" horiz-adv-x="404" 
d="M175 755v-755h-129v742zM358 755v-755h-129v742z" />
    <glyph glyph-name="uni01C2" unicode="&#x1c2;" horiz-adv-x="281" 
d="M277 399h-72v-65h72v-87h-72v-247h-129v247h-72v87h72v65h-72v87h72v256l129 13v-269h72v-87z" />
    <glyph glyph-name="uni01C3" unicode="&#x1c3;" horiz-adv-x="263" 
d="M196 755v-523h-128v510zM193 132c16 -17.333 24 -38 24 -62s-8 -44.5 -24 -61.5s-36.667 -25.5 -62 -25.5c-24.667 0 -45 8.5 -61 25.5s-24 37.5 -24 61.5s8 44.667 24 62s36.333 26 61 26c25.333 0 46 -8.66699 62 -26z" />
    <glyph glyph-name="uni01C4" unicode="&#x1c4;" horiz-adv-x="974" 
d="M375.5 666.5c43 -17.667 78 -51.667 105 -102s40.5 -121.833 40.5 -214.5c0 -130 -26.167 -220.833 -78.5 -272.5s-122.5 -77.5 -210.5 -77.5h-186v693h175c60 0 111.5 -8.83301 154.5 -26.5zM203 580v-465.998h38c26.667 0 48.5 6.83301 65.5 20.5
s30.167 37.667 39.5 72s14 82.166 14 143.499c0 62 -4.83301 109.667 -14.5 143s-23 56.166 -40 68.499s-38.5 18.5 -64.5 18.5h-38zM956 693.002v-119l-251 -448h256l-15 -126h-412v117l250 454h-226v122h398zM863 936.002l52 -55l-118 -131h-90l-118 131l52 55l111 -84z
" />
    <glyph glyph-name="uni01C5" unicode="&#x1c5;" horiz-adv-x="924" 
d="M375.5 666.5c43 -17.667 78 -51.667 105 -102s40.5 -121.833 40.5 -214.5c0 -130 -26.167 -220.833 -78.5 -272.5s-122.5 -77.5 -210.5 -77.5h-186v693h175c60 0 111.5 -8.83301 154.5 -26.5zM203 580v-465.998h38c26.667 0 48.5 6.83301 65.5 20.5
s30.167 37.667 39.5 72s14 82.166 14 143.499c0 62 -4.83301 109.667 -14.5 143s-23 56.166 -40 68.499s-38.5 18.5 -64.5 18.5h-38zM910 531.002v-107l-198 -309h202l-12 -115h-354v107l198 310h-181v114h345zM848 807.002l52 -55l-118 -139h-90l-118 139l52 55l111 -93z
" />
    <glyph glyph-name="uni01C6" unicode="&#x1c6;" horiz-adv-x="885" 
d="M456 742v-742.001h-135l-5 56c-15.333 -22.667 -32.666 -40.5 -51.999 -53.5s-42.666 -19.5 -69.999 -19.5c-54.667 0 -96.334 24.5 -125.001 73.5s-43 118.833 -43 209.5c0 56.667 7.66699 106.334 23 149.001s36.666 75.5 63.999 98.5s58.333 34.5 93 34.5
c40 0 73 -16.333 99 -49v259zM305 145.999l0.000976562 248c-8.66699 14.667 -17.334 25.5 -26.001 32.5s-18.667 10.5 -30 10.5c-45.333 0 -68 -57 -68 -171c0 -64.667 5.5 -109.5 16.5 -134.5s26.167 -37.5 45.5 -37.5c23.333 0 44 17.333 62 52zM871.001 530.999v-107
l-198 -309h202l-12 -115h-354v107l198 310h-181v114h345zM809.001 806.999l52 -55l-118 -139h-90l-118 139l52 55l111 -93z" />
    <glyph glyph-name="uni01C7" unicode="&#x1c7;" horiz-adv-x="670" 
d="M203 693v-569h218l-16 -124h-359v693h157zM626 104c0 -53.333 -9 -97.6689 -27 -133.002s-41 -63.166 -69 -83.499s-61.667 -38.166 -101 -53.499l-41 110c24 12 41.667 24.833 53 38.5s18.833 30 22.5 49s5.5 45.167 5.5 78.5v583h157v-589z" />
    <glyph glyph-name="uni01C8" unicode="&#x1c8;" horiz-adv-x="651" 
d="M203 693v-569h218l-16 -124h-359v693h157zM607 38c0 -69.333 -16.498 -123 -49.498 -161s-80.167 -70.333 -141.5 -97l-51 109c21.333 12.667 38.166 24.667 50.499 36s22.166 25.833 29.499 43.5s11 40.167 11 67.5v495h151v-493zM592.502 782.5
c15.667 -16.333 23.5 -37.166 23.5 -62.499c0 -24.667 -8 -45.167 -24 -61.5s-36.667 -24.5 -62 -24.5s-46 8.16699 -62 24.5s-24 36.833 -24 61.5c0 25.333 8 46.166 24 62.499s36.667 24.5 62 24.5c26 0 46.833 -8.16699 62.5 -24.5z" />
    <glyph glyph-name="uni01C9" unicode="&#x1c9;" horiz-adv-x="494" 
d="M75 20c-23.333 24.667 -34.999 58.333 -34.999 101v621l151 16v-630c0 -16.667 7 -25 21 -25c4 0 10 1 18 3l27 -104c-10.667 -5.33301 -23.334 -9.83301 -38.001 -13.5s-30 -5.5 -46 -5.5c-42 0 -74.667 12.333 -98 37zM450.001 37.999
c0 -69.333 -16.498 -123 -49.498 -161s-80.167 -70.333 -141.5 -97l-51 109c21.333 12.667 38.166 24.667 50.499 36s22.166 25.833 29.499 43.5s11 40.167 11 67.5v495h151v-493zM435.503 782.499c15.667 -16.333 23.5 -37.166 23.5 -62.499
c0 -24.667 -8 -45.167 -24 -61.5s-36.667 -24.5 -62 -24.5s-46 8.16699 -62 24.5s-24 36.833 -24 61.5c0 25.333 8 46.166 24 62.499s36.667 24.5 62 24.5c26 0 46.833 -8.16699 62.5 -24.5z" />
    <glyph glyph-name="uni01CA" unicode="&#x1ca;" horiz-adv-x="814" 
d="M501 0h-194l-146 549c6.66699 -58 11.667 -106.5 15 -145.5s5 -86.167 5 -141.5v-262h-135v693h194l146 -549c-14 92 -21 178.333 -21 259v290h136v-693zM770 104c0 -53.333 -9 -97.6689 -27 -133.002s-41 -63.166 -69 -83.499s-61.667 -38.166 -101 -53.499l-41 110
c24 12 41.667 24.833 53 38.5s18.833 30 22.5 49s5.5 45.167 5.5 78.5v583h157v-589z" />
    <glyph glyph-name="uni01CB" unicode="&#x1cb;" horiz-adv-x="787" 
d="M501 0h-194l-146 549c6.66699 -58 11.667 -106.5 15 -145.5s5 -86.167 5 -141.5v-262h-135v693h194l146 -549c-14 92 -21 178.333 -21 259v290h136v-693zM743 38c0 -69.333 -16.498 -123 -49.498 -161s-80.167 -70.333 -141.5 -97l-51 109
c21.333 12.667 38.166 24.667 50.499 36s22.166 25.833 29.499 43.5s11 40.167 11 67.5v495h151v-493zM728.502 782.5c15.667 -16.333 23.5 -37.166 23.5 -62.499c0 -24.667 -8 -45.167 -24 -61.5s-36.667 -24.5 -62 -24.5s-46 8.16699 -62 24.5s-24 36.833 -24 61.5
c0 25.333 8 46.166 24 62.499s36.667 24.5 62 24.5c26 0 46.833 -8.16699 62.5 -24.5z" />
    <glyph glyph-name="uni01CC" unicode="&#x1cc;" horiz-adv-x="720" 
d="M406.5 507c21.667 -27.333 32.5 -64 32.5 -110v-397h-151v381c0 34.667 -9.66699 52 -29 52s-40.333 -21.333 -63 -64v-369h-151v531h131l11 -63c17.333 26.667 36.333 46.667 57 60s45 20 73 20c38 0 67.833 -13.667 89.5 -41zM676 38
c0 -69.333 -16.498 -123 -49.498 -161s-80.167 -70.333 -141.5 -97l-51 109c21.333 12.667 38.166 24.667 50.499 36s22.166 25.833 29.499 43.5s11 40.167 11 67.5v495h151v-493zM661.502 782.5c15.667 -16.333 23.5 -37.166 23.5 -62.499c0 -24.667 -8 -45.167 -24 -61.5
s-36.667 -24.5 -62 -24.5s-46 8.16699 -62 24.5s-24 36.833 -24 61.5c0 25.333 8 46.166 24 62.499s36.667 24.5 62 24.5c26 0 46.833 -8.16699 62.5 -24.5z" />
    <glyph glyph-name="uni01CD" unicode="&#x1cd;" horiz-adv-x="506" 
d="M356 0l-28 152h-154l-27 -152h-156l168 693h188l168 -693h-159zM195 265h113l-57 313zM364 936l52 -55l-118 -131h-90l-118 131l52 55l111 -84z" />
    <glyph glyph-name="uni01CE" unicode="&#x1ce;" horiz-adv-x="457" 
d="M416 104c4 -8 11.001 -14.334 21.001 -19.001l-31 -99c-28.667 2.66699 -52.167 9.5 -70.5 20.5s-32.5 28.167 -42.5 51.5c-30.667 -50 -74.334 -75 -131.001 -75c-44 0 -79 15.167 -105 45.5s-39 70.5 -39 120.5c0 58 18 102.167 54 132.5s88.667 45.5 158 45.5h32v28
c0 32 -4.83301 54.167 -14.5 66.5s-26.834 18.5 -51.501 18.5c-30.667 0 -68.667 -9 -114 -27l-34 96c27.333 12.667 56.5 22.334 87.5 29.001s60.5 10 88.5 10c62.667 0 109.334 -15.167 140.001 -45.5s46 -76.833 46 -139.5v-222c0 -16.667 2 -29 6 -37zM239.001 102.999
c9.33301 8.66699 17.001 20.999 23.001 36.999v103h-18c-27.333 0 -47.166 -6.5 -59.499 -19.5s-18.5 -33.5 -18.5 -61.5c0 -23.333 3.66699 -41.166 11 -53.499s17.666 -18.5 30.999 -18.5c11.333 0 21.666 4.33301 30.999 13zM337.002 806.998l52 -55l-118 -139h-90
l-118 139l52 55l111 -93z" />
    <glyph glyph-name="uni01CF" unicode="&#x1cf;" horiz-adv-x="250" 
d="M203 693v-693h-157v693h157zM236 936l52 -55l-118 -131h-90l-118 131l52 55l111 -84z" />
    <glyph glyph-name="uni01D0" unicode="&#x1d0;" horiz-adv-x="240" 
d="M196 531v-531h-151v531h151zM231 807l52 -55l-118 -139h-90l-118 139l52 55l111 -93z" />
    <glyph glyph-name="uni01D1" unicode="&#x1d1;" horiz-adv-x="581" 
d="M485.5 619.5c45 -60.333 67.5 -151.167 67.5 -272.5c0 -120 -22.667 -210.667 -68 -272s-110.333 -92 -195 -92s-149.5 30.167 -194.5 90.5s-67.5 151.5 -67.5 273.5c0 120 22.5 210.5 67.5 271.5s109.833 91.5 194.5 91.5c85.333 0 150.5 -30.167 195.5 -90.5z
M214.5 538.499c-15.667 -37.667 -23.498 -101.499 -23.498 -191.499c0 -62.667 3.5 -112 10.5 -148s17.667 -61.833 32 -77.5s33.166 -23.5 56.499 -23.5c24 0 43.167 7.66699 57.5 23s25 41.166 32 77.499s10.5 85.833 10.5 148.5c0 90.667 -7.83301 154.667 -23.5 192
s-41.167 56 -76.5 56c-34.667 0 -59.834 -18.833 -75.501 -56.5zM401.002 936l52 -55l-118 -131h-90l-118 131l52 55l111 -84z" />
    <glyph glyph-name="uni01D2" unicode="&#x1d2;" horiz-adv-x="494" 
d="M409.5 477c39 -47.333 58.5 -117.999 58.5 -211.999c0 -90 -19.5 -159.5 -58.5 -208.5s-93.167 -73.5 -162.5 -73.5s-123.5 23.833 -162.5 71.5s-58.5 118.167 -58.5 211.5c0 91.333 19.5 161.166 58.5 209.499s93.167 72.5 162.5 72.5s123.5 -23.667 162.5 -71z
M196.5 397.501c-10.333 -25.667 -15.5 -69.5 -15.5 -131.5c0 -64 5.16699 -108.667 15.5 -134s27.166 -38 50.499 -38s40.166 12.833 50.499 38.5s15.5 69.834 15.5 132.501c0 63.333 -5.16699 107.666 -15.5 132.999s-27.166 38 -50.499 38s-40.166 -12.833 -50.499 -38.5z
M358 807.001l52 -55l-118 -139h-90l-118 139l52 55l111 -93z" />
    <glyph glyph-name="uni01D3" unicode="&#x1d3;" horiz-adv-x="536" 
d="M500 200c0 -41.333 -8.66797 -78.166 -26.001 -110.499s-43.333 -58 -78 -77s-77.334 -28.5 -128.001 -28.5c-76 0 -133.667 19.667 -173 59s-59 91.666 -59 156.999v493h157v-486c0 -36 5.83301 -62.667 17.5 -80s30.834 -26 57.501 -26s45.834 8.66699 57.501 26
s17.5 44 17.5 80v486h157v-493zM378.999 936l52 -55l-118 -131h-90l-118 131l52 55l111 -84z" />
    <glyph glyph-name="uni01D4" unicode="&#x1d4;" horiz-adv-x="476" 
d="M431 0h-132l-6 61c-32 -52 -74.333 -78 -127 -78c-38.667 0 -69.167 14 -91.5 42s-33.5 65 -33.5 111v395h151v-389c0 -15.333 2.66699 -27 8 -35s13 -12 23 -12c21.333 0 40.333 18.667 57 56v380h151v-531zM348 807l52 -55l-118 -139h-90l-118 139l52 55l111 -93z" />
    <glyph glyph-name="uni01D5" unicode="&#x1d5;" horiz-adv-x="536" 
d="M500 200c0 -41.333 -8.66797 -78.166 -26.001 -110.499s-43.333 -58 -78 -77s-77.334 -28.5 -128.001 -28.5c-76 0 -133.667 19.667 -173 59s-59 91.666 -59 156.999v493h157v-486c0 -36 5.83301 -62.667 17.5 -80s30.834 -26 57.501 -26s45.834 8.66699 57.501 26
s17.5 44 17.5 80v486h157v-493zM223.999 876c14 -14.667 21 -32.667 21 -54c0 -22 -6.83301 -40.167 -20.5 -54.5s-31.5 -21.5 -53.5 -21.5c-21.333 0 -39.166 7.33301 -53.499 22s-21.5 32.667 -21.5 54s7.16699 39.333 21.5 54s32.166 22 53.499 22s39 -7.33301 53 -22z
M419.999 876c14 -14.667 21 -32.667 21 -54c0 -22 -6.83301 -40.167 -20.5 -54.5s-31.5 -21.5 -53.5 -21.5c-20.667 0 -38.167 7.33301 -52.5 22s-21.5 32.667 -21.5 54s7.16699 39.333 21.5 54s31.833 22 52.5 22c21.333 0 39 -7.33301 53 -22zM398.999 943h-260v102h260
v-102z" />
    <glyph glyph-name="uni01D6" unicode="&#x1d6;" horiz-adv-x="476" 
d="M431 0h-132l-6 61c-32 -52 -74.333 -78 -127 -78c-38.667 0 -69.167 14 -91.5 42s-33.5 65 -33.5 111v395h151v-389c0 -15.333 2.66699 -27 8 -35s13 -12 23 -12c21.333 0 40.333 18.667 57 56v380h151v-531zM193 734c14 -14.667 21 -32.667 21 -54
c0 -22 -6.83301 -40.167 -20.5 -54.5s-31.5 -21.5 -53.5 -21.5c-21.333 0 -39.166 7.33301 -53.499 22s-21.5 32.667 -21.5 54s7.16699 39.333 21.5 54s32.166 22 53.499 22s39 -7.33301 53 -22zM389 734c14 -14.667 21 -32.667 21 -54c0 -22 -6.83301 -40.167 -20.5 -54.5
s-31.5 -21.5 -53.5 -21.5c-20.667 0 -38.167 7.33301 -52.5 22s-21.5 32.667 -21.5 54s7.16699 39.333 21.5 54s31.833 22 52.5 22c21.333 0 39 -7.33301 53 -22zM368 804h-260v102h260v-102z" />
    <glyph glyph-name="uni01D7" unicode="&#x1d7;" horiz-adv-x="536" 
d="M500 200c0 -41.333 -8.66797 -78.166 -26.001 -110.499s-43.333 -58 -78 -77s-77.334 -28.5 -128.001 -28.5c-76 0 -133.667 19.667 -173 59s-59 91.666 -59 156.999v493h157v-486c0 -36 5.83301 -62.667 17.5 -80s30.834 -26 57.501 -26s45.834 8.66699 57.501 26
s17.5 44 17.5 80v486h157v-493zM330.999 1088l88 -76l-144 -144l-59 48zM216.499 878.5c13.667 -14.333 20.5 -32.5 20.5 -54.5s-6.83301 -40.167 -20.5 -54.5s-31.5 -21.5 -53.5 -21.5c-21.333 0 -39.166 7.33301 -53.499 22s-21.5 32.667 -21.5 54s7.16699 39.333 21.5 54
s32.166 22 53.499 22c22 0 39.833 -7.16699 53.5 -21.5zM426.499 878.5c13.667 -14.333 20.5 -32.5 20.5 -54.5s-6.83301 -40.167 -20.5 -54.5s-31.5 -21.5 -53.5 -21.5c-21.333 0 -39.166 7.33301 -53.499 22s-21.5 32.667 -21.5 54s7.16699 39.333 21.5 54
s32.166 22 53.499 22c22 0 39.833 -7.16699 53.5 -21.5z" />
    <glyph glyph-name="uni01D8" unicode="&#x1d8;" horiz-adv-x="476" 
d="M431 0h-132l-6 61c-32 -52 -74.333 -78 -127 -78c-38.667 0 -69.167 14 -91.5 42s-33.5 65 -33.5 111v395h151v-389c0 -15.333 2.66699 -27 8 -35s13 -12 23 -12c21.333 0 40.333 18.667 57 56v380h151v-531zM300 943l88 -76l-144 -144l-59 48zM185 734
c14 -14.667 21 -32.667 21 -54c0 -22 -6.83301 -40.333 -20.5 -55s-31.5 -22 -53.5 -22c-21.333 0 -39.166 7.5 -53.499 22.5s-21.5 33.167 -21.5 54.5s7.16699 39.333 21.5 54s32.166 22 53.499 22s39 -7.33301 53 -22zM395 734c14 -14.667 21 -32.667 21 -54
c0 -22 -6.83301 -40.333 -20.5 -55s-31.5 -22 -53.5 -22c-21.333 0 -39.166 7.5 -53.499 22.5s-21.5 33.167 -21.5 54.5s7.16699 39.333 21.5 54s32.166 22 53.499 22s39 -7.33301 53 -22z" />
    </font>
</defs>
</svg>
